<svg width="148" height="65" viewBox="0 0 148 65" fill="none" xmlns="http://www.w3.org/2000/svg">
<g id="Group">
<path id="Vector" d="M43.3617 17.6065C42.9257 17.4854 42.4572 17.4427 42.0031 17.4391C40.468 17.4177 38.9328 17.432 37.4013 17.432C37.3256 17.432 37.2463 17.432 37.1382 17.432C37.1382 17.3394 37.1382 17.261 37.1382 17.179C37.1346 13.1286 37.131 9.08182 37.1346 5.03142C37.1346 3.96628 36.8751 2.99019 36.2301 2.13167C35.567 1.25177 34.7021 0.692477 33.585 0.549983C33.5525 0.546421 33.5273 0.532171 33.4985 0.521484C26.547 0.521484 19.5955 0.521484 12.6441 0.521484C12.4026 0.57492 12.154 0.606981 11.9161 0.685353C10.5143 1.14133 9.66022 2.12454 9.20616 3.47824C9.044 3.95559 8.98634 4.45432 8.98634 4.95661C8.98994 9.03551 8.98634 13.1144 8.98634 17.1933C8.98634 17.2681 8.98634 17.3429 8.98634 17.4391C8.89985 17.4391 8.82778 17.4391 8.75931 17.4391C7.32144 17.4427 5.87998 17.4035 4.44211 17.464C2.52136 17.546 0.762766 18.8534 0.33393 20.745C0.297893 20.8981 0.272667 21.0549 0.240234 21.2081C0.240234 27.3353 0.240234 33.4661 0.240234 39.5934C1.20241 39.7074 1.9772 40.1455 2.5646 40.9008C2.65469 41.0147 2.74118 41.0717 2.88533 41.0753C4.20427 41.1323 5.51961 41.1964 6.83855 41.2606C8.37011 41.3354 9.90167 41.4209 11.4332 41.4957C12.5107 41.5491 13.5918 41.599 14.6693 41.6488C14.9864 41.6631 15.3 41.6773 15.6171 41.7023C15.718 41.7094 15.7612 41.6809 15.8045 41.5919C16.2982 40.5552 17.1306 39.9745 18.2838 39.9282C19.8406 39.8677 21.037 41.0326 21.1595 42.3791C21.1848 42.657 21.1379 42.942 21.1307 43.2234C21.1271 43.3125 21.1307 43.4158 21.1667 43.4941C23.1488 48.0718 25.1308 52.6494 27.12 57.2199C27.1524 57.2911 27.2425 57.3624 27.3182 57.3909C28.1002 57.6581 28.7561 58.4596 28.6516 59.5247C28.5723 60.3476 27.8768 61.11 27.0047 61.256C26.7524 61.2988 26.4821 61.2632 26.2227 61.2453C26.129 61.2382 26.0605 61.2311 25.9921 61.3202C25.1884 62.339 24.3776 63.3507 23.5704 64.3695C23.5632 64.3767 23.5668 64.3909 23.5596 64.4158C23.6136 64.4194 23.6641 64.423 23.7109 64.423C29.8083 64.423 35.9057 64.423 42.0031 64.4194C43.3581 64.4194 44.5437 63.9812 45.4987 63.0123C46.1185 62.3817 46.4969 61.6265 46.605 60.7466C46.6086 60.7181 46.6267 60.6932 46.6375 60.6682C46.6375 47.5374 46.6375 34.4066 46.6375 21.2758C46.5834 21.0121 46.551 20.7414 46.4681 20.4849C45.9888 18.9567 44.8969 18.0304 43.3617 17.6065ZM34.0895 17.4248C32.8246 17.4248 31.5669 17.4248 30.284 17.4248C30.284 17.521 30.284 17.5887 30.284 17.6564C30.284 19.6406 30.284 21.6249 30.2876 23.6055C30.2876 24.0152 30.1543 24.3429 29.7831 24.5531C29.4155 24.7633 28.9759 24.7241 28.648 24.4498C28.5795 24.3928 28.5146 24.3287 28.4534 24.2681C26.1975 22.0381 23.9416 19.8116 21.6893 17.5816C21.5848 17.4783 21.4803 17.432 21.3325 17.432C18.3162 17.4391 15.3 17.4391 12.2837 17.4391C12.208 17.4391 12.1323 17.4391 12.0314 17.4391C12.0314 17.3572 12.0314 17.3037 12.0314 17.2503C12.0314 13.1465 12.0314 9.04619 12.0314 4.94236C12.0314 4.53982 12.1251 4.1729 12.3846 3.85585C12.5576 3.64211 12.7774 3.52811 13.0657 3.52811C19.7289 3.53167 26.3957 3.53167 33.0588 3.52811C33.3868 3.52811 33.6138 3.68129 33.7904 3.92709C34.0174 4.23702 34.0823 4.58969 34.0823 4.96374C34.0823 6.41005 34.0859 7.85637 34.0859 9.30268C34.0859 11.9246 34.0859 14.5465 34.0859 17.1648C34.0895 17.2432 34.0895 17.3215 34.0895 17.4248Z" fill="#B9C5D1"/>
<path id="Vector_2" d="M5.62802 59.4215C5.72172 59.4394 5.74334 59.4002 5.78298 59.3289C5.94875 59.0368 6.10731 58.7411 6.30191 58.4668C6.38119 58.3493 6.3884 58.278 6.33074 58.1569C4.4244 54.2597 2.52166 50.3589 0.622526 46.4546C0.536038 46.2765 0.453153 46.1696 0.244141 46.2551C0.244141 50.3055 0.244141 54.3559 0.244141 58.4063C0.27297 58.417 0.301799 58.4276 0.330629 58.4312C2.09643 58.7625 3.86222 59.0902 5.62802 59.4215Z" fill="#B9C5D1"/>
<path id="Vector_3" d="M15.8406 43.8898C15.7829 43.7544 15.7109 43.7188 15.5811 43.7117C14.7631 43.6761 13.9487 43.6369 13.1306 43.5941C12.327 43.555 11.5198 43.5158 10.7162 43.4766C9.62067 43.4232 8.52155 43.3662 7.42603 43.3092C6.57917 43.2664 5.73231 43.2237 4.88545 43.1809C4.3485 43.156 3.81516 43.131 3.26019 43.1025C3.19533 43.8756 2.93226 44.5524 2.42054 45.126C2.32324 45.2328 2.32324 45.3076 2.3845 45.4323C4.19715 49.1443 6.00619 52.8563 7.81523 56.5682C7.93415 56.8105 8.05307 57.0527 8.16118 57.2665C8.48191 57.2522 8.78101 57.2166 9.07651 57.2273C9.37562 57.2415 9.67472 57.3021 9.98824 57.3448C12.1973 53.1982 14.4099 49.0374 16.6298 44.8695C16.2875 44.5987 16.0064 44.2852 15.8406 43.8898Z" fill="#B9C5D1"/>
<path id="Vector_4" d="M11.7467 58.6946C11.8584 58.8549 11.9521 59.0259 12.0314 59.2041C12.0783 59.3074 12.1251 59.343 12.2404 59.3323C12.9684 59.2539 13.6999 59.1827 14.4278 59.1043C15.5954 58.9796 16.763 58.8514 17.9306 58.7267C18.9901 58.6127 20.0532 58.5094 21.1163 58.3954C22.4028 58.26 23.6893 58.1175 24.9758 57.9822C25.1812 57.9608 25.21 57.9145 25.1271 57.7257C23.7541 54.5623 22.3847 51.3989 21.0117 48.232C20.5721 47.2203 20.1361 46.2086 19.7036 45.2183C19.3829 45.3038 19.091 45.4035 18.7883 45.4534C18.6369 45.4783 18.5685 45.546 18.5036 45.6671C17.2063 48.1073 15.909 50.5475 14.6116 52.9842C13.6531 54.7867 12.6945 56.5929 11.7287 58.3918C11.6674 58.5094 11.671 58.5878 11.7467 58.6946Z" fill="#B9C5D1"/>
<path id="Vector_5" d="M24.4063 60.0732C24.1793 60.0982 23.9919 60.1196 23.8045 60.1374C22.9685 60.2229 22.1324 60.3084 21.2964 60.3974C20.3486 60.4972 19.4008 60.604 18.4495 60.7038C17.5017 60.8035 16.5503 60.8997 15.6026 60.9995C14.5251 61.1135 13.444 61.231 12.3665 61.3414C12.2692 61.3521 12.2223 61.3771 12.1935 61.4768C11.9304 62.3816 11.3827 63.0656 10.5502 63.5287C10.507 63.5537 10.4565 63.6142 10.4565 63.6534C10.4638 63.9063 10.4854 64.1557 10.5034 64.4158C10.5574 64.4193 10.5971 64.4264 10.6403 64.4264C14.0314 64.4264 17.426 64.4264 20.8171 64.4229C20.8856 64.4229 20.9793 64.3766 21.0225 64.3231C21.945 63.1725 22.864 62.0183 23.7829 60.8641C23.9847 60.6112 24.1829 60.3547 24.4063 60.0732Z" fill="#B9C5D1"/>
<path id="Vector_6" d="M8.44216 64.0706C8.44577 63.946 8.3845 63.8925 8.25838 63.864C6.98988 63.579 6.12861 62.8345 5.71058 61.609C5.67455 61.5022 5.62049 61.4666 5.51238 61.4487C4.46371 61.2564 3.41865 61.0569 2.36998 60.861C1.68168 60.7327 0.989777 60.608 0.269043 60.4727C0.272647 61.0569 0.420397 61.5805 0.690672 62.065C1.55195 63.6075 2.91774 64.3556 4.66191 64.4197C5.87275 64.4661 7.08718 64.4304 8.29802 64.4269C8.34486 64.4269 8.38811 64.4197 8.44216 64.4126C8.44216 64.3485 8.44216 64.2951 8.44216 64.2452C8.44937 64.1882 8.44216 64.1276 8.44216 64.0706Z" fill="#B9C5D1"/>
<path id="Vector_7" d="M117.035 32.8215C114.527 31.019 111.723 29.6154 109.053 28.0301C108.534 27.7238 108.011 27.4174 107.269 26.9828C115.002 24.5319 122.397 22.1879 129.748 19.8617C130.102 19.9579 130.75 20.3711 131.136 20.2001C134.087 18.8963 137.132 17.7064 139.839 16.0036C141.212 15.138 142.293 13.4103 142.891 11.8428C143.637 9.88352 142.92 7.93848 141.082 6.68097C139.19 5.38783 137.132 5.3629 135.132 6.42092C133.305 7.38631 132.275 9.35986 132.739 11.369C133.01 12.5446 133.799 13.6026 134.408 14.8209C132.858 15.4729 131.201 16.1675 129.37 16.937C129.309 15.5334 129.258 14.4433 129.211 13.3924C128.898 13.3497 128.768 13.2891 128.667 13.3212C120.984 15.7543 113.294 18.1767 105.633 20.6846C105.168 20.8342 104.638 21.6428 104.624 22.1558C104.537 25.7752 104.523 29.3981 104.631 33.0139C104.649 33.6658 105.193 34.5599 105.762 34.8948C108.444 36.4587 111.229 37.848 113.957 39.3371C115.103 39.964 116.332 40.8902 115.662 42.2297C115.305 42.9422 113.856 43.4302 112.876 43.4765C109.64 43.6261 106.397 43.5478 103.153 43.5299C99.6218 43.5086 98.7965 42.7035 98.7929 39.2124C98.7785 31.4963 98.7893 23.7838 98.7893 16.0678V14.0622H92.4505V16.1248C92.4505 24.1935 92.4396 32.2658 92.4613 40.3345C92.4649 41.4602 92.5441 42.5895 92.6955 43.7045C93.2361 47.648 95.2541 50.2877 99.247 50.619C104.461 51.0572 109.755 50.815 115.002 50.5905C116.941 50.5086 118.541 49.2226 119.64 47.5305C122.631 42.9137 121.525 36.0454 117.035 32.8215ZM137.547 9.46673C138.293 9.81228 139.049 10.3929 139.446 11.0876C139.637 11.4225 139.035 12.1991 138.552 13.3461C137.511 12.1884 136.786 11.5044 136.278 10.6922C136.199 10.5675 137.345 9.37054 137.547 9.46673Z" fill="#B9C5D1"/>
<path id="Vector_8" d="M86.2561 30.6338C84.4038 30.9687 82.8794 31.2394 81.3587 31.5279C81.1281 31.5707 80.919 31.7061 80.5046 31.877C80.692 32.7854 80.9118 33.5834 81.0163 34.3921C81.4488 37.673 82.1371 40.9575 82.1839 44.2455C82.238 48.0644 80.1839 50.2909 76.3532 50.6578C73.2216 50.9606 69.9999 50.9428 66.8792 50.5652C63.1061 50.1092 61.0196 47.1489 61.5782 43.4048C61.9493 40.9219 62.7133 38.4959 63.3259 35.9381C62.1475 35.589 60.8754 35.2791 59.6574 34.8231C58.706 34.4669 58.3673 34.8659 58.0826 35.6567C56.6736 39.5539 55.7835 43.5295 56.2808 47.6939C56.9006 52.8842 59.5925 56.4965 64.6737 58.21C68.5693 59.5209 72.5549 59.5067 76.5694 58.8939C82.447 57.9962 86.22 54.7117 87.2795 48.93C87.8381 45.8771 87.9174 42.6745 87.7372 39.5646C87.5714 36.5972 86.7858 33.6654 86.2561 30.6338Z" fill="#B9C5D1"/>
<path id="Vector_9" d="M147.533 38.4965C146.589 31.6532 140.989 28.0766 136.661 23.4277C134.783 25.4369 133.086 27.2501 131.335 29.1239C133.623 31.2507 135.85 33.2313 137.969 35.326C139.191 36.5336 140.401 37.8161 141.32 39.2481C142.668 41.3464 141.746 43.2594 139.255 43.4446C136.585 43.6405 133.886 43.4909 131.104 43.4909C131.021 42.408 130.949 41.4354 130.87 40.4095C128.852 40.4095 126.956 40.4095 124.765 40.4095C124.855 42.2227 124.834 43.8258 125.035 45.3968C125.493 49.0197 127.771 50.9861 131.446 51.0324C133.965 51.0645 136.488 51.0573 139.007 51.0324C143.122 50.9932 146.463 48.4925 147.299 44.4848C147.702 42.5504 147.803 40.4522 147.533 38.4965Z" fill="#B9C5D1"/>
<path id="Vector_10" d="M71.9462 32.1553C74.566 32.1624 75.6868 31.1507 75.694 28.7746C75.7012 26.4413 74.5912 25.3726 72.1552 25.3619C69.5209 25.3512 68.4254 26.3415 68.4146 28.7426C68.411 31.1009 69.4993 32.1482 71.9462 32.1553Z" fill="#B9C5D1"/>
</g>
</svg>
