<svg width="80" height="81" viewBox="0 0 80 81" fill="none" xmlns="http://www.w3.org/2000/svg">
<g id="Group">
<path id="Vector" d="M47.3701 40.1182C46.6654 38.6436 45.7922 37.2751 44.8311 35.957C44.2589 35.1721 43.5825 34.5546 42.6785 34.2043C42.6137 34.1788 42.5552 34.1424 42.4802 34.1534C41.2706 34.3285 40.4261 35.1835 40.4544 36.417C40.4266 37.0214 40.6634 37.5963 40.8499 38.1769C41.6399 40.6338 42.8064 42.9 44.2975 44.9937C44.6873 45.541 45.0664 46.1003 45.5615 46.5628C45.9745 46.9485 46.4656 47.2063 47.0187 47.1549C48.3773 47.0291 49.3147 46.0181 48.9778 44.53C48.6301 42.9931 48.046 41.5351 47.3701 40.1182Z" fill="#B9C5D1"/>
<path id="Vector_2" d="M28.7193 39.7803C27.935 38.1986 26.9765 36.7292 25.8691 35.3576C25.3929 34.7676 24.8885 34.2588 24.1165 34.291C22.6814 34.2853 21.7317 35.3981 22.007 36.762C22.307 38.247 22.8709 39.6462 23.5048 41.0142C24.3456 42.8261 25.415 44.4956 26.6359 46.0664C27.0428 46.5898 27.5492 47.0196 28.2133 47.1049C29.6295 47.2878 30.8252 46.1729 30.5032 44.5689C30.1657 42.888 29.479 41.312 28.7193 39.7803Z" fill="#B9C5D1"/>
<path id="Vector_3" d="M78.6938 47.5199C76.18 49.1962 72.8521 48.8729 69.9654 48.008C69.4697 47.8593 68.9659 47.6909 68.5611 47.365C67.3135 46.3608 67.5087 44.4221 67.8225 42.8404C69.1991 44.2427 70.7729 45.4455 72.4818 46.4024C73.4515 46.945 74.5661 47.4206 75.6407 47.1472C76.7152 46.8733 77.537 45.5063 76.9032 44.5868C76.6556 44.2282 76.2529 44.0161 75.8569 43.842C74.297 43.157 72.5968 42.8513 71.0322 42.1787C69.4672 41.5056 67.9653 40.3336 67.5451 38.6667C66.9339 36.2399 68.9494 33.7782 71.3055 33.0121C73.6621 32.246 76.2154 32.7184 78.645 33.1971C77.3871 26.9615 71.7056 21.9249 65.4315 21.4831C64.3533 21.4072 63.2413 21.4592 62.2417 21.8755C60.5621 22.5746 59.4419 24.1817 57.9631 25.2488C55.8453 26.778 53.1158 27.1164 50.5147 27.1507C44.4989 27.2302 38.0845 26.0233 32.7483 28.8342C32.3918 29.0218 31.9177 29.2136 31.6291 28.9309C31.2474 28.5566 31.6964 27.9355 32.1217 27.6138C36.3972 24.3813 41.8306 21.8641 46.9737 23.309C48.0862 23.622 49.151 24.1131 50.2882 24.3169C51.4254 24.5206 52.7039 24.387 53.5524 23.5944C54.0091 23.1677 54.308 22.467 54.0301 21.9041C53.8688 21.5777 53.5473 21.3636 53.2201 21.2092C50.7115 20.0277 47.8063 21.6104 45.0403 21.5226C43.4388 21.4717 41.9163 20.8568 40.38 20.3947C38.1734 19.7315 35.8769 19.3749 33.5753 19.3385C33.7643 16.9258 36.3027 15.2978 38.6912 15.1762C41.0796 15.0546 43.3725 16.011 45.6531 16.7386C47.9131 17.4596 50.297 17.9705 52.6453 17.6519C54.9932 17.3333 57.3138 16.0676 58.4341 13.9553C57.1392 15.0115 55.814 16.0858 54.2525 16.6664C50.2559 18.1524 45.9392 16.1092 41.8408 14.9397C40.3513 14.5146 38.7538 14.2063 37.2694 14.6487C35.8836 15.0619 34.7515 16.09 33.8614 17.2413C32.1155 19.4991 31.1473 22.2716 29.5807 24.661C28.014 27.0498 25.4807 29.1637 22.6598 28.8934C25.3518 23.4629 28.0438 18.0318 30.7358 12.6013C31.1853 11.6953 31.6512 10.767 32.397 10.0903C33.3369 9.23786 34.6092 8.88493 35.8415 8.6079C47.0985 6.0787 59.2462 7.84903 69.3403 13.4901C69.6238 13.6486 69.9063 13.8103 70.1827 13.9818C62.8479 5.41703 52.0192 0 39.9398 0C22.217 0 7.18628 11.6615 1.93221 27.816C1.95995 27.8186 1.9882 27.8206 2.01594 27.8222C3.25639 27.8835 4.4953 27.8773 5.73575 27.8243C6.35161 27.7983 6.96747 27.842 7.58281 27.8544C8.51919 27.8737 9.45504 27.8451 10.3842 28.0161C11.7012 28.2578 12.8872 28.7562 13.8878 29.684C15.0214 30.7355 15.723 32.0193 15.8895 33.562C16.0533 35.0881 15.6676 36.4904 14.7379 37.7191C13.972 38.7296 12.9715 39.4188 11.7978 39.8606C11.3504 40.029 11.3473 40.0285 11.6216 40.4079C12.8965 42.172 14.1749 43.9345 15.5284 45.6373C16.1699 46.4445 16.8592 47.2112 17.5259 47.997C17.621 48.1093 17.7124 48.2247 17.8043 48.337C17.7535 48.4155 17.6867 48.3838 17.6323 48.3843C15.8771 48.3869 14.122 48.3874 12.3674 48.3884C10.9569 48.389 9.99797 47.666 9.28246 46.4876C8.36509 44.9772 7.41074 43.4886 6.4641 41.9948C5.99668 41.2572 5.36695 40.7338 4.49478 40.555C4.47835 40.5513 4.46191 40.5436 4.44547 40.5399C3.8214 40.4157 3.7274 40.5014 3.64778 41.1423C3.54711 41.9558 3.51937 42.7713 3.55892 43.5868C3.62621 44.9881 3.73408 46.3863 4.12188 47.7439C4.13626 47.7943 4.15116 47.8448 4.16708 47.8946C4.30679 48.3297 4.30679 48.3302 3.8368 48.3297C2.7864 48.3276 1.73497 48.3255 0.68457 48.324C0.762131 48.7247 0.845855 49.1234 0.935229 49.5194C5.71982 55.0524 12.4511 58.8332 19.6283 59.9933C20.1245 60.0739 20.6402 60.1409 21.1235 60.0006C22.0044 59.7459 22.5509 58.8909 23.1416 58.1819C25.7915 55.0015 30.2802 54.1761 34.3904 54.0851C38.5001 53.9947 42.7572 54.4063 46.5967 52.9187C48.1633 52.3116 49.696 51.3839 51.372 51.4551C47.9532 56.2302 41.6955 58.735 35.9735 57.618C34.6745 57.3643 33.378 56.9391 32.0595 57.0488C31.0127 57.1356 29.9972 57.5702 29.2067 58.2692C29.0203 58.434 28.8389 58.6242 28.7701 58.8654C28.5549 59.6191 29.4861 60.1638 30.2468 60.3151C31.9958 60.6633 33.8285 60.5697 35.5338 60.0458C36.426 59.7719 37.3028 59.3784 38.2345 59.353C39.0702 59.3301 39.8813 59.605 40.6846 59.8405C43.3946 60.6347 46.2258 61.0043 49.0462 60.9325C49.2989 60.9258 49.604 60.9445 49.7253 61.1685C49.8557 61.4092 49.6749 61.695 49.5029 61.9066C48.9019 62.6473 48.3009 63.3879 47.7 64.1281C47.2207 64.7191 46.7076 65.3345 45.9998 65.6011C45.3387 65.8501 44.6047 65.7565 43.9098 65.6359C39.0184 64.7851 34.0031 62.7398 29.2607 64.2201C27.4331 64.7903 25.6174 66.1016 25.3184 68.0134C26.8111 65.3028 30.1565 64.1437 33.2219 64.219C36.2873 64.2944 39.2325 65.3527 42.2271 66.019C43.3104 66.2602 44.4409 66.4504 45.5211 66.1962C46.5705 65.9499 47.4904 65.2991 48.2516 64.5278C50.468 62.2829 51.4331 59.1107 52.9129 56.3123C54.176 53.9235 56.7591 50.6146 59.803 50.9285C60.0459 52.4879 57.5219 55.9765 56.8485 57.5421C56.7334 57.8098 56.6199 58.0774 56.5079 58.3462C55.6964 60.2906 54.9619 62.2678 54.307 64.2721C53.592 66.4603 52.8893 68.8096 51.1496 70.2972C50.2081 71.1018 49.0385 71.5795 47.8648 71.9594C43.7536 73.2921 39.3769 73.5816 35.0618 73.4574C26.6108 73.2142 18.0344 71.3378 10.8963 66.754C9.65588 65.9577 8.45806 65.0772 7.40509 64.0439C14.6634 74.2896 26.5311 80.9644 39.9398 80.9644C59.881 80.9644 76.4147 66.2004 79.4473 46.8847C79.2295 47.1301 78.967 47.338 78.6938 47.5199ZM46.1791 22.1396C46.6306 21.887 47.1355 21.9161 47.6209 21.8542C48.5136 21.7409 49.4083 21.6421 50.3036 21.5533C50.9066 21.4935 51.5127 21.4602 52.1173 21.415C52.5601 21.4103 52.9859 21.4691 53.3608 21.7279C53.8955 22.0969 53.8955 22.873 53.3624 23.2368C52.9248 23.5357 52.4152 23.6058 51.9118 23.6958C50.7145 23.9089 49.5732 23.6479 48.4442 23.2815C47.6933 23.0377 46.9434 22.7893 46.1934 22.5424C46.0974 22.5107 45.9844 22.5044 45.9875 22.3532C45.9895 22.2181 46.0856 22.1921 46.1791 22.1396ZM14.6762 24.2649C13.7209 24.4115 12.7562 24.4146 11.7942 24.372C11.4367 24.3564 11.0828 24.2509 10.7166 24.1843C10.9785 23.6958 11.3206 23.3512 11.7613 23.072C14.4384 21.3781 17.1042 19.6655 19.7731 17.9585C21.8041 16.6596 23.835 15.3597 25.8655 14.0603C26.0447 13.9454 26.2456 13.9017 26.4818 13.8596C26.225 14.5213 25.8172 15.0489 25.4397 15.5931C24.4632 17.0011 23.4914 18.4113 22.5828 19.8661C21.8796 20.9919 20.8975 21.8402 19.7623 22.505C18.1824 23.4317 16.4755 23.9894 14.6762 24.2649ZM17.7715 27.5441C17.5105 27.5088 17.4684 27.4033 17.5958 27.1725C18.0057 26.4303 18.5964 25.8289 19.1187 25.1755C20.8148 23.0538 22.4631 20.8958 24.021 18.667C24.8623 17.4632 25.6759 16.2407 26.4654 15.0011C27.0551 14.0753 27.8707 13.3596 28.6659 12.6262C28.8708 12.437 29.087 12.2562 29.2699 12.0467C29.5935 11.6766 30.0321 11.5129 30.4729 11.2941C30.4241 11.7343 30.2664 12.1101 30.0958 12.4817C29.3875 14.0265 28.6772 15.5697 27.9714 17.1155C27.0797 19.0672 26.1901 21.0195 25.302 22.9728C24.4529 24.8392 23.0723 26.1158 21.1656 26.8175C20.1337 27.1974 19.0628 27.3955 17.9795 27.54C17.9107 27.5493 17.8393 27.553 17.7715 27.5441ZM33.2095 45.235C31.947 47.0952 30.1801 48.2117 27.9935 48.6473C27.4311 48.7595 26.864 48.8282 26.2856 48.8126C23.741 48.7627 21.5611 47.8671 19.8599 45.9138C18.885 44.7942 18.301 43.4782 18.0832 41.9968C17.8156 40.1828 18.0925 38.4546 18.9631 36.8532C20.1281 34.7086 21.9356 33.3671 24.2865 32.8463C27.0489 32.2345 29.5878 32.7902 31.777 34.6348C33.302 35.9202 34.1896 37.5991 34.4716 39.5976C34.7592 41.6413 34.3622 43.5369 33.2095 45.235ZM36.955 59.0068C36.2072 59.3951 35.3889 59.4938 34.5758 59.6232C33.4648 59.8005 32.3502 59.9528 31.2325 60.0791C30.8329 60.1243 30.4369 60.0926 30.0537 59.9491C29.6207 59.7864 29.3911 59.4554 29.3767 59.0099C29.3639 58.6071 29.6043 58.3269 29.951 58.1377C30.3321 57.9298 30.7482 57.8415 31.1694 57.7895C31.6414 57.7308 32.1181 57.7068 32.3646 57.6866C33.7674 57.685 34.8917 57.9626 36.0017 58.3202C36.3156 58.4215 36.6299 58.5208 36.9443 58.6201C37.0388 58.6497 37.1225 58.6788 37.1225 58.8082C37.1225 58.9319 37.0454 58.96 36.955 59.0068ZM51.3951 45.6508C50.1906 47.1992 48.5978 48.1654 46.7066 48.5818C44.1152 49.152 41.7011 48.7128 39.5592 47.0822C37.9448 45.8525 36.9787 44.1981 36.6017 42.1891C36.5118 41.7125 36.4856 41.2322 36.4887 40.7504C36.483 38.9266 37.0008 37.2721 38.1005 35.8214C39.3065 34.231 40.9039 33.2502 42.8311 32.8307C45.3536 32.2818 47.703 32.7137 49.7967 34.2621C51.6057 35.6 52.6607 37.4239 52.9771 39.6761C53.2889 41.895 52.7614 43.8955 51.3951 45.6508ZM58.1973 48.2793C56.9861 47.6462 56.3734 46.602 56.2054 45.2584C56.1443 44.7682 56.154 44.2771 56.154 43.7854C56.1535 40.7613 56.1504 37.7368 56.1597 34.7128C56.1607 34.4539 56.0898 34.39 55.8407 34.3952C55.0954 34.4118 54.3491 34.4014 53.5365 34.4014C56.171 31.8826 58.7639 29.4044 61.3737 26.9095C61.4374 27.0368 61.4143 27.1345 61.4143 27.2281C61.4158 29.039 61.4225 30.8504 61.4086 32.6613C61.4066 32.9388 61.4893 32.9939 61.7445 32.9903C62.7523 32.9757 63.7601 32.9913 64.7679 32.9788C64.9892 32.9762 65.0185 33.0485 64.9564 33.2335C64.8639 33.5085 64.7745 33.7834 64.5906 34.0137C64.2326 34.4617 63.74 34.4508 63.2521 34.3843C62.7117 34.311 62.1791 34.404 61.6428 34.4046C61.5042 34.4046 61.4523 34.5153 61.4271 34.6307C61.4122 34.6982 61.4204 34.7705 61.4204 34.8412C61.4204 37.8563 61.4199 40.872 61.4204 43.8872C61.4204 44.3275 61.461 44.7641 61.5904 45.1861C61.8231 45.944 62.3512 46.3572 63.1103 46.4845C63.776 46.5963 64.4401 46.5588 65.1038 46.4538C65.2312 46.4336 65.3616 46.4346 65.5537 46.4216C65.3508 46.7569 65.1022 46.984 64.8475 47.193C63.7883 48.0636 62.5617 48.5334 61.216 48.7044C60.1718 48.8375 59.1506 48.7777 58.1973 48.2793ZM54.8607 67.6937C54.4528 68.0861 54.0116 68.4432 53.5797 68.8091C53.5232 68.8569 53.4805 68.9796 53.3706 68.91C53.2684 68.8455 53.2088 68.7509 53.2257 68.6792C53.2689 68.2634 53.4358 67.9499 53.5622 67.6256C54.7585 64.5574 55.9907 61.5027 57.111 58.4049C57.4762 57.3945 57.8963 56.4173 58.5132 55.5358C59.6294 53.9416 61.1328 52.9031 62.9722 52.3439C63.6127 52.1495 64.267 52.0253 64.9286 51.9385C65.0699 51.9197 65.2661 51.862 65.3478 51.9748C65.4356 52.0954 65.2676 52.2228 65.1952 52.3319C63.1175 55.4672 61.0295 58.5951 58.957 61.7335C58.0509 63.1057 57.1834 64.5039 56.2496 65.8574C55.8125 66.4889 55.4175 67.1578 54.8607 67.6937ZM71.888 55.1366C71.8751 55.1667 71.8546 55.2151 71.8335 55.2629C71.6224 55.7484 71.304 56.1397 70.8715 56.4469C67.0536 59.1596 63.2387 61.877 59.4224 64.5928C58.6848 65.1177 57.9682 65.6734 57.1967 66.1479C57.1079 66.2025 57.037 66.242 56.9456 66.1484C56.8521 66.0528 56.9014 65.9816 56.9553 65.8948C58.2122 63.8542 59.3741 61.7533 60.7214 59.7693C61.1677 59.1113 61.6002 58.4382 62.1539 57.8659C62.9634 57.0291 63.9578 56.4807 65.0344 56.0758C66.5836 55.4932 68.1743 55.0909 69.8211 54.9204C70.1652 54.885 70.5063 54.8237 70.8494 54.778C71.2038 54.7307 71.5084 54.8959 71.8222 55.0186C71.8649 55.0352 71.8972 55.0633 71.888 55.1366Z" fill="#B9C5D1"/>
<path id="Vector_4" d="M3.60228 39.148C3.60228 39.2862 3.56736 39.4255 3.7985 39.4188C4.77699 39.3933 5.75805 39.4151 6.72832 39.2571C7.55015 39.1235 8.31035 38.8283 8.8923 38.2015C9.88467 37.1323 10.3464 35.8282 10.4255 34.3838C10.4779 33.431 10.2504 32.5282 9.87028 31.6539C9.15632 30.012 7.90611 29.1736 6.16331 29.0213C5.39182 28.9542 4.61981 28.986 3.84883 28.9558C3.63516 28.9475 3.59715 29.0093 3.59766 29.2084C3.60588 30.8608 3.60228 32.5131 3.60228 34.1649V39.148Z" fill="#B9C5D1"/>
<path id="Vector_5" d="M79.249 37.2105C78.3239 36.039 77.1579 35.0623 75.8476 34.3622C75.1408 33.9848 74.3534 33.6808 73.5599 33.7759C72.7663 33.8715 71.9876 34.4755 71.9208 35.2811C71.8155 36.5567 73.3046 37.2656 74.5003 37.682C76.1389 38.2521 77.7276 38.9679 79.2428 39.8177C79.4919 39.957 79.7462 40.1072 79.9444 40.3089C79.9373 38.5001 79.8124 36.7188 79.5777 34.9734C79.5284 35.7297 79.421 36.4771 79.249 37.2105Z" fill="#B9C5D1"/>
</g>
</svg>
