<svg width="112" height="81" viewBox="0 0 112 81" fill="none" xmlns="http://www.w3.org/2000/svg">
<g id="surface1">
<path id="Vector" d="M68.6854 55.2935C68.1838 55.4936 67.729 55.7939 67.349 56.1785C66.9565 56.5788 66.6481 57.0511 66.4363 57.5702C66.2026 58.1457 66.0874 58.7617 66.0967 59.3872C66.0967 59.9064 66.1652 60.4224 66.2961 60.9259C66.4238 61.4388 66.5951 61.936 66.8101 62.4145H71.3208C71.3239 62.8961 71.2585 63.3715 71.1183 63.8281C71.0217 64.1408 70.8473 64.4223 70.6074 64.6412C70.3769 64.832 70.1028 64.9633 69.8099 65.0196C69.461 65.0821 69.1028 65.1134 68.7477 65.1103C68.5826 65.1103 68.3926 65.1009 68.1776 65.0853C67.9782 65.0696 67.7789 65.0352 67.5889 64.9758C67.5577 65.1228 67.5203 65.2698 67.4705 65.4105C67.8194 65.6169 68.1963 65.7702 68.5919 65.864C69.0093 65.9734 69.4423 66.0297 69.8754 66.0297C70.2336 66.0266 70.5856 65.9734 70.9283 65.8702C71.3052 65.7608 71.6572 65.5731 71.9562 65.3198C72.2958 65.0259 72.5668 64.66 72.7537 64.2503C72.9874 63.703 73.1088 63.1119 73.1088 62.5177C73.1213 62.3144 73.1275 62.108 73.1338 61.8985C73.14 61.6858 73.1431 61.4669 73.1431 61.2449V54.9839H70.2741C69.7289 54.9839 69.1869 55.0871 68.6823 55.2935M71.2865 61.1104H68.3676C68.215 60.782 68.1029 60.4349 68.0343 60.0815C67.9689 59.7406 67.9346 59.3966 67.9346 59.0526C67.9222 58.6054 68.0001 58.1582 68.1683 57.7453C68.2991 57.4326 68.4922 57.148 68.7321 56.9072C68.9377 56.7071 69.1838 56.5538 69.4517 56.4569C69.6791 56.3724 69.9158 56.3255 70.1557 56.3224H71.2865V61.1104Z" fill="#B9C5D1"/>
<path id="Vector_2" d="M56.5331 52.0469L55.0627 53.8295H58.0096L56.5331 52.0469Z" fill="#B9C5D1"/>
<path id="Vector_3" d="M61.536 53.8295L60.0625 52.0469L58.5859 53.8295H61.536Z" fill="#B9C5D1"/>
<path id="Vector_4" d="M18.2549 52.0469L16.7783 53.8295H19.7283L18.2549 52.0469Z" fill="#B9C5D1"/>
<path id="Vector_5" d="M58.2963 49.9673L56.8259 51.7499H59.7728L58.2963 49.9673Z" fill="#B9C5D1"/>
<path id="Vector_6" d="M62.3491 54.9807V61.1072L60.9068 61.0915C60.6421 61.0947 60.3804 61.0321 60.1436 60.9133C59.9412 60.8132 59.7667 60.6568 59.6483 60.4629C59.5206 60.2503 59.4303 60.0189 59.3836 59.7749C59.3244 59.4903 59.2963 59.2026 59.2994 58.9118V56.0502H57.4397V59.95C57.4678 60.2534 57.4086 60.5568 57.2746 60.8288C57.122 61.0165 56.8852 61.1134 56.6454 61.0884H55.8167C55.552 61.0915 55.2903 61.029 55.0535 60.9101C54.8479 60.8101 54.6766 60.6537 54.5551 60.4598C54.4274 60.2471 54.3371 60.0157 54.2903 59.7718C54.2312 59.4872 54.2062 59.1995 54.2062 58.9086V57.1198H52.3652V59.9469C52.3932 60.2503 52.334 60.5568 52.2001 60.8257C52.0412 61.0165 51.7982 61.1134 51.5553 61.0884H36.8457C36.5809 61.1009 36.3161 61.054 36.0732 60.9477C35.8738 60.8476 35.7025 60.6975 35.5779 60.5098C35.4439 60.3066 35.3504 60.0783 35.3037 59.8406C35.2445 59.5623 35.2196 59.2839 35.2196 58.9993V54.9775H33.363V59.9782C33.3692 60.1971 33.3474 60.416 33.2945 60.6318C33.2633 60.7632 33.1886 60.882 33.0795 60.9664C32.9674 61.0415 32.8334 61.0822 32.6995 61.0884C32.5437 61.0978 0.486084 61.104 0.486084 61.104V62.4082H32.7992C33.1543 62.4175 33.5125 62.3706 33.8521 62.2706C34.1106 62.1924 34.3536 62.0579 34.5561 61.8796C34.7461 61.7139 34.8894 61.5043 34.9797 61.2698C35.0763 61.0196 35.1417 60.7538 35.1698 60.4848C35.2632 61.004 35.5062 61.4856 35.8676 61.8671C36.1573 62.1611 36.5373 62.3456 36.9454 62.3894C37.0108 62.405 37.0762 62.4113 37.1448 62.4113H51.8014C52.1565 62.4175 52.5085 62.3706 52.848 62.2674C53.1097 62.1892 53.3496 62.0516 53.5521 61.8671C53.7359 61.692 53.8791 61.4825 53.9757 61.2479C54.0785 60.9883 54.147 60.7131 54.1751 60.4379C54.2654 60.9664 54.5053 61.4543 54.8635 61.8515C55.228 62.233 55.7389 62.4363 56.2653 62.4113H56.8946C57.5238 62.477 58.15 62.2799 58.6359 61.8671C58.9911 61.4731 59.2153 60.9696 59.2652 60.4379C59.3555 60.9664 59.5923 61.4543 59.9536 61.8515C60.3181 62.233 60.829 62.4363 61.3523 62.4113H64.2213V54.9775H62.346L62.3491 54.9807Z" fill="#B9C5D1"/>
<path id="Vector_7" d="M80.2081 61.1101C79.719 61.1445 79.2486 60.9193 78.9652 60.5159C78.6942 60.0405 78.5696 59.4964 78.6007 58.9491V54.9805H76.7254V62.0295C76.7348 62.5581 76.6911 63.0835 76.5946 63.6026C76.5323 63.9404 76.3983 64.2594 76.2021 64.5408C76.0463 64.7535 75.8251 64.9099 75.5728 64.9912C75.2893 65.0756 74.9965 65.1131 74.7037 65.11C74.5697 65.11 74.4109 65.1006 74.2302 65.085C74.0558 65.0693 73.8875 65.0318 73.7224 64.9755C73.6975 65.1225 73.657 65.2695 73.6072 65.4102C73.9093 65.6073 74.2364 65.7605 74.5791 65.8637C74.9218 65.9732 75.2862 66.0294 75.6476 66.0294C76.0588 66.0357 76.4669 65.945 76.8407 65.7699C77.2176 65.5885 77.5385 65.307 77.7752 64.9599C78.0618 64.5314 78.2674 64.0561 78.3826 63.5526C78.5384 62.8833 78.6101 62.1984 78.5976 61.5104V60.4408C78.6786 60.9694 78.9153 61.4635 79.2798 61.8544C79.5539 62.1421 79.9153 62.3298 80.3078 62.3861C80.4293 62.4017 80.5508 62.4111 80.6723 62.4142H111.303V61.107H80.2081V61.1101Z" fill="#B9C5D1"/>
<path id="Vector_8" d="M49.7234 13.2423L50.8043 12.1509L51.8884 13.2423L50.8043 14.3369L49.7234 13.2423Z" fill="#B9C5D1"/>
<path id="Vector_9" d="M39.7209 13.2423L40.805 12.1509L41.886 13.2423L40.805 14.3369L39.7209 13.2423Z" fill="#B9C5D1"/>
<path id="Vector_10" d="M39.7209 2.66587L40.805 1.57129L41.8891 2.66587L40.805 3.76044L39.7209 2.66587Z" fill="#B9C5D1"/>
<path id="Vector_11" d="M39.7209 23.4035L40.805 22.312L41.8891 23.4035L40.805 24.498L39.7209 23.4035Z" fill="#B9C5D1"/>
<path id="Vector_12" d="M49.7515 33.452L50.8324 32.3574L51.9165 33.452L50.8324 34.5434L49.7515 33.452Z" fill="#B9C5D1"/>
<path id="Vector_13" d="M39.7241 33.4486L40.8051 32.354L41.8891 33.4486L40.8051 34.5432L39.7241 33.4486Z" fill="#B9C5D1"/>
<path id="Vector_14" d="M94.0891 7.5321C94.005 7.50083 93.9115 7.47894 93.8181 7.47581C93.3508 7.47581 92.9739 7.85735 92.9739 8.32958C92.9739 8.80181 93.3508 9.18335 93.8181 9.18335C94.2853 9.18335 94.6654 8.80181 94.6654 8.32958C94.6623 8.23576 94.6436 8.13881 94.6093 8.04812L99.3848 3.22572C99.4222 3.24761 99.4627 3.26325 99.5032 3.27576C99.6558 3.30703 99.8178 3.28827 99.9611 3.22885L104.712 8.0231C104.674 8.12318 104.652 8.22638 104.652 8.32958C104.652 8.80181 105.029 9.18335 105.497 9.18335C105.964 9.18335 106.341 8.80181 106.341 8.32958C106.341 7.85735 105.964 7.47581 105.497 7.47581C105.413 7.47894 105.328 7.4977 105.251 7.52585L100.469 2.70033C100.484 2.67531 100.494 2.64716 100.506 2.61901C100.6 2.15616 100.31 1.7027 99.852 1.60575C99.3941 1.5088 98.9456 1.8059 98.849 2.26562C98.8241 2.40948 98.8365 2.55334 98.8832 2.69094L94.0891 7.5321Z" fill="#B9C5D1"/>
<path id="Vector_15" d="M103.886 3.29758C103.992 3.29758 104.098 3.27569 104.197 3.23503L108.945 8.02616C108.907 8.12311 108.886 8.22631 108.886 8.32951C108.886 8.80174 109.263 9.18328 109.73 9.18328C110.197 9.18328 110.574 8.80174 110.574 8.32951C110.574 7.85728 110.197 7.47574 109.73 7.47574C109.646 7.482 109.562 7.49763 109.484 7.52578L104.683 2.68149C104.708 2.60331 104.727 2.52512 104.73 2.44068C104.73 1.96845 104.353 1.58691 103.886 1.58691C103.416 1.58691 103.039 1.96845 103.039 2.44068C103.039 2.91292 103.416 3.29445 103.886 3.29445V3.29758Z" fill="#B9C5D1"/>
<path id="Vector_16" d="M98.5872 11.1502L99.6712 10.0557L100.752 11.1502L99.6712 12.2417L98.5872 11.1502Z" fill="#B9C5D1"/>
<path id="Vector_17" d="M6.43587 28.2633C6.57294 28.2446 6.68819 28.1476 6.73181 28.0163C7.01528 27.3814 7.3486 26.7716 7.73176 26.1899C8.41708 26.2837 9.08683 26.4776 9.71609 26.7685C9.76593 26.7935 9.822 26.806 9.88119 26.806C9.95906 26.806 10.0369 26.7778 10.0992 26.7309C10.1834 26.6183 10.1958 26.4714 10.1366 26.3431C9.89053 25.6926 9.70051 25.0234 9.56345 24.3416C10.1148 23.9163 10.7223 23.5785 11.3702 23.3346C11.5353 23.3033 11.6412 23.1438 11.6101 22.9781C11.5883 22.8561 11.4917 22.7592 11.3702 22.7373C10.741 22.4496 10.1366 22.1118 9.56345 21.7271C9.65378 21.036 9.84692 20.3605 10.1366 19.7256C10.1958 19.5974 10.1834 19.4504 10.0992 19.3378C10.0369 19.2909 9.95906 19.2628 9.88119 19.2628C9.822 19.2628 9.76904 19.2784 9.71609 19.3003C9.07126 19.5474 8.40774 19.7413 7.73176 19.8789C7.31122 19.3222 6.97479 18.7092 6.73492 18.0525C6.70377 17.8867 6.5449 17.7773 6.38291 17.8086C6.25831 17.8304 6.16486 17.9305 6.13993 18.0525C5.90007 18.7092 5.56364 19.3222 5.1431 19.8789C4.45466 19.7851 3.78802 19.5912 3.15877 19.3003C3.10581 19.2784 3.04974 19.2628 2.99367 19.2628C2.91579 19.2628 2.83791 19.2909 2.7725 19.3378C2.68527 19.4473 2.6697 19.6005 2.73823 19.7256C3.03728 20.3574 3.23353 21.0329 3.31141 21.7271C2.76004 22.1525 2.15259 22.4902 1.50153 22.7373C1.33954 22.7686 1.23051 22.9281 1.26167 23.0938C1.28347 23.2158 1.38004 23.3127 1.50153 23.3346C2.15259 23.5785 2.76004 23.9194 3.31141 24.3416C3.23665 25.039 3.04351 25.7177 2.73823 26.3463C2.67281 26.4714 2.68527 26.6215 2.7725 26.7309C2.83791 26.781 2.91579 26.806 2.99678 26.806C3.05286 26.806 3.10581 26.7935 3.15877 26.7685C3.8036 26.5245 4.46712 26.3306 5.1431 26.193C5.56364 26.7466 5.90007 27.3627 6.14305 28.0194C6.18978 28.1508 6.30192 28.2446 6.43899 28.2665M5.68513 25.7802L5.42657 25.4362L5.00915 25.5238C4.90946 25.5457 4.28644 25.677 3.67588 25.8615C3.83163 25.3862 3.93443 24.9014 3.98739 24.4042L4.02166 24.0258L3.71949 23.7975C3.34256 23.5066 2.9376 23.2533 2.51394 23.0344C2.9376 22.8186 3.34256 22.5622 3.71949 22.2744L4.02789 22.0399L3.98739 21.6552C3.9282 21.1767 3.82852 20.7014 3.68522 20.2416C4.13069 20.3855 4.58549 20.4918 5.04964 20.5575L5.44526 20.6107L5.68513 20.2917C5.97172 19.907 6.22404 19.5005 6.43899 19.072C6.65393 19.5005 6.90625 19.907 7.19284 20.2917L7.4514 20.6357L7.86882 20.5481C7.96851 20.5262 8.6071 20.3918 9.22078 20.2041C9.07126 20.6701 8.95911 21.1486 8.8937 21.6333L8.83451 22.0618L9.19275 22.2995C9.27685 22.3557 9.822 22.7154 10.389 23.0219C9.95595 23.2408 9.54475 23.5004 9.15536 23.7975L8.8127 24.057L8.89992 24.4824C8.92173 24.5824 9.05568 25.2267 9.23947 25.8459C8.77844 25.6926 8.30494 25.5832 7.82521 25.5175L7.40156 25.455L7.16481 25.8177C7.10874 25.9022 6.75361 26.4526 6.45145 27.0249C6.23339 26.5871 5.97483 26.1711 5.68201 25.7802" fill="#B9C5D1"/>
<path id="Vector_18" d="M8.09645 19.2438C10.3238 18.6246 13.0682 17.1516 13.2084 14.7467C13.1492 13.8491 12.8595 12.9828 12.361 12.2354C12.0651 11.6693 11.6228 10.5122 11.6228 10.5122C11.0714 10.8062 10.4951 11.0439 9.9001 11.2221C9.02787 11.4035 8.21794 11.8194 7.55753 12.4199C5.99063 14.24 6.9314 17.2267 8.09956 19.2407M9.91568 11.9352L10.1057 11.8726C10.4671 11.7538 10.8658 11.6193 11.2645 11.4473C11.4172 11.8163 11.6072 12.2541 11.7661 12.5544L11.8564 12.7264C12.2427 13.3206 12.4763 13.9992 12.5355 14.706C12.4171 15.6974 11.8657 16.5855 11.0309 17.1172C10.2396 17.6926 9.35807 18.1367 8.42665 18.4307C7.44851 16.548 6.90025 14.2244 8.06841 12.8671C8.59487 12.4043 9.23035 12.0853 9.91568 11.9352Z" fill="#B9C5D1"/>
<path id="Vector_19" d="M14.7378 16.2324C14.688 16.2324 14.6381 16.2355 14.5914 16.2387C12.2084 16.4044 10.7816 19.1909 10.1929 21.4489C11.495 22.2401 12.9716 22.6967 14.4917 22.778C15.3889 22.8124 16.2705 22.5059 16.9558 21.918C17.5445 21.2425 17.9464 20.42 18.1177 19.538C18.3046 18.922 18.7999 17.7898 18.7999 17.7898C18.2049 17.6085 17.6318 17.3645 17.0835 17.0643C16.3764 16.6077 15.5727 16.3262 14.7378 16.2324ZM17.4698 19.3379L17.4137 19.5224C17.2735 20.2167 16.962 20.8672 16.5072 21.4082C15.9434 21.8804 15.2238 22.1275 14.4917 22.0931C13.2644 22.0337 12.0713 21.6991 10.9935 21.108C11.6227 19.0783 12.8594 17.0455 14.635 16.9173C14.6693 16.9142 14.7036 16.9142 14.7378 16.9142C15.3982 16.9955 16.0337 17.2207 16.5944 17.5772L16.7751 17.6741C17.1115 17.8493 17.4916 18.0369 17.8934 18.1995C17.7439 18.5686 17.5695 19.0158 17.4698 19.3379Z" fill="#B9C5D1"/>
<path id="Vector_20" d="M9.35157 10.7691C9.67866 10.7316 9.90918 10.2468 9.53848 10.0686C8.49491 9.56507 7.46381 9.03029 6.43582 8.48926C5.41095 9.03029 4.37985 9.56507 3.33317 10.0686C2.96559 10.2468 3.19299 10.7347 3.52319 10.7691C4.66955 10.8567 5.72558 11.4259 6.43582 12.3359C7.14918 11.4259 8.20521 10.8567 9.35157 10.7691ZM4.49199 10.2593C5.18043 9.91534 5.84084 9.57133 6.43582 9.25859C7.009 9.55882 7.67875 9.90595 8.38277 10.2593C7.66006 10.4564 6.99343 10.8223 6.43582 11.3289C5.88133 10.8223 5.2147 10.4564 4.49199 10.2593Z" fill="#B9C5D1"/>
<path id="Vector_21" d="M9.53848 36.0696C9.90918 35.8913 9.68177 35.4066 9.35157 35.3722C8.20521 35.2815 7.14919 34.7154 6.43582 33.8022C5.72558 34.7154 4.66955 35.2815 3.52319 35.3722C3.19299 35.4066 2.96559 35.8913 3.33317 36.0696C4.37985 36.5762 5.41095 37.111 6.43582 37.652C7.46381 37.1079 8.49491 36.5762 9.53848 36.0696ZM6.43582 34.8093C6.99343 35.3159 7.66006 35.6849 8.38277 35.8788C7.69433 36.226 7.03393 36.5668 6.43582 36.8796C5.86264 36.5762 5.19289 36.2291 4.49199 35.8788C5.2147 35.6849 5.88133 35.3159 6.43582 34.8093Z" fill="#B9C5D1"/>
<path id="Vector_22" d="M13.0619 33.8585C12.8843 34.0899 13.0089 34.5058 13.2986 34.5058C13.3453 34.5058 13.389 34.4964 13.4326 34.4808C14.5166 34.0711 15.6131 33.6896 16.7097 33.3174C17.0336 32.1947 17.367 31.0751 17.7314 29.9649C17.8218 29.6897 17.5975 29.5239 17.3701 29.5239C17.2735 29.5239 17.1769 29.5552 17.1022 29.6177C16.3514 30.287 15.392 30.6623 14.392 30.6748C14.2487 30.6748 14.1054 30.6685 13.9621 30.6498C14.1179 31.8006 13.7908 32.964 13.0619 33.8585ZM14.6817 31.3472C15.4294 31.2971 16.1521 31.0657 16.7938 30.6748C16.5601 31.416 16.3483 32.1321 16.1583 32.7826C15.5477 32.9922 14.8344 33.2361 14.0961 33.5051C14.4574 32.8421 14.6599 32.104 14.6817 31.3472Z" fill="#B9C5D1"/>
<path id="Vector_23" d="M13.9745 15.5786C14.1832 15.5442 14.395 15.5285 14.6069 15.5285C15.5352 15.541 16.4354 15.8663 17.1644 16.448C17.236 16.5011 17.3233 16.5293 17.4136 16.5262C17.6503 16.5262 17.884 16.3479 17.7749 16.0664C17.3544 14.9781 16.965 13.8742 16.5819 12.7702C15.4666 12.4575 14.3514 12.1353 13.2487 11.7819C13.2113 11.7694 13.1708 11.7632 13.1303 11.7632C12.8281 11.7632 12.716 12.1979 12.9091 12.4231C13.6848 13.2768 14.0711 14.4214 13.9745 15.5786ZM16.0585 13.3331C16.2703 13.9461 16.5227 14.6623 16.7999 15.4034C16.1395 15.0469 15.4043 14.853 14.6567 14.8436C14.5944 14.0899 14.3577 13.3613 13.9589 12.7202C14.6972 12.9422 15.4106 13.1486 16.0585 13.3331Z" fill="#B9C5D1"/>
<path id="Vector_24" d="M7.49827 33.7267C8.16179 34.3241 8.97172 34.7369 9.84395 34.9183C10.4483 35.1122 11.5666 35.6251 11.5666 35.6251C11.7535 35.0277 12.0027 34.4492 12.3049 33.9019C12.7971 33.1513 13.0899 32.2882 13.146 31.3875C13.0027 28.9857 10.2551 27.5158 8.02472 26.9028C6.86278 28.9169 5.92825 31.9097 7.49827 33.7267ZM12.47 31.4281C12.4139 32.1318 12.1834 32.8104 11.8002 33.4015L11.7037 33.5829C11.5292 33.9206 11.3361 34.3022 11.1741 34.7056C10.8096 34.5492 10.3673 34.371 10.0495 34.2678L9.86264 34.2084C9.17731 34.0614 8.53872 33.7393 8.00603 33.2764C7.39858 32.4852 7.18052 31.4625 7.40481 30.493C7.57303 29.5204 7.89389 28.5822 8.35492 27.7159C10.3579 28.3664 12.361 29.6361 12.47 31.4313V31.4281Z" fill="#B9C5D1"/>
<path id="Vector_25" d="M15.261 2.67514L16.345 1.58057L17.4291 2.67514L16.345 3.76659L15.261 2.67514Z" fill="#B9C5D1"/>
<path id="Vector_26" d="M19.563 0.852051H0.498535V45.6859H19.563V0.852051ZM1.2119 12.4671C1.35208 12.1731 1.49849 11.8604 1.62621 11.5226C1.99379 11.6696 2.43925 11.8385 2.76011 11.9354L2.94702 11.9886C3.63546 12.1199 4.2834 12.4264 4.82543 12.8768C5.44845 13.6524 5.69455 14.6719 5.49206 15.6476C5.34877 16.6233 5.04972 17.5678 4.61049 18.4466C3.33329 18.112 2.16201 17.4521 1.2119 16.5295V12.4671ZM1.2119 19.5381C1.47045 20.0478 1.68851 20.5763 1.85984 21.1205C1.6449 21.2331 1.42684 21.3269 1.2119 21.4207V19.5381ZM1.2119 29.4956C1.43619 29.2579 1.68539 29.0421 1.95329 28.8513C2.76322 28.3072 3.66038 27.8944 4.60114 27.6379C5.51075 29.555 5.97491 31.8943 4.76001 33.2078C4.21487 33.6518 3.57004 33.9489 2.8816 34.074L2.68535 34.1303C2.32088 34.2335 1.91591 34.3555 1.51095 34.5119C1.42061 34.2648 1.3147 34.0021 1.2119 33.7551V29.4956ZM1.2119 24.7639C1.4393 24.8671 1.6667 24.9703 1.89411 25.0954C1.71031 25.6302 1.48291 26.1493 1.2119 26.6497V24.7639ZM1.2119 35.3938C1.74458 35.1405 2.29907 34.9372 2.86914 34.7871C3.7476 34.6338 4.56999 34.2523 5.25531 33.6769C6.88452 31.9162 6.05278 28.8951 4.95938 26.8373C3.6043 27.1344 2.32711 27.7224 1.21501 28.5605V28.0007C1.9128 27.0187 2.43302 25.9179 2.75699 24.7545C2.26169 24.4511 1.7477 24.1853 1.21501 23.9601V22.1713C1.71343 21.9649 2.19627 21.7272 2.66354 21.4551C2.3676 20.298 1.87853 19.2034 1.21501 18.2121V17.474C2.32088 18.3309 3.60119 18.9376 4.95938 19.2503C6.07459 17.205 6.93748 14.1903 5.32385 12.4139C4.64787 11.8291 3.82859 11.4382 2.95013 11.2787C2.34268 11.1004 1.22747 10.6219 1.2119 10.6157V1.57134H18.8497V5.74325L16.6286 7.98244C16.4604 7.91051 16.2704 7.90738 16.1021 7.97931L11.037 2.86295C11.118 2.73785 11.1647 2.58774 11.1678 2.4345C11.1678 1.96227 10.7909 1.58073 10.3236 1.58073C9.85322 1.58073 9.47629 1.96227 9.47629 2.4345C9.47629 2.90673 9.85322 3.28827 10.3236 3.28827C10.3548 3.28201 10.389 3.27576 10.4202 3.2695L15.5695 8.46718C15.3981 8.90501 15.61 9.39914 16.0461 9.57427C16.4791 9.74628 16.9713 9.53361 17.1426 9.09266C17.18 8.99258 17.2018 8.88625 17.2018 8.77992C17.1987 8.67984 17.18 8.5829 17.1426 8.4922L18.8497 6.76902V28.0226C18.5693 27.4972 18.3388 26.9468 18.155 26.3776C17.9588 25.5019 17.5351 24.6919 16.9308 24.0321C16.2672 23.4942 15.4355 23.2158 14.5882 23.244C13.0182 23.3347 11.5011 23.8382 10.1834 24.7013C10.8314 26.9405 12.3391 29.6832 14.7253 29.7802C14.7564 29.7802 14.7844 29.7833 14.8125 29.7833C15.6691 29.6832 16.4884 29.3736 17.1987 28.8826C17.6971 28.6043 18.6597 28.2009 18.8528 28.1227V39.744L17.1457 38.0239C17.18 37.9301 17.1987 37.8331 17.2018 37.7331C17.208 37.264 16.8342 36.8762 16.3669 36.8699C15.8997 36.8637 15.5165 37.2421 15.5103 37.7143C15.5103 37.83 15.529 37.9426 15.5726 38.0458L10.3703 43.2998C10.3548 43.2998 10.3392 43.2904 10.3236 43.2904C9.85634 43.2904 9.47941 43.6719 9.47941 44.1442C9.48252 44.5507 9.77223 44.8979 10.171 44.9667H6.77238C7.17111 44.8979 7.46393 44.5507 7.46705 44.1442C7.46705 43.8001 7.26456 43.4937 6.95305 43.3592V40.7447C7.37359 40.5414 7.55427 40.0317 7.3549 39.6063C7.15242 39.181 6.64777 38.9996 6.22723 39.2029C5.80669 39.4062 5.62601 39.916 5.82538 40.3413C5.9126 40.5195 6.0559 40.6634 6.23346 40.7478V43.3967C5.82538 43.6031 5.65716 44.1035 5.86276 44.5163C5.98114 44.7571 6.20542 44.9229 6.46709 44.9667H1.2119V35.3938ZM17.9588 27.7599C17.5943 27.9225 17.1644 28.1195 16.8716 28.2853L16.7034 28.3791C16.1364 28.7638 15.4916 29.0108 14.8125 29.1015C14.7938 29.1015 14.772 29.1015 14.7533 29.1015C13.7689 29.0015 12.8811 28.4573 12.3391 27.6254C11.7534 26.8342 11.2986 25.9554 10.9934 25.0203C12.0868 24.3698 13.3203 23.9977 14.5882 23.9289C15.2798 23.9039 15.9557 24.1259 16.4978 24.5606C16.965 25.0829 17.2921 25.7209 17.451 26.4057L17.5164 26.6028C17.641 26.9655 17.7843 27.3658 17.9588 27.763M16.3763 44.9667L17.4292 43.9065L16.3482 42.8119L15.2642 43.9065L16.3171 44.9667H10.4794C10.8781 44.8979 11.1678 44.5538 11.1709 44.1442C11.1678 43.9753 11.1148 43.8127 11.0152 43.6782L16.1053 38.5368C16.2735 38.6087 16.4666 38.6056 16.6317 38.5337L18.8528 40.7729V44.9667H16.3763Z" fill="#B9C5D1"/>
<path id="Vector_27" d="M6.23038 3.20085V5.7778C5.95313 5.91853 5.77557 6.20624 5.77245 6.52211C5.77245 6.99434 6.1525 7.37901 6.61977 7.37901C7.08703 7.37901 7.46708 6.99747 7.46708 6.52524C7.46708 6.18123 7.26459 5.87162 6.95308 5.74027V3.20085C7.37362 2.99757 7.55118 2.48781 7.35182 2.06249C7.15245 1.63717 6.6478 1.45578 6.22415 1.65906C5.8036 1.85921 5.62604 2.36897 5.82541 2.79429C5.90952 2.97255 6.05281 3.11954 6.23038 3.20085Z" fill="#B9C5D1"/>
<path id="Vector_28" d="M37.9081 40.2912V0.852051H18.8467V45.6859H37.9081V40.2912ZM37.1978 44.9667H36.986L36.0795 40.826L36.0608 40.7322L36.1511 40.7072L37.1978 40.4601V44.9667ZM35.9985 40.0442L35.2571 40.2224L35.4222 40.973L36.2944 44.9667H31.9426L32.7868 40.9793L32.9457 40.2287L32.2043 40.0567L31.0766 39.794L29.9489 40.0629L29.2076 40.2381L29.3695 40.9886L30.2387 44.9667H25.8962L26.7373 40.998L26.8961 40.2443L26.1547 40.0723L21.3107 38.9527L22.3512 34.0459L22.5101 33.2953L21.7687 33.1233L21.3606 33.0295L21.264 32.6136L21.0896 31.8661L20.345 32.0319L19.56 32.207V28.867L23.4072 28.0101L23.5007 27.9882L23.5225 28.082L23.9461 29.8896L24.0427 30.3024L24.4539 30.3963L26.2451 30.8122L26.3385 30.8341L26.3198 30.9279L25.2794 35.8348L25.1392 36.4915L25.7903 36.6416L27.893 37.1295L28.0456 37.1639L28.1983 37.1295L30.2978 36.6291L30.9489 36.4727L30.8025 35.816L29.734 30.9154L29.7122 30.8247L29.8057 30.7997L31.0517 30.5057L32.2977 30.7934L32.3912 30.8153L32.3694 30.9092L31.3289 35.8129L31.1919 36.4727L31.8398 36.6228L33.9425 37.1107L34.0952 37.1451L34.2509 37.1107L36.3474 36.6103L36.9985 36.454L36.852 35.7972L35.7836 30.8966L35.7618 30.8028L35.8552 30.7841L37.2009 30.4619V39.7533L35.9985 40.0379V40.0442ZM31.2511 44.9667H30.9333L30.0331 40.8448L30.0112 40.751L30.1047 40.7291L31.0766 40.4945L32.0516 40.7228L32.1451 40.7416L32.1264 40.8354L31.2511 44.9667ZM19.56 32.9075L20.4915 32.7011L20.5818 32.6792L20.6036 32.7731L20.7002 33.1859L20.7967 33.6018L21.2079 33.6956L21.616 33.7895L21.7095 33.8113L21.6877 33.9052L20.6472 38.8089L20.507 39.4687L21.1581 39.6189L26.0021 40.7385L26.0956 40.7603L26.0769 40.8542L25.2046 44.9667H19.56V32.9075ZM23.2577 25.233L24.0022 25.3956L24.1704 24.645L24.4944 23.2315L24.1642 21.821L23.9897 21.0736L23.2452 21.2393L19.5632 22.0587V18.334L23.239 19.1284L23.9835 19.291L24.1548 18.5404L24.566 16.7297L26.3541 16.3044L27.0955 16.1261L26.9335 15.3755L25.8619 10.4781L27.9646 9.9777L30.0642 10.4656L29.0238 15.3693L28.8649 16.123L29.6094 16.2918L31.0081 16.6171L32.4037 16.2856L33.1451 16.1105L32.9831 15.3599L31.9115 10.4593L34.0111 9.95894L36.1138 10.4468L35.0733 15.3536L34.9144 16.1042L35.6558 16.2762L37.2009 16.6327V29.7614L35.6963 30.1211L34.9581 30.2962L35.12 31.0468L36.1916 35.9473L34.092 36.4477L31.9925 35.9598L33.0329 31.053L33.1918 30.2993L32.4504 30.1304L31.0486 29.8052L29.6499 30.1367L28.9085 30.315L29.0736 31.0655L30.1452 35.963L28.0456 36.4633L25.9429 35.9755L26.9834 31.0718L27.1422 30.3181L26.4008 30.1461L24.6065 29.7333L24.186 27.9256L24.0115 27.1782L23.267 27.3408L19.5663 28.1665V24.4355L23.2608 25.233H23.2577ZM19.56 23.735V22.7561L23.3916 21.9055L23.4851 21.8836L23.5069 21.9774L23.7997 23.2346L23.5131 24.4918L23.4944 24.5856L23.401 24.5637L19.5632 23.735H19.56ZM37.1978 15.9322L35.8054 15.607L35.7119 15.5882L35.7306 15.4944L36.771 10.5875L36.9112 9.93079L36.2633 9.78068L34.1606 9.29281L34.0079 9.25528L33.8522 9.29281L31.7557 9.79319L31.1047 9.94643L31.2479 10.6063L32.3195 15.5038L32.3382 15.5976L32.2479 15.6195L31.0019 15.9134L29.7558 15.6257L29.6624 15.6038L29.681 15.5131L30.7215 10.6063L30.8617 9.94955L30.2137 9.79944L28.111 9.31157L27.9584 9.27717L27.8026 9.31157L25.7062 9.81195L25.0551 9.96832L25.1984 10.6251L26.27 15.5225L26.2887 15.6163L26.1983 15.6382L24.4072 16.0667L23.9991 16.1636L23.9025 16.5796L23.4913 18.3903L23.4695 18.481L23.3792 18.4622L19.56 17.6366V14.3028L20.289 14.4592L21.0366 14.6218L21.2079 13.8713L21.3014 13.4585L21.7095 13.3615L22.4509 13.1832L22.2889 12.4358L21.2173 7.53523L26.0519 6.38436L26.7933 6.2061L26.6282 5.45553L25.784 1.57447H30.0829L29.2636 5.44615L29.1048 6.19984L29.8461 6.36872L30.9738 6.63142L32.1015 6.36247L32.8429 6.18733L32.6778 5.43364L31.8336 1.57447H36.1293L35.3101 5.42739L35.1512 6.17795L35.8957 6.34996L37.1978 6.65331V15.9353V15.9322ZM20.5569 7.67909L21.6254 12.5797L21.6472 12.6704L21.5537 12.6954L21.1456 12.7923L20.7344 12.8893L20.641 13.3052L20.5475 13.718L20.5257 13.8118L20.4323 13.79L19.56 13.6023V1.57134H25.0894L25.9678 5.59939L25.9896 5.69321L25.8962 5.7151L21.0615 6.8691L20.4105 7.02234L20.5569 7.68221V7.67909ZM30.7776 1.57134H31.142L32.0174 5.58063L32.0361 5.67132L31.9457 5.69634L30.9707 5.92776L29.9957 5.70259L29.9053 5.6807L29.924 5.58688L30.7745 1.57447L30.7776 1.57134ZM36.0452 5.68383L35.9549 5.66194L35.9736 5.56812L36.8209 1.57134H37.1978V5.94966L36.0452 5.68383Z" fill="#B9C5D1"/>
<path id="Vector_29" d="M26.5566 26.4715L26.6687 27.0313L27.217 27.1783L27.5441 27.2628L27.7497 27.319L27.9553 27.2753L30.0393 26.8468L30.4162 26.7686L30.6218 26.4434L30.734 26.2683L30.8368 26.4496L31.0268 26.7874L31.3944 26.8843L33.4535 27.4285L33.6559 27.4848L33.8647 27.441L34.1949 27.3753L34.7493 27.2596L34.8926 26.7092L34.9799 26.3777L35.0328 26.1713L34.9923 25.9618L34.5656 23.8602L34.4877 23.4818L34.1668 23.2722L33.9924 23.1597L34.1731 23.0565L34.5064 22.8657L34.6029 22.4904L35.1419 20.4138L35.1948 20.2106L35.1543 20.001L35.0858 19.6664L34.9736 19.1066L34.4254 18.9627L34.0983 18.8752L33.8958 18.822L33.6871 18.8627L31.6031 19.2911L31.2293 19.3693L31.0237 19.6945L30.9115 19.8697L30.8087 19.6883L30.6218 19.3537L30.2511 19.2536L28.192 18.7125L27.9864 18.6562L27.7808 18.7L27.4475 18.7688L26.893 18.8814L26.7528 19.435L26.6656 19.7633L26.6127 19.9697L26.6563 20.1793L27.0799 22.284L27.1547 22.6624L27.4787 22.8719L27.65 22.9845L27.4724 23.0877L27.1391 23.2785L27.0426 23.6507L26.5036 25.7272L26.4507 25.9336L26.4912 26.1432L26.5597 26.4778L26.5566 26.4715ZM27.1547 25.8961L27.6936 23.8195L27.7185 23.7226L27.8026 23.6757L27.9833 23.5725L28.9584 23.0127L28.0145 22.4028L27.84 22.2902L27.759 22.2371L27.7403 22.1401L27.3136 20.0385L27.3042 19.9854L27.3167 19.9322L27.4039 19.6007L27.4413 19.46L27.5815 19.4318L27.9148 19.363L27.9677 19.3505L28.0207 19.3662L30.0767 19.9072L30.1701 19.9353L30.22 20.0198L30.3197 20.2012L30.8741 21.1863L31.4785 20.2324L31.5906 20.0573L31.6436 19.976L31.737 19.9541L33.821 19.5257L33.874 19.5163L33.927 19.5288L34.3942 19.6539L34.4223 19.7977L34.4877 20.1324L34.5001 20.1855L34.4877 20.2387L33.9488 22.3153L33.9207 22.4091L33.8366 22.4591L33.6559 22.5623L32.6809 23.119L33.6248 23.7288L33.7961 23.8414L33.8802 23.8946L33.8989 23.9915L34.3226 26.0931L34.335 26.1463L34.3195 26.1995L34.2354 26.531L34.198 26.6717L34.0578 26.6998L33.7245 26.7655L33.6746 26.778L33.6217 26.7624L31.5626 26.2213L31.4691 26.1932L31.4224 26.1088L31.3196 25.9274L30.7682 24.9423L30.1608 25.893L30.0518 26.0681L29.9957 26.1525L29.9022 26.1713L27.8182 26.5998L27.7653 26.6091L27.7123 26.5966L27.245 26.4715L27.217 26.3308L27.1485 25.993L27.1391 25.9399L27.1516 25.8867L27.1547 25.8961Z" fill="#B9C5D1"/>
<path id="Vector_30" d="M37.1946 45.6859H56.256V0.852051H37.1946V45.6859ZM45.7082 23.6412L41.0262 28.3666C40.9545 28.3416 40.8829 28.3291 40.8081 28.3228C40.7053 28.3228 40.6025 28.3447 40.5059 28.3854L37.9079 25.7615V21.0173L40.5153 18.3841C40.5527 18.4059 40.5963 18.4247 40.6368 18.4372C40.7707 18.4622 40.9109 18.4529 41.0417 18.4122L45.7113 23.1283C45.6428 23.2909 45.6428 23.4785 45.7082 23.6412ZM37.9079 41.9519L40.615 39.2186C40.6773 39.2404 40.7458 39.253 40.8112 39.2592C40.9203 39.2592 41.0293 39.2342 41.1321 39.1935L45.8266 43.9346C45.8016 44.0097 45.783 44.091 45.7798 44.1723C45.7798 44.5257 45.9979 44.8416 46.325 44.9667H40.8704L41.8922 43.9315L40.8112 42.84L39.7303 43.9315L40.752 44.9667H37.9079V41.9519ZM55.5457 44.9667H51.0973C51.3777 44.8728 51.5895 44.6383 51.6518 44.3474C51.6799 44.2036 51.6674 44.0597 51.6207 43.9221L55.5426 39.9629V44.9635L55.5457 44.9667ZM45.8826 33.1577L50.5584 28.4385C50.7235 28.5105 50.9104 28.5136 51.0755 28.4448L55.5457 32.9576V33.9239L51.1098 38.4023C51.0257 38.3679 50.9353 38.3492 50.845 38.346C50.7391 38.346 50.6363 38.371 50.5397 38.4086L45.8702 33.6925C45.8857 33.6581 45.9044 33.6206 45.9169 33.583C45.9449 33.4392 45.9325 33.2953 45.8826 33.1577ZM45.8826 12.9894L50.5397 8.2858C50.6238 8.3202 50.7173 8.33896 50.8076 8.34209C50.9104 8.34209 51.0163 8.3202 51.1129 8.27954L55.5457 12.7548V13.7524L51.0911 18.2496C50.926 18.1777 50.7422 18.1745 50.5771 18.2465L45.892 13.5179C45.92 13.4428 45.9356 13.3615 45.9418 13.2833C45.9387 13.1801 45.9169 13.0832 45.8826 12.9894ZM50.9977 1.58385C50.5397 1.49003 50.0912 1.784 49.9946 2.24686C49.9665 2.39697 49.9821 2.55334 50.0382 2.6972L45.3531 7.4289C45.2658 7.3945 45.1755 7.37573 45.082 7.37261C44.6148 7.37261 44.2379 7.75414 44.2379 8.22638C44.2379 8.69861 44.6148 9.08015 45.082 9.08015C45.5493 9.08015 45.9294 8.69861 45.9294 8.22638C45.9262 8.12943 45.9076 8.03561 45.8733 7.94491L50.5553 3.21634C50.5865 3.23197 50.6176 3.24448 50.6488 3.25699C50.7921 3.28201 50.9416 3.2695 51.0786 3.21947L55.5395 7.726V11.7103L51.5989 7.73225C51.6269 7.65407 51.6425 7.57276 51.6487 7.48832C51.6456 7.01609 51.2656 6.63455 50.7983 6.63767C50.3341 6.63767 49.9572 7.01921 49.9541 7.48832C49.9572 7.58527 49.979 7.67909 50.0133 7.76978L45.3468 12.4796C45.2658 12.4483 45.1786 12.4327 45.0914 12.4264C44.6241 12.4233 44.241 12.7986 44.2347 13.2708C44.2316 13.743 44.6054 14.1308 45.0727 14.134C45.1848 14.134 45.297 14.1152 45.4029 14.0714L50.032 18.7437C49.9946 18.8407 49.9728 18.9439 49.9728 19.0471C49.9728 19.5193 50.3497 19.9008 50.817 19.9008C51.2842 19.9008 51.6612 19.5193 51.6612 19.0471C51.6612 18.9501 51.6394 18.8563 51.6051 18.7656L55.5395 14.797V31.9099L51.6082 27.9413C51.6487 27.8443 51.6674 27.7411 51.6705 27.6379C51.6705 27.1657 51.2905 26.7842 50.8232 26.7842C50.3559 26.7842 49.979 27.1657 49.979 27.6379C49.9821 27.7317 50.0008 27.8287 50.0351 27.9163L45.3749 32.6198C45.3406 32.6011 45.3001 32.5823 45.2596 32.5698C44.8017 32.4728 44.3531 32.7668 44.2597 33.2297C44.1631 33.6894 44.4559 34.1428 44.9107 34.2398C45.054 34.2648 45.2035 34.2554 45.3406 34.2023L50.0444 38.9527C50.0164 39.0309 50.0008 39.1122 49.9946 39.1967C49.9946 39.6689 50.3746 40.0504 50.8419 40.0504C51.3092 40.0504 51.6861 39.6689 51.6861 39.1967C51.683 39.0997 51.6643 39.0028 51.63 38.9152L55.5426 34.9653V38.9121L51.1129 43.3842C51.0755 43.3623 51.035 43.3467 50.9945 43.331C50.8419 43.3029 50.6861 43.3185 50.5397 43.378L45.9076 38.7025C45.9449 38.6056 45.9667 38.5024 45.9667 38.3992C45.9667 37.927 45.5898 37.5454 45.1225 37.5454C44.6553 37.5454 44.2752 37.927 44.2752 38.3992C44.2752 38.8714 44.6522 39.253 45.1194 39.253C45.2035 39.2467 45.2876 39.2311 45.3655 39.2029L50.0289 43.9096C50.0133 43.9346 50.0039 43.9628 49.9915 43.9909C49.9105 44.41 50.1472 44.8228 50.546 44.9604H46.92C47.3561 44.7978 47.5773 44.3099 47.4184 43.8689C47.2564 43.428 46.7736 43.2028 46.3374 43.3654C46.3281 43.3686 46.3188 43.3717 46.3094 43.3748L41.6056 38.6275C41.6305 38.5524 41.6461 38.4742 41.6492 38.3961C41.6492 37.9238 41.2691 37.5454 40.8019 37.5454C40.3346 37.5485 39.9608 37.927 39.9577 38.3961C39.9577 38.518 39.9857 38.6369 40.0324 38.7432L37.9017 40.898V26.8029L40.0044 28.9295C39.9764 29.0046 39.9639 29.0859 39.9577 29.1703C39.9577 29.6426 40.3346 30.0241 40.8019 30.0241C41.2691 30.0241 41.6492 29.6457 41.6492 29.1735C41.6492 29.0578 41.6274 28.9452 41.5838 28.8388L46.2004 24.1822C46.2938 24.2197 46.3966 24.2416 46.4963 24.2416C46.9636 24.2416 47.3436 23.8601 47.3436 23.3878C47.3436 22.9156 46.9636 22.5341 46.4963 22.5341C46.4029 22.5372 46.3094 22.556 46.2222 22.5904L41.5775 17.8993C41.5994 17.8587 41.6149 17.8149 41.6305 17.768C41.7271 17.3082 41.4343 16.8548 40.9763 16.7578C40.5215 16.6609 40.0729 16.9549 39.9764 17.4177C39.9515 17.5553 39.9608 17.6992 40.0044 17.8305L37.9017 19.954V5.71823L40.0324 7.86673C39.8424 8.29831 40.0356 8.80181 40.4655 8.99258C40.8922 9.18022 41.3906 8.9832 41.5775 8.55162C41.6274 8.44529 41.6492 8.32645 41.6492 8.20761C41.6461 8.1263 41.6305 8.04812 41.6025 7.97306L46.3156 3.21321C46.3499 3.23197 46.3842 3.24448 46.4215 3.25699C46.8795 3.35394 47.3249 3.05997 47.4246 2.59712C47.5181 2.13427 47.2252 1.68393 46.7704 1.58385C46.3125 1.48691 45.8639 1.784 45.7674 2.24373C45.7425 2.39071 45.7549 2.54395 45.8048 2.68469L41.1165 7.41639C41.0168 7.37573 40.9109 7.35384 40.805 7.35384C40.7365 7.35697 40.6679 7.37261 40.6025 7.39762L37.9017 4.67056V1.57134H55.5395V6.68146L51.5989 2.70658C51.6176 2.67218 51.6331 2.63465 51.6456 2.59712C51.7422 2.1374 51.4493 1.68393 50.9914 1.58698" fill="#B9C5D1"/>
<path id="Vector_31" d="M55.5427 45.6859H74.6072V0.852051H55.5427V45.6859ZM73.8939 2.63778C72.9064 2.2062 71.8908 1.84968 70.8504 1.57134H73.8939V2.63778ZM69.9532 8.12317C70.8099 8.77679 71.7008 9.37725 72.6322 9.91828C73.0434 10.1591 73.4671 10.3843 73.8939 10.6032V12.1231C72.5108 12.8236 71.1931 13.6492 69.9595 14.5937C70.2305 12.4421 70.2274 10.2717 69.9532 8.12317ZM72.9905 9.28968C71.8317 8.61417 70.732 7.84484 69.6947 6.99107L68.9564 6.38123L69.1122 7.32882C69.5483 9.99646 69.5514 12.7141 69.1184 15.3818L68.9658 16.3263L69.704 15.7195C71.003 14.6594 72.4048 13.7305 73.8939 12.9581V15.9072C71.6198 17.2801 69.6106 19.0533 67.9658 21.1455L67.3988 21.8679L68.2991 21.7303C70.2274 21.4364 72.1089 20.8859 73.8939 20.0947V26.4401C72.1089 25.6489 70.2305 25.0985 68.3053 24.8045L67.402 24.6669L67.972 25.3894C69.6199 27.4753 71.6261 29.2454 73.8939 30.6183V33.558C72.4048 32.7856 71.003 31.8599 69.7009 30.7997L68.9658 30.1961L69.1184 31.1406C69.5514 33.8113 69.5483 36.5384 69.109 39.2092L68.9533 40.1568L69.6916 39.5501C70.9968 38.4868 72.4017 37.5579 73.8907 36.7823V39.7221C71.6261 41.0919 69.6262 42.8588 67.9783 44.9416L67.9627 44.9635H62.0346L62.0159 44.9416C60.4054 42.9088 58.4554 41.1763 56.2561 39.8221V36.8637C57.689 37.6236 59.0441 38.5212 60.3026 39.5501L61.0378 40.1568L60.8851 39.2092C60.4459 36.5353 60.4459 33.8113 60.8758 31.1374L61.0316 30.193L60.2964 30.7997C59.0379 31.8223 57.6859 32.7199 56.2561 33.4767V30.5151C58.4616 29.161 60.4148 27.4253 62.0253 25.3862L62.5953 24.6638L61.692 24.8014C59.8198 25.0891 57.9943 25.6177 56.2561 26.3745V20.151C57.9943 20.911 59.8229 21.4395 61.6982 21.7272L62.5985 21.8648L62.0315 21.1424C60.421 19.0971 58.4647 17.3552 56.2561 15.9979V13.0363C57.6859 13.7962 59.0379 14.6938 60.2933 15.7195L61.0316 16.3263L60.8758 15.3787C60.4459 12.7141 60.449 9.99334 60.8851 7.32882L61.0378 6.38123L60.2995 6.98794C59.2653 7.84171 58.1625 8.61104 57.0068 9.28655C56.7638 9.43041 56.5084 9.55551 56.2561 9.68686V6.71273C58.4554 5.35858 60.4054 3.6229 62.0128 1.59011L62.0315 1.56822H67.9658L67.9845 1.59011C69.6293 3.67293 71.6292 5.44302 73.8939 6.81281V9.76504C73.5886 9.60867 73.2833 9.45856 72.9905 9.28655V9.28968ZM73.8939 16.7422V19.3035C72.3768 20.0009 70.7819 20.52 69.1464 20.8453C70.5202 19.2503 72.1182 17.868 73.8939 16.7422ZM73.8939 27.2282V29.7552C72.1276 28.6418 70.5295 27.2689 69.1558 25.6865C70.7881 26.0148 72.3799 26.5308 73.8939 27.2282ZM69.9595 31.9287C71.1931 32.87 72.5108 33.6925 73.8939 34.393V35.9505C72.5076 36.651 71.1899 37.4766 69.9532 38.4211C70.2305 36.2663 70.2305 34.0834 69.9595 31.9287ZM73.8939 40.5852V43.1059C72.383 43.8033 70.7943 44.3162 69.1651 44.6445C70.5389 43.0652 72.1307 41.6986 73.8939 40.5852ZM60.8322 44.6445C59.2559 44.3255 57.7202 43.8314 56.2561 43.1684V40.6853C57.9601 41.7799 59.4989 43.1121 60.8322 44.6414V44.6445ZM60.0441 38.4211C58.851 37.5141 57.5862 36.7167 56.2561 36.0349V34.3117C57.5831 33.63 58.851 32.8356 60.0378 31.9318C59.7668 34.0866 59.7699 36.2663 60.0441 38.4211ZM56.2561 29.6582V27.1688C57.7264 26.5027 59.2622 26.0086 60.8415 25.6896C59.5083 27.2251 57.9632 28.5636 56.2561 29.6582ZM56.2561 19.3692V16.8423C57.9694 17.9494 59.5176 19.2972 60.8509 20.8484C59.2684 20.5294 57.7264 20.0353 56.2561 19.3692ZM60.0378 14.5937C58.851 13.6868 57.5831 12.8893 56.2561 12.2075V10.5219C56.633 10.328 57.0037 10.1309 57.3682 9.92141C58.2965 9.37725 59.1874 8.77992 60.0409 8.12317C59.7668 10.2717 59.7668 12.4452 60.0378 14.5937ZM56.2561 5.85583V3.36645C57.7202 2.70345 59.2559 2.20933 60.8291 1.89346C59.4989 3.42587 57.9601 4.76126 56.2561 5.85583ZM69.1682 1.89034C70.7974 2.21871 72.383 2.73472 73.8939 3.43213V5.95591C72.1307 4.83944 70.5389 3.46965 69.1682 1.89034ZM59.1531 1.57134C58.1657 1.83717 57.1968 2.17493 56.2561 2.57836V1.57134H59.1531ZM56.2561 43.9596C57.2 44.3631 58.1657 44.6977 59.1531 44.9667H56.2561V43.9596ZM70.8473 44.9667C71.8877 44.6883 72.9064 44.3318 73.8939 43.8971V44.9667H70.8473ZM65.3366 3.13503L65.0002 2.26875L64.6638 3.13503C64.3585 3.92312 64.0937 4.72373 63.8788 5.53997C62.6234 10.1966 62.9006 15.1347 64.6669 19.6194L65.0002 20.4731L65.3366 19.6194C67.1029 15.1347 67.377 10.1966 66.1217 5.53997C65.9036 4.72373 65.6419 3.92 65.3366 3.13503ZM65.0002 18.4435C63.5922 14.3435 63.4458 9.91515 64.5703 5.73074C64.6949 5.26789 64.8351 4.79878 65.0002 4.3203C65.1591 4.79253 65.3024 5.26476 65.427 5.73074C66.5515 9.91515 66.4051 14.3435 65.0002 18.4435ZM65.0002 26.0649L64.6638 26.9155C62.8975 31.4001 62.6203 36.3414 63.8757 40.998C64.0937 41.8111 64.3585 42.618 64.6638 43.403L64.9971 44.2724L65.3335 43.403C65.6419 42.618 65.9036 41.8143 66.1217 40.998C67.377 36.3445 67.0998 31.4001 65.3335 26.9155L65.0002 26.0649ZM65.427 40.8104C65.3024 41.2732 65.1591 41.7455 65.0002 42.2177C64.8351 41.7423 64.698 41.2764 64.5703 40.8104C63.4458 36.6228 63.5922 32.1945 65.0002 28.0945C66.4051 32.1914 66.5515 36.6228 65.427 40.8073" fill="#B9C5D1"/>
<path id="Vector_32" d="M73.8906 45.6859H92.952V0.852051H73.8906V45.6859ZM91.4194 20.9548C89.7746 22.1713 87.8058 22.8593 85.7686 22.9375C85.8309 21.1455 86.3511 19.4067 87.2825 17.8806C88.7466 19.0815 90.1578 20.1072 91.4194 20.9548ZM85.0458 22.9406H85.0427C81.7189 22.8343 78.6505 21.1142 76.8064 18.3184C77.4855 15.6507 78.7035 13.152 80.3825 10.9816C81.3451 12.1575 82.3887 13.3365 83.4976 14.453C84.5692 15.5319 85.6564 16.5139 86.7187 17.4114C85.6876 19.0721 85.1082 20.9798 85.0458 22.9406ZM86.7124 29.2047C85.6595 30.0992 84.5786 31.0812 83.5194 32.1538C82.4073 33.2797 81.3607 34.4712 80.3919 35.6565C78.7066 33.4798 77.4824 30.9717 76.8033 28.2947C78.6474 25.4957 81.7189 23.7725 85.0427 23.6662H85.0458C85.105 25.6302 85.6813 27.541 86.7124 29.2047ZM80.3732 9.83384C79.2393 8.41089 78.2829 7.05674 77.5073 5.88085C77.8749 5.43677 78.2798 5.03021 78.7159 4.65493C79.8872 5.43677 81.2267 6.4 82.641 7.53836C81.8279 8.24201 81.0678 9.01134 80.3732 9.83384ZM77.0992 5.25225C76.4326 4.20771 75.9248 3.33518 75.5821 2.71909C76.1927 3.0631 77.0587 3.57286 78.0929 4.24211C77.7409 4.55798 77.4076 4.89261 77.0992 5.24913M79.9121 10.3999C78.2674 12.489 77.0338 14.8783 76.2861 17.4396C74.4358 13.9463 74.7286 9.69311 77.0369 6.49069C77.8499 7.69785 78.8187 9.03324 79.9121 10.3999ZM76.5727 19.2253C78.0586 21.2237 80.1676 22.6623 82.56 23.3034C80.1645 23.9445 78.0555 25.3831 76.5696 27.3846C76.0182 24.6919 76.0214 21.918 76.5727 19.2253ZM76.283 29.1735C77.0338 31.741 78.2705 34.1397 79.9215 36.2351C78.8343 37.6048 77.8717 38.9402 77.0649 40.1474C74.7348 36.945 74.4295 32.6792 76.283 29.1735ZM77.1241 41.3858C77.4356 41.7392 77.7689 42.0738 78.121 42.3866C77.0898 43.0558 76.227 43.5656 75.6195 43.9096C75.9591 43.2935 76.4637 42.4241 77.1241 41.3827M77.5322 40.7541C78.3047 39.5782 79.2517 38.2272 80.3794 36.8042C81.0741 37.6236 81.8342 38.3898 82.6472 39.0966C81.2392 40.235 79.9028 41.1951 78.7409 41.9769C78.3047 41.6047 77.8998 41.1951 77.5291 40.7572M80.8373 36.2319C81.7874 35.0654 82.8497 33.8583 84.0272 32.6667C85.0521 31.6316 86.0925 30.6809 87.1143 29.8146C87.7934 30.7622 88.6158 31.5972 89.5472 32.2883C88.6936 33.3204 87.7529 34.368 86.7311 35.4063C85.5536 36.5947 84.3605 37.6705 83.2079 38.6306C82.3513 37.8988 81.56 37.0982 80.8342 36.2319M85.7623 23.6724C87.7965 23.7475 89.7652 24.4355 91.4131 25.6489C90.1702 26.4902 88.7528 27.5285 87.2732 28.7419C86.3417 27.2126 85.8184 25.4644 85.7623 23.6724ZM87.1174 16.8079C86.0894 15.9385 85.0396 14.9815 84.0023 13.9401C82.8341 12.7579 81.775 11.5633 80.828 10.403C81.5507 9.53987 82.345 8.73614 83.2017 8.00433C84.3543 8.96131 85.5412 10.0277 86.7156 11.2068C87.7467 12.245 88.6905 13.3021 89.5503 14.3372C88.6189 15.0284 87.7965 15.8634 87.1205 16.8079M83.1955 7.06612C81.8404 5.96842 80.5165 4.99268 79.3234 4.17644C82.4821 1.83717 86.6875 1.52443 90.1484 3.37271C87.6189 4.14204 85.2577 5.39611 83.1955 7.06612ZM83.7998 1.57134C81.9401 1.84343 80.18 2.59399 78.6879 3.75112C77.4792 2.89422 76.1896 2.16242 74.8345 1.57134H83.7998ZM74.6009 2.38133C75.1927 3.58224 75.8656 4.73937 76.6132 5.85271C75.6257 7.16307 74.9373 8.67984 74.6009 10.2904V2.38133ZM74.6009 14.8752C74.8688 16.1355 75.3516 17.3395 76.0307 18.4341C75.2395 21.6334 75.2364 24.9797 76.0276 28.179C75.3516 29.2704 74.8688 30.4713 74.6009 31.7316V14.8752ZM74.6009 36.3132C74.9404 37.9426 75.6351 39.4687 76.6382 40.7885C75.875 41.9237 75.1927 43.109 74.6009 44.3381V36.3132ZM75.1398 44.9667C76.3796 44.3599 77.5727 43.6594 78.7128 42.8744C80.0835 43.9284 81.6784 44.6477 83.3761 44.9667H75.1398ZM79.3483 42.446C80.5352 41.6329 81.856 40.6603 83.2017 39.5657C85.2546 41.2295 87.6034 42.4773 90.1235 43.2466C86.6751 45.0761 82.4946 44.7665 79.3483 42.446ZM92.2386 44.9667H87.2825C88.6407 44.7258 89.9397 44.2317 91.1172 43.5062C91.4848 43.5969 91.8617 43.6625 92.2386 43.7345V44.9667ZM92.2386 43.0246C92.1296 43.0027 92.0206 42.987 91.9116 42.962C92.0268 42.8776 92.1265 42.7744 92.2386 42.6837V43.0246ZM92.2386 41.7423C91.8524 42.102 91.4381 42.4304 91.0019 42.7275C88.3697 42.0269 85.9087 40.7885 83.7718 39.0903C84.9462 38.1115 86.1237 37.0482 87.242 35.9192C88.298 34.8496 89.2637 33.7676 90.1422 32.7043C90.8026 33.1171 91.5066 33.458 92.2386 33.7206V41.7423ZM92.2386 32.9482C91.6717 32.7293 91.1266 32.4572 90.6094 32.1413C91.2013 31.4033 91.734 30.6934 92.2386 29.996V32.9482ZM92.2386 28.7544C91.5782 29.6957 90.8368 30.6934 90.0051 31.7254C89.1048 31.0655 88.3167 30.2649 87.6719 29.3517C89.2326 28.0664 90.7247 26.9843 92.0144 26.118C92.0922 26.1868 92.1608 26.2713 92.2386 26.3463V28.7544ZM92.2386 25.1048C92.1732 25.1454 92.1172 25.1829 92.0517 25.2236C90.8991 24.3323 89.5846 23.6787 88.1797 23.3034C89.5846 22.9281 90.9054 22.2745 92.058 21.3801C92.1203 21.4207 92.1763 21.4551 92.2386 21.4927V25.1048ZM92.2386 20.2636C92.1639 20.3355 92.0985 20.4168 92.0206 20.4856C90.5222 19.4849 89.0737 18.4122 87.6812 17.2676C88.3261 16.3575 89.1142 15.5569 90.0113 14.9002C90.8462 15.9291 91.5845 16.9236 92.2386 17.8555V20.2636ZM92.2386 16.6265C91.734 15.9353 91.2044 15.2285 90.6094 14.4905C91.1266 14.1715 91.6717 13.9025 92.2386 13.6836V16.6265ZM90.1515 13.9244C89.2668 12.858 88.2918 11.7666 87.2264 10.697C86.1143 9.57427 84.9368 8.51722 83.7687 7.54461C85.915 5.83707 88.3853 4.59863 91.0269 3.8981C91.4536 4.19208 91.8586 4.51419 92.2386 4.86446V12.908C91.5097 13.1707 90.8088 13.5116 90.1515 13.9244ZM92.2386 3.92312C92.1358 3.83868 92.0393 3.74174 91.9334 3.66355C92.0331 3.64166 92.1358 3.6229 92.2386 3.60413V3.92312ZM92.2386 2.89735C91.8711 2.96615 91.5004 3.0287 91.1421 3.11939C89.8712 2.32504 88.4569 1.79964 86.9803 1.57447H92.2386V2.89735Z" fill="#B9C5D1"/>
<path id="Vector_33" d="M92.2417 45.6859H111.303V0.852051H92.2417V45.6859ZM92.9551 27.9131L96.1979 31.1844L92.9551 34.4587V27.9131ZM92.9551 35.5001L96.7119 31.7066L99.0918 34.1084L92.9551 40.3069V35.5001ZM97.229 31.1844L99.2632 29.1328V33.239L97.229 31.1844ZM94.793 44.9667L99.6276 40.0848C100.425 40.9073 102.874 43.4342 104.356 44.9667H94.793ZM105.375 44.9667C103.783 43.3248 99.9142 39.328 99.8862 39.303L99.6308 39.0403L93.7619 44.9667H92.9551V41.3483L99.6089 34.6307L109.851 44.9667H105.375ZM110.593 44.6758L100.126 34.1116L102.506 31.7066L110.593 39.8722V44.6758ZM99.9921 33.2046V29.1703L101.989 31.1844L99.9921 33.2015V33.2046ZM110.593 16.0229L108.724 14.134C108.792 13.9682 108.795 13.7806 108.727 13.6117L110.593 11.729V16.0229ZM110.593 10.6907L108.235 13.0707C108.138 13.03 108.035 13.0112 107.929 13.0081C107.462 13.0081 107.085 13.3897 107.085 13.8619C107.085 14.3341 107.462 14.7157 107.929 14.7157C108.026 14.7125 108.119 14.6938 108.21 14.6594L110.593 17.0612V21.8992L108.808 20.0979C108.839 20.0103 108.861 19.9165 108.861 19.8226C108.861 19.3504 108.484 18.9689 108.017 18.9689C107.549 18.9689 107.172 19.3504 107.169 19.8226C107.169 20.2917 107.549 20.6764 108.017 20.6764C108.11 20.6733 108.207 20.6545 108.294 20.6201L110.593 22.9375V28.8107L108.499 30.9248C108.403 30.8841 108.3 30.8654 108.194 30.8622C107.727 30.8622 107.35 31.2438 107.35 31.716C107.35 32.1882 107.727 32.5698 108.194 32.5698C108.661 32.5698 109.042 32.1882 109.042 31.716C109.035 31.6316 109.02 31.5471 108.992 31.4658L110.59 29.8521V38.8276L103.017 31.1844L107.64 26.5246L107.123 26.0023L102.503 30.6652L100.123 28.2634L105.067 23.2753L104.553 22.753L99.989 27.3565V22.4309L105.029 17.3426L104.515 16.8204L99.989 21.3895V16.5639L104.989 11.5164L104.475 10.9941L99.6089 15.9041H99.6058L94.7836 11.041L94.2696 11.5601L99.2601 16.5983V21.4207L94.7556 16.8767L94.2416 17.3989L99.2601 22.4621V27.3909L94.7961 22.8843L94.279 23.4066L99.0887 28.2603L96.7088 30.6621L92.9519 26.8686V5.35233L95.0733 3.21008C95.1107 3.23197 95.1481 3.24761 95.1917 3.26012C95.6496 3.35707 96.0951 3.0631 96.1917 2.60025C96.2882 2.1374 95.9954 1.68706 95.5375 1.58698C95.0796 1.49316 94.6341 1.78713 94.5375 2.24998C94.5095 2.39071 94.522 2.54083 94.5687 2.6753L92.9488 4.31092V1.57134H110.587V10.6876L110.593 10.6907Z" fill="#B9C5D1"/>
<path id="Vector_34" d="M37.9237 75.0236C38.2944 74.911 38.6402 74.7327 38.9454 74.4982C39.1946 74.298 39.4314 74.0197 39.6463 73.6694C39.8582 73.3223 39.9641 72.8688 39.9641 72.3184C39.9641 71.718 39.7772 71.2082 39.4096 70.8016C39.0389 70.3951 38.5436 70.1105 37.9299 69.9635C37.6215 69.8947 37.2539 69.8478 36.8396 69.8259C36.4222 69.8009 35.9736 69.7915 35.5095 69.7915C35.2104 69.7915 34.9238 69.7946 34.6559 69.804C34.3911 69.8134 34.1606 69.8228 33.9706 69.8322C33.7681 69.8384 33.5843 69.8478 33.4192 69.8572V74.2543H0.61084V75.5552H33.4192V79.9398H35.2447V75.3176H36.011L38.9984 79.9617H41.2288L37.824 75.0549L37.9237 75.0236ZM37.2259 74.3137C37.0795 74.3825 36.9455 74.4325 36.8272 74.4607C36.7057 74.4888 36.5842 74.5076 36.4689 74.517C36.3505 74.5263 36.1792 74.5295 35.958 74.5295H35.6621C35.5718 74.5295 35.3475 74.5107 35.3008 74.4982L35.2447 74.4857V70.6859H35.3194C35.3537 70.6859 35.3973 70.6797 35.4503 70.6734C35.5095 70.6734 35.5749 70.6703 35.6528 70.6672C35.7369 70.6609 35.8397 70.6609 35.9674 70.6609C36.2602 70.6609 36.5374 70.6859 36.7867 70.7422C37.0421 70.7985 37.2664 70.9017 37.4595 71.0456C37.6495 71.1926 37.8022 71.3927 37.9081 71.6398C38.0109 71.8837 38.0639 72.1933 38.0639 72.5623C38.0639 72.9001 38.0202 73.1847 37.9361 73.413C37.852 73.6382 37.7492 73.8289 37.6309 73.9759C37.5094 74.126 37.3723 74.2386 37.2228 74.3105L37.2259 74.3137Z" fill="#B9C5D1"/>
<path id="Vector_35" d="M46.1224 69.6445C45.3934 69.6445 44.7362 69.7696 44.1599 70.0104C43.5867 70.2544 43.0914 70.6078 42.6926 71.0675C42.2939 71.5303 41.9824 72.1026 41.7706 72.7688C41.5587 73.438 41.4497 74.2074 41.4497 75.0611C41.4497 76.6936 41.8578 77.9571 42.6615 78.8171C43.4652 79.6771 44.6396 80.1118 46.1504 80.1118C46.8794 80.1118 47.5366 79.9899 48.1129 79.7459C48.6861 79.5051 49.1752 79.1517 49.5708 78.6951C49.9664 78.2385 50.2748 77.6693 50.4867 77.0032C50.6985 76.3371 50.8075 75.5646 50.8075 74.7109C50.8075 73.0784 50.4025 71.8118 49.602 70.9486C48.8014 70.0824 47.6301 69.6445 46.1193 69.6445H46.1224ZM48.1565 77.9102C47.7235 78.5825 47.0445 78.9234 46.138 78.9234C45.2283 78.9234 44.5243 78.5888 44.0976 77.9227C43.677 77.2722 43.4621 76.2589 43.4621 74.9141C43.4621 73.5694 43.6801 72.5217 44.11 71.8525C44.5461 71.1769 45.2283 70.8329 46.138 70.8329C47.0445 70.8329 47.7485 71.1707 48.169 71.8399C48.5864 72.4967 48.7951 73.5131 48.7951 74.8578C48.7951 76.2026 48.5802 77.2472 48.1565 77.9102Z" fill="#B9C5D1"/>
<path id="Vector_36" d="M56.4865 74.3826L55.2155 73.6415C54.7981 73.3975 54.4803 73.1755 54.2654 72.9847C54.038 72.7783 53.9196 72.5031 53.9196 72.1622C53.9196 71.8745 53.985 71.6431 54.1096 71.4742C54.2342 71.3084 54.3869 71.1802 54.5707 71.0958C54.7513 71.0082 54.9445 70.9519 55.1501 70.9269C55.3526 70.905 55.5301 70.8894 55.6859 70.8894C55.9974 70.8894 56.2777 70.9113 56.5238 70.9582C56.7637 71.002 56.9693 71.0489 57.1375 71.0989C57.2902 71.1458 57.4334 71.2052 57.5612 71.2678L57.9568 70.0763C57.801 70.0137 57.6141 69.9543 57.4023 69.9074C57.1842 69.8573 56.907 69.8136 56.5861 69.7698C56.2622 69.726 55.879 69.7041 55.4398 69.7041C54.3869 69.7041 53.5676 69.948 53.0069 70.4203C52.4493 70.8956 52.1689 71.5993 52.1689 72.5125C52.1689 72.8596 52.2187 73.1661 52.3153 73.4225C52.4119 73.6821 52.5427 73.9135 52.7047 74.1074C52.8698 74.3076 53.0536 74.4858 53.2561 74.636C53.4617 74.7892 53.6735 74.9299 53.8884 75.0519L55.3899 75.9557C55.7544 76.184 56.0223 76.3998 56.1905 76.5999C56.365 76.8063 56.4522 77.0784 56.4522 77.4068C56.4522 77.9572 56.2591 78.3481 55.8728 78.5671C55.5021 78.7766 55.0005 78.8829 54.3838 78.8829C54.0442 78.8829 53.7389 78.8579 53.4741 78.8079C53.2125 78.7609 52.9882 78.7047 52.8013 78.6484C52.6206 78.5889 52.4555 78.5233 52.306 78.4482L51.8948 79.6366C52.0973 79.7117 52.3309 79.7805 52.5832 79.8399C52.8293 79.8962 53.1346 79.9493 53.4835 79.9963C53.8355 80.0463 54.2498 80.0713 54.7171 80.0713C55.8634 80.0713 56.7512 79.8055 57.3493 79.2801C57.9443 78.7578 58.2465 78.0166 58.2465 77.0722C58.2465 76.4311 58.1001 75.9057 57.8073 75.5085C57.5113 75.1051 57.0659 74.7266 56.4802 74.3858L56.4865 74.3826Z" fill="#B9C5D1"/>
<path id="Vector_37" d="M66.2928 74.292H62.0126V69.8198H60.1155V79.9525H62.0126V75.5085H66.2928V79.9525H68.1899V69.8198H66.2928V74.292Z" fill="#B9C5D1"/>
<path id="Vector_38" d="M44.8049 75.6584H47.7425L46.2722 73.8789L44.8049 75.6584Z" fill="#B9C5D1"/>
<path id="Vector_39" d="M111.179 74.2513H78.5355V69.8198H77.143V77.3474L76.6322 76.5155C76.5979 76.453 76.5574 76.3842 76.5138 76.3091L76.2054 75.8181L72.4392 69.8198H70.6387V79.9494H72.028V72.378L76.8222 79.9494H78.5386V75.5523H111.179V74.2513Z" fill="#B9C5D1"/>
</g>
</svg>
