<svg width="139" height="47" viewBox="0 0 139 47" fill="none" xmlns="http://www.w3.org/2000/svg">
<g id="Group 1597883137">
<g id="Group 1597883126">
<g id="Constant">
<path id="Vector" d="M136.44 18.6937H138.24V21.7577H135.82C134.66 21.7577 133.656 21.5251 132.81 21.0599C131.964 20.5948 131.315 19.9274 130.862 19.0577C130.41 18.1679 130.183 17.1263 130.183 15.9331V8.25803H127.321V7.62097L132.869 1.55371H133.43V5.37608H138.152V8.25803H133.459V15.6601C133.459 16.6308 133.715 17.3791 134.227 17.905C134.738 18.4308 135.476 18.6937 136.44 18.6937Z" fill="#B9C5D1"/>
<path id="Vector_2" d="M118.977 5.01221C120.826 5.01221 122.292 5.64927 123.374 6.92339C124.476 8.19752 125.027 9.8559 125.027 11.8985V21.7578H121.751V12.5659C121.751 11.0896 121.436 9.96714 120.806 9.19862C120.197 8.40987 119.291 8.0155 118.091 8.0155C116.852 8.0155 115.829 8.48066 115.022 9.41097C114.215 10.3413 113.812 11.5345 113.812 12.9907V21.7578H110.536V5.37624H112.808L113.458 7.65147C114.068 6.82227 114.845 6.1751 115.789 5.70994C116.753 5.24479 117.816 5.01221 118.977 5.01221Z" fill="#B9C5D1"/>
<path id="Vector_3" d="M103.326 5.37631H105.864V21.7579H103.208L102.883 19.7557C101.348 21.3534 99.4299 22.1523 97.1279 22.1523C94.7472 22.1523 92.7599 21.3332 91.1662 19.695C89.5922 18.0569 88.8052 16.0142 88.8052 13.5671C88.8052 11.0998 89.5922 9.05711 91.1662 7.43917C92.7599 5.80101 94.7472 4.98193 97.1279 4.98193C99.4693 4.98193 101.407 5.7909 102.942 7.40884L103.326 5.37631ZM93.6158 17.4198C94.6193 18.431 95.8687 18.9366 97.364 18.9366C98.879 18.9366 100.119 18.431 101.083 17.4198C102.066 16.3884 102.558 15.1041 102.558 13.5671C102.558 12.0098 102.066 10.7256 101.083 9.71439C100.119 8.70318 98.879 8.19758 97.364 8.19758C96.3802 8.19758 95.485 8.43016 94.6783 8.89531C93.8913 9.36047 93.2715 10.0076 92.819 10.8368C92.3664 11.6458 92.1402 12.5559 92.1402 13.5671C92.1402 15.1041 92.6321 16.3884 93.6158 17.4198Z" fill="#B9C5D1"/>
<path id="Vector_4" d="M85.1665 18.6937H86.9668V21.7577H84.5467C83.3858 21.7577 82.3824 21.5251 81.5363 21.0599C80.6903 20.5948 80.041 19.9274 79.5885 19.0577C79.1359 18.1679 78.9097 17.1263 78.9097 15.9331V8.25803H76.0469V7.62097L81.5954 1.55371H82.1561V5.37608H86.8782V8.25803H82.1856V15.6601C82.1856 16.6308 82.4414 17.3791 82.953 17.905C83.4645 18.4308 84.2024 18.6937 85.1665 18.6937Z" fill="#B9C5D1"/>
<path id="Vector_5" d="M68.2348 22.1523C66.287 22.1523 64.7228 21.6467 63.5422 20.6355C62.3617 19.6242 61.7518 18.2692 61.7124 16.5704H64.9293C64.9687 17.3996 65.2933 18.0468 65.9033 18.5119C66.5329 18.9569 67.3494 19.1793 68.3529 19.1793C68.9431 19.1793 69.4645 19.0984 69.9171 18.9366C70.3893 18.7748 70.7631 18.5321 71.0386 18.2086C71.314 17.885 71.4518 17.5007 71.4518 17.0558C71.4518 16.7524 71.3829 16.4895 71.2452 16.267C71.1074 16.0243 70.9402 15.8322 70.7434 15.6906C70.5467 15.5491 70.2614 15.4176 69.8876 15.2963C69.5334 15.1749 69.2088 15.0839 68.9136 15.0232C68.6382 14.9626 68.2643 14.8918 67.7921 14.8109C67.3002 14.73 66.9067 14.6592 66.6116 14.5985C66.3165 14.5379 65.9426 14.4469 65.4901 14.3255C65.0376 14.1839 64.6637 14.0424 64.3686 13.9008C64.0931 13.739 63.7882 13.5368 63.4537 13.2941C63.1192 13.0514 62.8536 12.7784 62.6568 12.475C62.4797 12.1716 62.3223 11.8076 62.1846 11.3829C62.0666 10.938 62.0075 10.4526 62.0075 9.92675C62.0075 8.45038 62.5683 7.25715 63.6898 6.34707C64.831 5.43698 66.3263 4.98193 68.1758 4.98193C70.0253 4.98193 71.5108 5.4572 72.6323 6.40774C73.7538 7.35828 74.3244 8.6324 74.3441 10.2301H71.2452C71.2255 9.46159 70.9402 8.87509 70.3893 8.47061C69.8384 8.0459 69.0809 7.83354 68.1168 7.83354C67.2117 7.83354 66.4935 8.01556 65.9623 8.3796C65.4311 8.74363 65.1654 9.2189 65.1654 9.8054C65.1654 10.0481 65.2048 10.2604 65.2835 10.4425C65.3622 10.6245 65.4901 10.7863 65.6672 10.9278C65.8639 11.0694 66.041 11.1908 66.1984 11.2919C66.3755 11.3728 66.6313 11.4537 66.9658 11.5346C67.3002 11.6155 67.5757 11.6761 67.7921 11.7166C68.0086 11.757 68.3234 11.8076 68.7365 11.8683C69.2678 11.9694 69.6613 12.0503 69.9171 12.111C70.1925 12.1514 70.5762 12.2424 71.0681 12.384C71.56 12.5053 71.9436 12.6368 72.2191 12.7784C72.4946 12.9199 72.8094 13.1222 73.1635 13.3851C73.5374 13.6278 73.8128 13.9109 73.9899 14.2345C74.1867 14.5379 74.3539 14.9221 74.4916 15.3873C74.6294 15.8524 74.6982 16.358 74.6982 16.9041C74.6982 18.5018 74.108 19.7759 72.9274 20.7265C71.7469 21.677 70.1827 22.1523 68.2348 22.1523Z" fill="#B9C5D1"/>
<path id="Vector_6" d="M52.4276 5.01221C54.2771 5.01221 55.7429 5.64927 56.8251 6.92339C57.9269 8.19752 58.4778 9.8559 58.4778 11.8985V21.7578H55.2018V12.5659C55.2018 11.0896 54.887 9.96714 54.2574 9.19862C53.6475 8.40987 52.7424 8.0155 51.5422 8.0155C50.3026 8.0155 49.2795 8.48066 48.4728 9.41097C47.6661 10.3413 47.2628 11.5345 47.2628 12.9907V21.7578H43.9868V5.37624H46.2593L46.9086 7.65147C47.5186 6.82227 48.2957 6.1751 49.2402 5.70994C50.2043 5.24479 51.2667 5.01221 52.4276 5.01221Z" fill="#B9C5D1"/>
<path id="Vector_7" d="M38.0473 19.7254C36.4339 21.3433 34.4073 22.1523 31.9676 22.1523C29.5278 22.1523 27.4914 21.3433 25.8583 19.7254C24.2449 18.0872 23.4382 16.0345 23.4382 13.5671C23.4382 11.9492 23.8022 10.4829 24.5302 9.16834C25.2779 7.85377 26.301 6.83245 27.5996 6.10438C28.9179 5.35608 30.3738 4.98193 31.9676 4.98193C33.5613 4.98193 35.0074 5.35608 36.306 6.10438C37.6243 6.83245 38.6474 7.85377 39.3754 9.16834C40.123 10.4829 40.4969 11.9492 40.4969 13.5671C40.4969 16.0345 39.6803 18.0872 38.0473 19.7254ZM31.9676 18.9366C32.971 18.9366 33.8662 18.7142 34.6533 18.2692C35.4403 17.8041 36.0502 17.167 36.4831 16.358C36.9356 15.5288 37.1619 14.5985 37.1619 13.5671C37.1619 12.0098 36.67 10.7256 35.6862 9.71439C34.7221 8.70318 33.4826 8.19758 31.9676 8.19758C30.4525 8.19758 29.2031 8.70318 28.2194 9.71439C27.2553 10.7256 26.7732 12.0098 26.7732 13.5671C26.7732 15.1244 27.2553 16.4086 28.2194 17.4198C29.2031 18.431 30.4525 18.9366 31.9676 18.9366Z" fill="#B9C5D1"/>
<path id="Vector_8" d="M11.3552 22.1217C8.30553 22.1217 5.76739 21.0902 3.74082 19.0274C1.73392 16.9443 0.730469 14.3151 0.730469 11.1399C0.730469 7.96474 1.73392 5.34571 3.74082 3.28284C5.76739 1.19975 8.30553 0.158203 11.3552 0.158203C12.9686 0.158203 14.4639 0.481791 15.8412 1.12896C17.2185 1.77614 18.3695 2.69634 19.2943 3.88957C20.2387 5.08279 20.888 6.46815 21.2421 8.04564H17.8186C17.3267 6.62994 16.5102 5.52773 15.369 4.73898C14.2278 3.93001 12.8899 3.52553 11.3552 3.52553C9.2893 3.52553 7.57753 4.24349 6.21992 5.67941C4.86232 7.11532 4.18351 8.94561 4.18351 11.1703C4.18351 13.3747 4.86232 15.1949 6.21992 16.6308C7.57753 18.0465 9.2893 18.7543 11.3552 18.7543C12.9293 18.7543 14.2967 18.3296 15.4576 17.4802C16.6184 16.6106 17.4251 15.4275 17.8776 13.9309H21.3307C20.7994 16.4185 19.6288 18.4105 17.8186 19.9071C16.0085 21.3835 13.854 22.1217 11.3552 22.1217Z" fill="#B9C5D1"/>
</g>
<g id="Marketing.">
<path id="Vector_9" d="M105.303 42.4418V39.5254H108.04V42.4418H105.303Z" fill="#B9C5D1"/>
<path id="Vector_10" d="M96.2134 46.8059C95.7036 46.8059 95.1871 46.7852 94.6639 46.7439C94.1408 46.7025 93.6511 46.6473 93.195 46.5784V44.5307C93.6779 44.5996 94.1877 44.6548 94.7243 44.6962C95.2743 44.7513 95.7841 44.7789 96.2536 44.7789C97.1927 44.7789 97.9439 44.6548 98.5074 44.4066C99.0842 44.1584 99.5001 43.7723 99.755 43.2483C100.023 42.7381 100.157 42.0693 100.157 41.242V39.0908L100.781 37.6016C100.741 38.6772 100.52 39.5804 100.117 40.3112C99.7281 41.042 99.205 41.5936 98.5476 41.9659C97.9037 42.3382 97.1659 42.5244 96.3341 42.5244C95.5829 42.5244 94.8987 42.3796 94.2816 42.09C93.6645 41.8004 93.1346 41.3936 92.6919 40.8696C92.2492 40.3457 91.9071 39.7458 91.6657 39.0702C91.4242 38.3807 91.3035 37.6499 91.3035 36.8777V36.4847C91.3035 35.6987 91.4242 34.9679 91.6657 34.2922C91.9206 33.6165 92.2761 33.0305 92.7322 32.5341C93.1883 32.0239 93.7316 31.6309 94.3621 31.3551C95.006 31.0793 95.7103 30.9414 96.475 30.9414C97.3604 30.9414 98.1385 31.1413 98.8092 31.5412C99.4934 31.9273 100.03 32.4996 100.419 33.258C100.808 34.0164 101.016 34.9403 101.043 36.0296L100.52 36.0917V31.293H102.391V41.1179C102.391 42.4692 102.176 43.5585 101.747 44.3859C101.331 45.227 100.667 45.8407 99.755 46.2268C98.8562 46.6129 97.6756 46.8059 96.2134 46.8059ZM96.9177 40.3732C97.5079 40.3732 98.0446 40.2422 98.5275 39.9802C99.0239 39.7045 99.4129 39.3184 99.6946 38.8219C99.9897 38.3117 100.137 37.705 100.137 37.0018V36.1537C100.137 35.4643 99.983 34.8851 99.6745 34.4163C99.3794 33.9337 98.9903 33.5683 98.5074 33.32C98.0244 33.0718 97.5012 32.9477 96.9378 32.9477C96.2939 32.9477 95.7237 33.1063 95.2274 33.4235C94.731 33.7268 94.342 34.1612 94.0603 34.7265C93.792 35.2781 93.6578 35.9262 93.6578 36.6708C93.6578 37.4292 93.7987 38.0911 94.0804 38.6565C94.3621 39.208 94.7444 39.6355 95.2274 39.9389C95.7237 40.2284 96.2872 40.3732 96.9177 40.3732Z" fill="#B9C5D1"/>
<path id="Vector_11" d="M79.1179 42.4419V31.2933H80.9893V36.0713H80.768C80.768 34.9682 80.9088 34.0374 81.1905 33.279C81.4857 32.5206 81.9284 31.9483 82.5186 31.5622C83.1089 31.1623 83.84 30.9624 84.712 30.9624H84.8126C86.1541 30.9624 87.1536 31.3968 87.8109 32.2655C88.4682 33.1342 88.7969 34.4028 88.7969 36.0713V42.4419H86.4426V35.7404C86.4426 34.9682 86.2279 34.3477 85.7986 33.8788C85.3693 33.3962 84.7791 33.1549 84.0278 33.1549C83.2632 33.1549 82.6461 33.4031 82.1766 33.8995C81.707 34.3821 81.4723 35.0302 81.4723 35.8438V42.4419H79.1179Z" fill="#B9C5D1"/>
<path id="Vector_12" d="M73.2542 42.4421V31.2935H75.6086V42.4421H73.2542ZM71.6646 33.155V31.2935H75.6086V33.155H71.6646ZM74.0189 29.7422C73.536 29.7422 73.1737 29.6112 72.9323 29.3492C72.7042 29.0872 72.5902 28.7494 72.5902 28.3357C72.5902 27.9358 72.7042 27.6049 72.9323 27.3429C73.1737 27.0671 73.536 26.9292 74.0189 26.9292C74.5153 26.9292 74.8775 27.0671 75.1055 27.3429C75.347 27.6049 75.4677 27.9358 75.4677 28.3357C75.4677 28.7494 75.347 29.0872 75.1055 29.3492C74.8775 29.6112 74.5153 29.7422 74.0189 29.7422Z" fill="#B9C5D1"/>
<path id="Vector_13" d="M68.5519 42.566C67.6531 42.566 66.8951 42.4418 66.278 42.1936C65.6609 41.9454 65.1914 41.518 64.8695 40.9112C64.5609 40.3045 64.4066 39.4841 64.4066 38.4499V28.0459H66.6403V38.6567C66.6403 39.2359 66.7878 39.684 67.0829 40.0012C67.3915 40.3045 67.8208 40.4562 68.3708 40.4562H70.1818V42.566H68.5519ZM62.6157 33.0928V31.2933H70.1818V33.0928H62.6157Z" fill="#B9C5D1"/>
<path id="Vector_14" d="M56.4339 42.8136C55.4949 42.8136 54.6765 42.6481 53.9789 42.3172C53.2814 41.9863 52.7112 41.5519 52.2685 41.0141C51.8258 40.4626 51.4904 39.8489 51.2624 39.1733C51.0477 38.4838 50.9404 37.7805 50.9404 37.0635V36.6705C50.9404 35.9397 51.0477 35.2364 51.2624 34.5608C51.4904 33.8713 51.8258 33.2577 52.2685 32.7199C52.7112 32.1683 53.2679 31.734 53.9387 31.4168C54.6229 31.0859 55.4144 30.9204 56.3132 30.9204C57.4803 30.9204 58.4529 31.1824 59.231 31.7064C60.009 32.2304 60.5926 32.913 60.9816 33.7541C61.3707 34.5814 61.5652 35.4777 61.5652 36.443V37.4151H51.9466V35.7811H59.9755L59.3316 36.6085C59.3316 35.8638 59.2175 35.2226 58.9895 34.6849C58.7614 34.1333 58.4261 33.7127 57.9834 33.4232C57.5407 33.1198 56.9839 32.9681 56.3132 32.9681C55.6156 32.9681 55.032 33.1336 54.5625 33.4645C54.093 33.7955 53.7442 34.2505 53.5161 34.8297C53.2881 35.4088 53.174 36.0914 53.174 36.8774C53.174 37.622 53.2881 38.2907 53.5161 38.8837C53.7442 39.4628 54.0997 39.9248 54.5826 40.2695C55.0656 40.6004 55.6827 40.7659 56.4339 40.7659C57.1852 40.7659 57.8022 40.6004 58.2852 40.2695C58.7681 39.9248 59.0633 39.5249 59.1706 39.0698H61.364C61.2164 39.8282 60.9146 40.4901 60.4584 41.0555C60.0157 41.6208 59.4523 42.0552 58.7681 42.3586C58.084 42.6619 57.3059 42.8136 56.4339 42.8136Z" fill="#B9C5D1"/>
<path id="Vector_15" d="M47.5581 42.442L43.6945 37.2503H42.0042L46.7733 31.2934H49.2685L44.8818 36.7126L44.9824 35.4715L50.2545 42.442H47.5581ZM40.0322 42.442V27.3428H42.3866V42.442H40.0322Z" fill="#B9C5D1"/>
<path id="Vector_16" d="M31.7002 42.4416V31.293H33.5716V35.9469H33.4911C33.4911 34.3474 33.8332 33.1546 34.5174 32.3686C35.2015 31.5688 36.2144 31.1689 37.5559 31.1689H37.9382V33.2994H37.2138C36.1943 33.2994 35.4095 33.5821 34.8595 34.1474C34.3228 34.699 34.0545 35.4919 34.0545 36.5261V42.4416H31.7002Z" fill="#B9C5D1"/>
<path id="Vector_17" d="M26.5477 42.4418V39.1117H26.1653V35.3473C26.1653 34.6578 25.9909 34.1338 25.6422 33.7753C25.2934 33.4168 24.7769 33.2375 24.0927 33.2375C23.7171 33.2375 23.3012 33.2444 22.8451 33.2582C22.389 33.272 21.9396 33.2927 21.4969 33.3202C21.0676 33.334 20.6853 33.3547 20.3499 33.3823V31.2932C20.645 31.2656 20.967 31.245 21.3158 31.2312C21.678 31.2036 22.0469 31.1829 22.4225 31.1691C22.8116 31.1553 23.1805 31.1484 23.5293 31.1484C24.6293 31.1484 25.5415 31.2932 26.266 31.5828C26.9904 31.8724 27.527 32.3343 27.8758 32.9686C28.238 33.5891 28.4191 34.4234 28.4191 35.4714V42.4418H26.5477ZM23.0262 42.7314C22.2347 42.7314 21.5438 42.5935 20.9536 42.3177C20.3633 42.0281 19.9072 41.6145 19.5852 41.0767C19.2633 40.5251 19.1023 39.8701 19.1023 39.1117C19.1023 38.3119 19.2834 37.6501 19.6456 37.1261C20.0212 36.6021 20.5511 36.2091 21.2353 35.9471C21.9195 35.6851 22.7378 35.5541 23.6903 35.5541H26.4068V37.1467H23.6299C22.9189 37.1467 22.3756 37.326 22 37.6845C21.6243 38.0293 21.4365 38.4843 21.4365 39.0497C21.4365 39.615 21.6243 40.0701 22 40.4148C22.3756 40.7457 22.9189 40.9112 23.6299 40.9112C24.0458 40.9112 24.4415 40.8354 24.8171 40.6837C25.1927 40.5182 25.5013 40.2493 25.7428 39.877C25.9977 39.5047 26.1385 38.9807 26.1653 38.305L26.769 39.1117C26.7019 39.8977 26.5141 40.5596 26.2056 41.0974C25.9105 41.6214 25.4946 42.0281 24.958 42.3177C24.4348 42.5935 23.7909 42.7314 23.0262 42.7314Z" fill="#B9C5D1"/>
<path id="Vector_18" d="M1.40381 42.442V27.3428H4.66368L8.68821 36.878H9.03029L13.0146 27.3428H16.3147V42.442H13.9201V29.5559L14.1616 29.5973L10.0968 39.3394H7.4406L3.33558 29.5973L3.6173 29.5559V42.442H1.40381Z" fill="#B9C5D1"/>
</g>
</g>
</g>
</svg>
