<svg width="167" height="65" viewBox="0 0 167 65" fill="none" xmlns="http://www.w3.org/2000/svg">
<g id="Group">
<g id="Group_2">
<g id="Group_3">
<path id="Vector" d="M0.944824 25.2414L1.01684 14.4871C3.96947 17.1859 8.16351 18.5714 13.0846 18.5714C16.5482 18.5714 19.0653 17.8409 19.0653 16.6407C19.0653 15.2552 16.6579 16.092 12.6833 16.1674C7.54281 16.2772 1.49008 14.2367 1.49008 9.09279C1.49008 3.66077 7.43307 0.817871 15.1627 0.817871C19.1373 0.817871 23.5131 1.65805 25.9925 2.56682V11.5722C24.2435 10.3685 20.8897 9.53174 17.3506 9.53174C13.959 9.53174 10.7869 10.077 10.7869 11.2464C10.7869 12.5221 13.959 11.9768 18.1531 11.9014C23.0398 11.7916 28.5096 13.6503 28.5096 18.8286C28.5096 24.4801 22.4191 27.4327 14.5832 27.4327C10.6429 27.4293 4.48044 26.3731 0.944824 25.2414Z" fill="#B9C5D1"/>
</g>
<g id="Group_4">
<path id="Vector_2" d="M42.5841 0.522949H43.9319L60.3754 26.884H47.5772L46.593 24.8436H39.9196L38.9354 26.884H26.1406L42.5841 0.522949ZM45.211 22.035L43.4243 18.5714H43.1328L41.3084 22.035H45.211Z" fill="#B9C5D1"/>
</g>
<g id="Group_5">
<path id="Vector_3" d="M60.8901 1.35986H72.0457V12.4091H76.0202V1.35986H87.2512V26.8808H76.0202V15.907H72.0457V26.8808H60.8901V1.35986Z" fill="#B9C5D1"/>
</g>
<g id="Group_6">
<path id="Vector_4" d="M93.5236 16.5654L94.4358 10.0017H88.7466V1.35986H112.374V10.0017H105.447L104.717 13.6128C104.425 15.5812 105.773 16.8569 107.851 16.8569C109.127 16.8569 110.55 16.3459 111.497 15.4715L111.644 25.6085C110.149 26.555 107.087 27.4329 104.861 27.4329C97.8239 27.4294 92.8686 23.4549 93.5236 16.5654Z" fill="#B9C5D1"/>
</g>
<g id="Group_7">
<path id="Vector_5" d="M113.942 1.35986H135.053V10.2932H125.098V12.3714H136.511V15.7629H125.098V17.9131H137.749V26.8842H113.942V1.35986Z" fill="#B9C5D1"/>
</g>
<g id="Group_8">
<path id="Vector_6" d="M150.405 18.4617L150.223 18.5714V26.884H139.65V0.522949H140.635L155.219 9.85752L155.439 9.74779V1.36313H166.011V27.7242H164.99L150.405 18.4617Z" fill="#B9C5D1"/>
</g>
</g>
<g id="Group_9">
<g id="Group_10">
<g id="Group_11">
<path id="Vector_7" d="M105.906 51.4993H61.0509C56.3871 51.4993 52.5908 47.703 52.5908 43.0392C52.5908 38.3753 56.3871 34.5791 61.0509 34.5791H105.906C110.57 34.5791 114.366 38.3753 114.366 43.0392C114.366 47.703 110.57 51.4993 105.906 51.4993ZM61.0475 36.6367C57.5187 36.6367 54.645 39.5104 54.645 43.0392C54.645 46.5679 57.5187 49.4417 61.0475 49.4417H105.903C109.432 49.4417 112.305 46.5679 112.305 43.0392C112.305 39.5104 109.432 36.6367 105.903 36.6367H61.0475Z" fill="#B9C5D1"/>
</g>
</g>
<g id="Group_12">
<path id="Vector_8" d="M53.616 42.0098H1.97412V44.0673H53.616V42.0098Z" fill="#B9C5D1"/>
</g>
<g id="Group_13">
<path id="Vector_9" d="M164.979 42.0098H113.337V44.0673H164.979V42.0098Z" fill="#B9C5D1"/>
</g>
<g id="Group_14">
<g id="Group_15">
<path id="Vector_10" d="M164.98 51.5003C164.411 51.5003 163.951 51.0407 163.951 50.4715V35.6089C163.951 35.0396 164.411 34.5801 164.98 34.5801C165.549 34.5801 166.009 35.0396 166.009 35.6089V50.4715C166.009 51.0407 165.549 51.5003 164.98 51.5003Z" fill="#B9C5D1"/>
</g>
</g>
<g id="Group_16">
<g id="Group_17">
<path id="Vector_11" d="M1.97362 51.4993C1.40435 51.4993 0.944824 51.0398 0.944824 50.4705V35.6079C0.944824 35.0386 1.40435 34.5791 1.97362 34.5791C2.54288 34.5791 3.00241 35.0386 3.00241 35.6079V50.4705C3.00241 51.0398 2.54288 51.4993 1.97362 51.4993Z" fill="#B9C5D1"/>
</g>
</g>
<g id="Group_18">
<g id="Group_19">
<path id="Vector_12" d="M71.2805 48.56C69.216 48.56 67.5356 46.8797 67.5356 44.8152V42.9085C67.5356 42.4456 67.9094 42.0718 68.3724 42.0718C68.8354 42.0718 69.2091 42.4456 69.2091 42.9085V44.8152C69.2091 45.9572 70.1385 46.89 71.2839 46.89C72.4258 46.89 73.3517 45.9606 73.3517 44.8152V42.9085C73.3517 42.4456 73.7255 42.0718 74.1885 42.0718C74.6515 42.0718 75.0253 42.4456 75.0253 42.9085V44.8152C75.0218 46.8797 73.3415 48.56 71.2805 48.56Z" fill="#B9C5D1"/>
</g>
<g id="Group_20">
<path id="Vector_13" d="M77.0731 46.1528C76.6101 46.1528 76.2363 45.779 76.2363 45.3161C76.2363 44.8531 76.6101 44.4793 77.0731 44.4793C78.215 44.4793 79.1409 43.55 79.1409 42.4046V40.4979C79.1409 40.0349 79.5147 39.6611 79.9777 39.6611C80.4407 39.6611 80.8144 40.0349 80.8144 40.4979V42.4046C80.8144 44.4724 79.1375 46.1528 77.0731 46.1528Z" fill="#B9C5D1"/>
</g>
<g id="Group_21">
<g id="Group_22">
<path id="Vector_14" d="M75.5956 46.8463L74.7178 47.7241L75.5956 48.6019L76.4734 47.7241L75.5956 46.8463Z" fill="#B9C5D1"/>
</g>
<g id="Group_23">
<path id="Vector_15" d="M77.4584 46.8463L76.5806 47.7241L77.4584 48.6019L78.3362 47.7241L77.4584 46.8463Z" fill="#B9C5D1"/>
</g>
</g>
<g id="Group_24">
<g id="Group_25">
<path id="Vector_16" d="M79.0443 37.4762L78.1665 38.354L79.0443 39.2318L79.9221 38.354L79.0443 37.4762Z" fill="#B9C5D1"/>
</g>
<g id="Group_26">
<path id="Vector_17" d="M80.9066 37.4782L80.0288 38.356L80.9066 39.2338L81.7844 38.356L80.9066 37.4782Z" fill="#B9C5D1"/>
</g>
</g>
<g id="Group_27">
<path id="Vector_18" d="M71.2777 41.1539L70.3999 42.0317L71.2777 42.9095L72.1555 42.0317L71.2777 41.1539Z" fill="#B9C5D1"/>
</g>
<g id="Group_28">
<path id="Vector_19" d="M81.3492 46.1528H74.1888C73.7258 46.1528 73.3521 45.779 73.3521 45.3161C73.3521 44.8531 73.7258 44.4793 74.1888 44.4793C75.3308 44.4793 76.2567 43.55 76.2567 42.4046V40.4979C76.2567 40.0349 76.6305 39.6611 77.0934 39.6611C77.5564 39.6611 77.9302 40.0349 77.9302 40.4979V42.4046C77.9302 43.1693 77.7004 43.886 77.3026 44.4793H81.2429L85.9582 43.2516C85.6804 42.1508 84.679 41.3312 83.4891 41.3312H81.8602C81.3972 41.3312 81.0234 40.9574 81.0234 40.4945C81.0234 40.0315 81.3972 39.6577 81.8602 39.6577H83.4891C85.8141 39.6577 87.7037 41.5507 87.7037 43.8723C87.7037 44.253 87.4465 44.5856 87.0796 44.6816L81.5549 46.1185C81.4898 46.1425 81.4212 46.1528 81.3492 46.1528Z" fill="#B9C5D1"/>
</g>
<g id="Group_29">
<g id="Group_30">
<path id="Vector_20" d="M86.8704 46.1529C86.4075 46.1529 86.0337 45.7791 86.0337 45.3161C86.0337 44.8532 86.4075 44.4794 86.8704 44.4794C88.0124 44.4794 88.9383 43.55 88.9383 42.4046C88.9383 41.9417 89.3121 41.5679 89.7751 41.5679C90.238 41.5679 90.6118 41.9417 90.6118 42.4046C90.6118 44.4725 88.9349 46.1529 86.8704 46.1529Z" fill="#B9C5D1"/>
</g>
<g id="Group_31">
<path id="Vector_21" d="M89.4385 46.1537C89.4351 46.1537 89.4282 46.1537 89.4248 46.1537H86.8734C86.4104 46.1537 86.0366 45.7799 86.0366 45.3169V43.8801C86.0366 43.4171 86.4104 43.0433 86.8734 43.0433C87.3363 43.0433 87.7101 43.4171 87.7101 43.8801V44.4802H89.2019L95.0591 40.8623C95.5255 40.5776 96.0433 40.4302 96.5612 40.4302C98.1352 40.4302 99.4178 41.7127 99.4178 43.2936C99.4178 44.8711 98.1352 46.1537 96.5612 46.1537H89.4522C89.4488 46.1537 89.4419 46.1537 89.4385 46.1537ZM92.3774 44.4836H96.5577C97.2127 44.4836 97.7443 43.9486 97.7443 43.2936C97.7443 42.5563 97.127 42.1037 96.5577 42.1037C96.3485 42.1037 96.1291 42.1688 95.9302 42.2889L92.3774 44.4836Z" fill="#B9C5D1"/>
</g>
</g>
</g>
</g>
<g id="Group_32">
<g id="Group_33">
<path id="Vector_22" d="M1.60681 64.4248C1.43535 64.4248 1.28789 64.3836 1.17129 64.3047C1.0547 64.2224 0.98268 64.1127 0.955246 63.9687C0.927811 63.8281 0.951816 63.6669 1.03069 63.4886L3.11228 59.0065C3.21173 58.7904 3.33518 58.6292 3.48607 58.5298C3.63353 58.4303 3.80157 58.3789 3.99361 58.3789C4.18222 58.3789 4.35026 58.4303 4.49086 58.5298C4.63146 58.6292 4.75835 58.7904 4.86465 59.0065L6.94624 63.4886C7.0354 63.6669 7.06627 63.8281 7.04226 63.9721C7.01826 64.1161 6.94624 64.2293 6.83307 64.3082C6.71991 64.387 6.57931 64.4248 6.41127 64.4248C6.18837 64.4248 6.0169 64.3733 5.89687 64.2739C5.77685 64.1744 5.67054 64.0133 5.57452 63.7903L5.12185 62.7273L5.70826 63.1525H2.26181L2.85508 62.7273L2.40241 63.7903C2.30296 64.0133 2.20008 64.1744 2.09377 64.2739C1.98747 64.3733 1.82629 64.4248 1.60681 64.4248ZM3.97646 60.0593L3.00597 62.3775L2.77278 61.9762H5.20758L4.97439 62.3775L3.99704 60.0593H3.97646Z" fill="#B9C5D1"/>
<path id="Vector_23" d="M8.49378 64.3501C8.24687 64.3501 8.05826 64.2815 7.92109 64.1443C7.78392 64.0072 7.71533 63.8151 7.71533 63.5716V59.2233C7.71533 58.9729 7.78049 58.7809 7.91766 58.6472C8.0514 58.5134 8.24002 58.4448 8.48693 58.4448C8.73726 58.4448 8.92931 58.51 9.05962 58.6472C9.18993 58.7809 9.25509 58.9729 9.25509 59.2233V63.071H11.2955C11.5081 63.071 11.6693 63.1258 11.7859 63.2356C11.8991 63.3453 11.9574 63.503 11.9574 63.7088C11.9574 63.9146 11.8991 64.0757 11.7859 64.1855C11.6728 64.2986 11.5081 64.3535 11.2955 64.3535H8.49378V64.3501Z" fill="#B9C5D1"/>
<path id="Vector_24" d="M13.3873 64.3501C13.1404 64.3501 12.9518 64.2815 12.8146 64.1443C12.6775 64.0072 12.6089 63.8151 12.6089 63.5716V59.2233C12.6089 58.9729 12.674 58.7809 12.8112 58.6472C12.945 58.5134 13.1336 58.4448 13.3805 58.4448C13.6308 58.4448 13.8229 58.51 13.9532 58.6472C14.0835 58.7809 14.1486 58.9729 14.1486 59.2233V63.071H16.1891C16.4017 63.071 16.5629 63.1258 16.6795 63.2356C16.7926 63.3453 16.8509 63.503 16.8509 63.7088C16.8509 63.9146 16.7926 64.0757 16.6795 64.1855C16.5663 64.2986 16.4017 64.3535 16.1891 64.3535H13.3873V64.3501Z" fill="#B9C5D1"/>
<path id="Vector_25" d="M22.0525 64.4248C21.8056 64.4248 21.617 64.3562 21.4832 64.219C21.3495 64.0819 21.2809 63.8864 21.2809 63.6292V61.3384L21.5998 62.182L19.676 59.4146C19.58 59.2808 19.5422 59.1299 19.556 58.9688C19.5697 58.8042 19.6383 58.6636 19.7583 58.5504C19.8783 58.4372 20.0498 58.3789 20.2727 58.3789C20.4304 58.3789 20.571 58.4166 20.6979 58.4921C20.8248 58.5675 20.9448 58.6944 21.058 58.8727L22.2274 60.5942H21.9256L23.095 58.8625C23.2116 58.6841 23.3316 58.5572 23.4551 58.4852C23.5785 58.4132 23.7226 58.3755 23.8906 58.3755C24.1032 58.3755 24.2678 58.4269 24.3844 58.5332C24.501 58.6395 24.5627 58.7733 24.573 58.9345C24.5799 59.0956 24.5284 59.2603 24.4187 59.4283L22.512 62.182L22.8206 61.3384V63.6292C22.8206 64.1607 22.5635 64.4248 22.0525 64.4248Z" fill="#B9C5D1"/>
<path id="Vector_26" d="M27.7897 64.442C27.193 64.442 26.6683 64.3151 26.2156 64.0613C25.763 63.8076 25.4132 63.4509 25.1663 62.9948C24.9194 62.5387 24.7925 62.0037 24.7925 61.3968C24.7925 60.9407 24.8645 60.5257 25.0051 60.1519C25.1457 59.7781 25.3515 59.4592 25.6155 59.1883C25.8796 58.9208 26.1985 58.715 26.5654 58.5744C26.9324 58.4338 27.3405 58.3618 27.7863 58.3618C28.383 58.3618 28.9042 58.4887 29.3535 58.739C29.8027 58.9894 30.1525 59.3426 30.4028 59.7987C30.6532 60.2548 30.78 60.7863 30.78 61.4002C30.78 61.8563 30.708 62.2747 30.5674 62.645C30.4268 63.0188 30.2211 63.3412 29.957 63.6121C29.693 63.883 29.374 64.0888 29.0071 64.2294C28.6436 64.37 28.2355 64.442 27.7897 64.442ZM27.7897 63.1526C28.0846 63.1526 28.335 63.084 28.5441 62.9434C28.7499 62.8028 28.9076 62.6039 29.0208 62.3398C29.134 62.0792 29.1888 61.7637 29.1888 61.3933C29.1888 60.8412 29.0654 60.4125 28.8219 60.1039C28.575 59.7987 28.2321 59.6444 27.7931 59.6444C27.5016 59.6444 27.2547 59.713 27.0455 59.8501C26.8363 59.9873 26.6752 60.1862 26.5654 60.4434C26.4523 60.704 26.3974 61.0195 26.3974 61.3933C26.3974 61.9454 26.5209 62.3775 26.7643 62.6862C27.0078 62.9982 27.3507 63.1526 27.7897 63.1526Z" fill="#B9C5D1"/>
<path id="Vector_27" d="M34.3066 64.4419C33.878 64.4419 33.4973 64.3871 33.1681 64.2773C32.8389 64.1676 32.5611 64.0064 32.3348 63.7869C32.1084 63.5709 31.9404 63.2966 31.8238 62.9708C31.7106 62.645 31.6523 62.2678 31.6523 61.8357V59.1505C31.6523 58.8933 31.7209 58.7013 31.8547 58.5675C31.9884 58.4372 32.177 58.3721 32.4239 58.3721C32.6743 58.3721 32.8663 58.4372 32.9966 58.5675C33.1269 58.6979 33.1921 58.8933 33.1921 59.1505V61.8528C33.1921 62.2815 33.2881 62.6073 33.4767 62.8233C33.6653 63.0394 33.9431 63.1491 34.3032 63.1491C34.6598 63.1491 34.9342 63.0394 35.1228 62.8233C35.3114 62.6073 35.4074 62.2815 35.4074 61.8528V59.1505C35.4074 58.8933 35.4726 58.7013 35.6029 58.5675C35.7332 58.4372 35.9218 58.3721 36.1687 58.3721C36.4156 58.3721 36.6008 58.4372 36.7277 58.5675C36.8546 58.6979 36.9198 58.8933 36.9198 59.1505V61.8357C36.9198 62.4118 36.8203 62.8919 36.6214 63.2794C36.4225 63.6669 36.1276 63.9584 35.7401 64.1505C35.356 64.3459 34.8759 64.4419 34.3066 64.4419Z" fill="#B9C5D1"/>
<path id="Vector_28" d="M41.0644 64.4248C40.8312 64.4248 40.6529 64.3631 40.5294 64.2396C40.406 64.1161 40.3442 63.9344 40.3442 63.6943V59.1368C40.3442 58.8899 40.406 58.7047 40.5294 58.571C40.6529 58.4406 40.8141 58.3755 41.013 58.3755C41.1913 58.3755 41.3319 58.4098 41.4313 58.4749C41.5308 58.5435 41.6439 58.6533 41.7674 58.811L44.4183 62.1237H44.1851V59.0956C44.1851 58.8625 44.2434 58.6841 44.3634 58.5607C44.4834 58.4372 44.6617 58.3755 44.8949 58.3755C45.1281 58.3755 45.3064 58.4372 45.4265 58.5607C45.5465 58.6841 45.6048 58.8625 45.6048 59.0956V63.7286C45.6048 63.9413 45.5499 64.1093 45.4368 64.2362C45.3236 64.3631 45.1761 64.4248 44.9841 64.4248C44.7955 64.4248 44.6446 64.3905 44.5383 64.3219C44.4285 64.2533 44.3154 64.1436 44.1919 63.9927L41.5411 60.6731H41.7743V63.7012C41.7743 63.9413 41.716 64.123 41.5959 64.2465C41.4759 64.3631 41.2976 64.4248 41.0644 64.4248Z" fill="#B9C5D1"/>
<path id="Vector_29" d="M47.4875 64.3496C47.2269 64.3496 47.0246 64.281 46.8908 64.1438C46.7536 64.0066 46.6851 63.8112 46.6851 63.554V59.2468C46.6851 58.9896 46.7536 58.7941 46.8908 58.6569C47.028 58.5198 47.2269 58.4512 47.4875 58.4512H50.3236C50.5259 58.4512 50.6733 58.5026 50.7762 58.6021C50.8757 58.7015 50.9271 58.849 50.9271 59.0376C50.9271 59.2331 50.8757 59.3805 50.7762 59.4834C50.6768 59.5863 50.5259 59.6377 50.3236 59.6377H48.1562V60.7591H50.1384C50.3338 60.7591 50.4813 60.8105 50.5842 60.91C50.6871 61.0094 50.7385 61.1569 50.7385 61.3524C50.7385 61.5478 50.6871 61.6953 50.5842 61.7947C50.4813 61.8942 50.3304 61.9456 50.1384 61.9456H48.1562V63.1596H50.3236C50.5259 63.1596 50.6733 63.211 50.7762 63.3139C50.8757 63.4168 50.9271 63.5643 50.9271 63.7529C50.9271 63.9483 50.8757 64.0958 50.7762 64.1953C50.6768 64.2947 50.5259 64.3461 50.3236 64.3461H47.4875V64.3496Z" fill="#B9C5D1"/>
<path id="Vector_30" d="M52.6262 64.3496C52.3656 64.3496 52.1632 64.281 52.0295 64.1438C51.8923 64.0066 51.8237 63.8112 51.8237 63.554V59.2468C51.8237 58.9896 51.8923 58.7941 52.0295 58.6569C52.1667 58.5198 52.3656 58.4512 52.6262 58.4512H55.4622C55.6646 58.4512 55.812 58.5026 55.9149 58.6021C56.0143 58.7015 56.0658 58.849 56.0658 59.0376C56.0658 59.2331 56.0143 59.3805 55.9149 59.4834C55.8154 59.5863 55.6646 59.6377 55.4622 59.6377H53.2949V60.7591H55.277C55.4725 60.7591 55.62 60.8105 55.7228 60.91C55.8257 61.0094 55.8772 61.1569 55.8772 61.3524C55.8772 61.5478 55.8257 61.6953 55.7228 61.7947C55.62 61.8942 55.4691 61.9456 55.277 61.9456H53.2949V63.1596H55.4622C55.6646 63.1596 55.812 63.211 55.9149 63.3139C56.0143 63.4168 56.0658 63.5643 56.0658 63.7529C56.0658 63.9483 56.0143 64.0958 55.9149 64.1953C55.8154 64.2947 55.6646 64.3461 55.4622 64.3461H52.6262V64.3496Z" fill="#B9C5D1"/>
<path id="Vector_31" d="M57.7619 64.3496C57.5013 64.3496 57.299 64.281 57.1652 64.1438C57.0281 64.0066 56.9595 63.8112 56.9595 63.554V59.2468C56.9595 58.9896 57.0281 58.7941 57.1652 58.6569C57.3024 58.5198 57.5013 58.4512 57.7619 58.4512H59.4011C60.4265 58.4512 61.2221 58.7084 61.7811 59.2193C62.3401 59.7337 62.6213 60.4573 62.6213 61.3935C62.6213 61.8633 62.5492 62.2783 62.4052 62.6452C62.2612 63.0122 62.052 63.3208 61.7776 63.5746C61.5033 63.8283 61.1672 64.0204 60.7694 64.1507C60.3716 64.281 59.9155 64.3461 59.4011 64.3461H57.7619V64.3496ZM58.4958 63.1013H59.2983C59.5932 63.1013 59.8504 63.0636 60.063 62.9916C60.279 62.9196 60.4574 62.8132 60.598 62.6726C60.7386 62.532 60.8449 62.3571 60.9169 62.1445C60.9855 61.9319 61.0232 61.6816 61.0232 61.3901C61.0232 60.8105 60.8826 60.3819 60.598 60.1075C60.3133 59.8332 59.8812 59.6926 59.3017 59.6926H58.4992V63.1013H58.4958Z" fill="#B9C5D1"/>
<path id="Vector_32" d="M66.7033 64.425C66.4563 64.425 66.2677 64.3564 66.1306 64.2193C65.9934 64.0821 65.9248 63.8866 65.9248 63.6294V59.2468C65.9248 58.9896 65.9934 58.7941 66.1306 58.6569C66.2677 58.5198 66.4666 58.4512 66.7273 58.4512H69.5119C69.7142 58.4512 69.8616 58.5026 69.9645 58.6021C70.064 58.7015 70.1154 58.849 70.1154 59.0376C70.1154 59.2331 70.064 59.3805 69.9645 59.4834C69.8651 59.5863 69.7142 59.6377 69.5119 59.6377H67.4611V60.8243H69.3267C69.5221 60.8243 69.6696 60.8757 69.7725 60.9751C69.8754 61.0746 69.9268 61.2221 69.9268 61.4107C69.9268 61.6061 69.8754 61.7536 69.7725 61.853C69.6696 61.9525 69.5187 62.0039 69.3267 62.0039H67.4611V63.626C67.4646 64.161 67.2108 64.425 66.7033 64.425Z" fill="#B9C5D1"/>
<path id="Vector_33" d="M73.5446 64.442C72.9479 64.442 72.4232 64.3151 71.9705 64.0613C71.5179 63.8076 71.1681 63.4509 70.9212 62.9948C70.6742 62.5387 70.5474 62.0037 70.5474 61.3968C70.5474 60.9407 70.6194 60.5257 70.76 60.1519C70.9006 59.7781 71.1063 59.4592 71.3704 59.1883C71.6345 58.9208 71.9534 58.715 72.3203 58.5744C72.6872 58.4338 73.0953 58.3618 73.5411 58.3618C74.1378 58.3618 74.6591 58.4887 75.1083 58.739C75.5576 58.9894 75.9074 59.3426 76.1577 59.7987C76.408 60.2548 76.5349 60.7863 76.5349 61.4002C76.5349 61.8563 76.4629 62.2747 76.3223 62.645C76.1817 63.0188 75.976 63.3412 75.7119 63.6121C75.4478 63.883 75.1289 64.0888 74.762 64.2294C74.3985 64.37 73.9938 64.442 73.5446 64.442ZM73.5446 63.1526C73.8395 63.1526 74.0898 63.084 74.299 62.9434C74.5048 62.8028 74.6625 62.6039 74.7757 62.3398C74.8889 62.0792 74.9437 61.7637 74.9437 61.3933C74.9437 60.8412 74.8203 60.4125 74.5768 60.1039C74.3299 59.7987 73.987 59.6444 73.548 59.6444C73.2565 59.6444 73.0096 59.713 72.8004 59.8501C72.5912 59.9873 72.4301 60.1862 72.3203 60.4434C72.2071 60.704 72.1523 61.0195 72.1523 61.3933C72.1523 61.9454 72.2757 62.3775 72.5192 62.6862C72.7627 62.9982 73.1056 63.1526 73.5446 63.1526Z" fill="#B9C5D1"/>
<path id="Vector_34" d="M78.2223 64.425C77.9754 64.425 77.7868 64.3564 77.653 64.2193C77.5193 64.0821 77.4507 63.8935 77.4507 63.6466V59.2296C77.4507 58.9793 77.5193 58.7872 77.6564 58.6535C77.7936 58.5198 77.9857 58.4512 78.2291 58.4512H80.2867C80.9554 58.4512 81.4733 58.6158 81.8368 58.9416C82.2003 59.2673 82.3855 59.72 82.3855 60.2996C82.3855 60.6734 82.3031 60.9991 82.1385 61.2735C81.9739 61.5478 81.7373 61.7604 81.4287 61.9079C81.12 62.0554 80.7394 62.1308 80.2867 62.1308L80.3519 61.9799H80.7531C80.9932 61.9799 81.2058 62.0382 81.3875 62.1514C81.5727 62.2646 81.7236 62.4395 81.8471 62.6726L82.2654 63.4271C82.3546 63.5883 82.3957 63.746 82.3923 63.9003C82.3855 64.0547 82.3272 64.1781 82.214 64.2776C82.1008 64.3736 81.9328 64.425 81.7167 64.425C81.5007 64.425 81.3224 64.3804 81.1852 64.2913C81.048 64.2021 80.928 64.0615 80.8217 63.8729L80.0604 62.4772C79.9952 62.3537 79.9095 62.268 79.8066 62.2234C79.7037 62.1754 79.5837 62.1514 79.45 62.1514H78.9904V63.65C78.9904 63.8969 78.9253 64.0855 78.7984 64.2227C78.6715 64.3564 78.4795 64.425 78.2223 64.425ZM78.9904 61.0609H80.0124C80.3073 61.0609 80.5336 61.0026 80.6914 60.886C80.8491 60.7694 80.9246 60.5876 80.9246 60.3407C80.9246 60.1075 80.8457 59.9292 80.6914 59.8092C80.5336 59.6891 80.3107 59.6309 80.0124 59.6309H78.9904V61.0609Z" fill="#B9C5D1"/>
<path id="Vector_35" d="M86.0272 64.4248C85.8558 64.4248 85.7083 64.3836 85.5917 64.3047C85.4751 64.2224 85.4031 64.1127 85.3757 63.9687C85.3482 63.8281 85.3722 63.6669 85.4511 63.4886L87.5327 59.0065C87.6321 58.7904 87.7556 58.6292 87.9065 58.5298C88.0539 58.4303 88.222 58.3789 88.414 58.3789C88.6026 58.3789 88.7707 58.4303 88.9113 58.5298C89.0519 58.6292 89.1788 58.7904 89.2851 59.0065L91.3667 63.4886C91.4558 63.6669 91.4867 63.8281 91.4627 63.9721C91.4387 64.1161 91.3667 64.2293 91.2535 64.3082C91.1403 64.387 90.9997 64.4248 90.8317 64.4248C90.6088 64.4248 90.4373 64.3733 90.3173 64.2739C90.1973 64.1744 90.091 64.0133 89.9949 63.7903L89.5423 62.7273L90.1287 63.1525H86.6788L87.2721 62.7273L86.8194 63.7903C86.7199 64.0133 86.6171 64.1744 86.5108 64.2739C86.4044 64.3733 86.2433 64.4248 86.0272 64.4248ZM88.3934 60.0593L87.423 62.3775L87.1898 61.9762H89.6246L89.3914 62.3775L88.414 60.0593H88.3934Z" fill="#B9C5D1"/>
<path id="Vector_36" d="M95.3269 64.3496C95.0662 64.3496 94.8639 64.281 94.7302 64.1438C94.593 64.0066 94.5244 63.8112 94.5244 63.554V59.2468C94.5244 58.9896 94.593 58.7941 94.7302 58.6569C94.8673 58.5198 95.0662 58.4512 95.3269 58.4512H96.9661C97.9914 58.4512 98.787 58.7084 99.346 59.2193C99.905 59.7337 100.186 60.4573 100.186 61.3935C100.186 61.8633 100.114 62.2783 99.9702 62.6452C99.8261 63.0122 99.6169 63.3208 99.3426 63.5746C99.0682 63.8283 98.7322 64.0204 98.3344 64.1507C97.9366 64.281 97.4805 64.3461 96.9661 64.3461H95.3269V64.3496ZM96.0642 63.1013H96.8666C97.1615 63.1013 97.4187 63.0636 97.6314 62.9916C97.8474 62.9196 98.0257 62.8132 98.1663 62.6726C98.3069 62.532 98.4132 62.3571 98.4853 62.1445C98.5538 61.9319 98.5916 61.6816 98.5916 61.3901C98.5916 60.8105 98.451 60.3819 98.1663 60.1075C97.8817 59.8332 97.4496 59.6926 96.8701 59.6926H96.0676V63.1013H96.0642Z" fill="#B9C5D1"/>
<path id="Vector_37" d="M101.901 64.3496C101.64 64.3496 101.438 64.281 101.304 64.1438C101.167 64.0066 101.099 63.8112 101.099 63.554V59.2468C101.099 58.9896 101.167 58.7941 101.304 58.6569C101.442 58.5198 101.64 58.4512 101.901 58.4512H104.737C104.939 58.4512 105.087 58.5026 105.19 58.6021C105.289 58.7015 105.341 58.849 105.341 59.0376C105.341 59.2331 105.289 59.3805 105.19 59.4834C105.09 59.5863 104.939 59.6377 104.737 59.6377H102.57V60.7591H104.552C104.747 60.7591 104.895 60.8105 104.998 60.91C105.101 61.0094 105.152 61.1569 105.152 61.3524C105.152 61.5478 105.101 61.6953 104.998 61.7947C104.895 61.8942 104.744 61.9456 104.552 61.9456H102.57V63.1596H104.737C104.939 63.1596 105.087 63.211 105.19 63.3139C105.289 63.4168 105.341 63.5643 105.341 63.7529C105.341 63.9483 105.289 64.0958 105.19 64.1953C105.09 64.2947 104.939 64.3461 104.737 64.3461H101.901V64.3496Z" fill="#B9C5D1"/>
<path id="Vector_38" d="M107.014 64.3501C106.767 64.3501 106.579 64.2815 106.442 64.1443C106.304 64.0072 106.236 63.8151 106.236 63.5716V59.2233C106.236 58.9729 106.301 58.7809 106.438 58.6472C106.572 58.5134 106.761 58.4448 107.007 58.4448C107.258 58.4448 107.45 58.51 107.58 58.6472C107.71 58.7809 107.776 58.9729 107.776 59.2233V63.071H109.816C110.029 63.071 110.19 63.1258 110.306 63.2356C110.423 63.3453 110.478 63.503 110.478 63.7088C110.478 63.9146 110.42 64.0757 110.306 64.1855C110.193 64.2986 110.029 64.3535 109.816 64.3535H107.014V64.3501Z" fill="#B9C5D1"/>
<path id="Vector_39" d="M111.898 64.4248C111.651 64.4248 111.462 64.3562 111.328 64.219C111.195 64.0819 111.126 63.8898 111.126 63.6361V59.1608C111.126 58.9036 111.191 58.7081 111.328 58.5744C111.462 58.4407 111.651 58.3721 111.898 58.3721C112.148 58.3721 112.34 58.4407 112.47 58.5744C112.601 58.7081 112.666 58.9036 112.666 59.1608V63.6361C112.666 63.8864 112.601 64.0819 112.474 64.219C112.347 64.3562 112.155 64.4248 111.898 64.4248Z" fill="#B9C5D1"/>
<path id="Vector_40" d="M116.716 64.442C116.064 64.442 115.502 64.3151 115.036 64.0648C114.566 63.8144 114.209 63.4612 113.962 63.0017C113.715 62.5456 113.588 62.0106 113.588 61.3968C113.588 60.9407 113.66 60.5257 113.801 60.1519C113.942 59.7781 114.151 59.4592 114.422 59.1883C114.693 58.9208 115.022 58.715 115.409 58.5744C115.797 58.4338 116.232 58.3618 116.719 58.3618C116.977 58.3618 117.241 58.3927 117.518 58.451C117.793 58.5093 118.04 58.5984 118.249 58.715C118.407 58.7973 118.513 58.9037 118.575 59.034C118.636 59.1609 118.657 59.2946 118.636 59.4283C118.616 59.5621 118.568 59.6821 118.489 59.7884C118.41 59.8947 118.311 59.9667 118.187 60.001C118.064 60.0387 117.93 60.0182 117.786 59.9462C117.618 59.8673 117.453 59.809 117.289 59.7678C117.124 59.7267 116.953 59.7061 116.774 59.7061C116.428 59.7061 116.14 59.7713 115.91 59.9016C115.677 60.0319 115.505 60.2239 115.389 60.4743C115.272 60.7246 115.214 61.0332 115.214 61.4036C115.214 61.7705 115.272 62.0826 115.389 62.3364C115.505 62.5901 115.68 62.7822 115.91 62.9125C116.14 63.0428 116.431 63.108 116.774 63.108C116.918 63.108 117.076 63.0908 117.244 63.0531C117.412 63.0154 117.577 62.9605 117.738 62.8816C117.906 62.8096 118.053 62.7891 118.184 62.8233C118.314 62.8576 118.42 62.9228 118.503 63.0257C118.585 63.1251 118.636 63.2417 118.657 63.372C118.677 63.5023 118.66 63.6327 118.602 63.7595C118.544 63.8864 118.441 63.9893 118.297 64.0682C118.101 64.1848 117.861 64.2774 117.573 64.346C117.285 64.4077 117.001 64.442 116.716 64.442Z" fill="#B9C5D1"/>
<path id="Vector_41" d="M120.261 64.4248C120.014 64.4248 119.826 64.3562 119.692 64.219C119.558 64.0819 119.49 63.8898 119.49 63.6361V59.1608C119.49 58.9036 119.555 58.7081 119.692 58.5744C119.826 58.4407 120.014 58.3721 120.261 58.3721C120.512 58.3721 120.704 58.4407 120.834 58.5744C120.964 58.7081 121.03 58.9036 121.03 59.1608V63.6361C121.03 63.8864 120.964 64.0819 120.837 64.219C120.711 64.3562 120.519 64.4248 120.261 64.4248Z" fill="#B9C5D1"/>
<path id="Vector_42" d="M124.945 64.442C124.349 64.442 123.824 64.3151 123.371 64.0613C122.919 63.8076 122.569 63.4509 122.322 62.9948C122.075 62.5387 121.948 62.0037 121.948 61.3968C121.948 60.9407 122.02 60.5257 122.161 60.1519C122.301 59.7781 122.507 59.4592 122.771 59.1883C123.035 58.9208 123.354 58.715 123.721 58.5744C124.088 58.4338 124.496 58.3618 124.942 58.3618C125.539 58.3618 126.06 58.4887 126.509 58.739C126.958 58.9894 127.308 59.3426 127.559 59.7987C127.809 60.2548 127.936 60.7863 127.936 61.4002C127.936 61.8563 127.864 62.2747 127.723 62.645C127.583 63.0188 127.377 63.3412 127.113 63.6121C126.849 63.883 126.53 64.0888 126.163 64.2294C125.799 64.37 125.391 64.442 124.945 64.442ZM124.945 63.1526C125.24 63.1526 125.491 63.084 125.7 62.9434C125.906 62.8028 126.063 62.6039 126.177 62.3398C126.29 62.0792 126.345 61.7637 126.345 61.3933C126.345 60.8412 126.221 60.4125 125.978 60.1039C125.731 59.7987 125.388 59.6444 124.949 59.6444C124.657 59.6444 124.41 59.713 124.201 59.8501C123.992 59.9873 123.831 60.1862 123.721 60.4434C123.608 60.704 123.553 61.0195 123.553 61.3933C123.553 61.9454 123.677 62.3775 123.92 62.6862C124.164 62.9982 124.507 63.1526 124.945 63.1526Z" fill="#B9C5D1"/>
<path id="Vector_43" d="M131.46 64.4419C131.032 64.4419 130.651 64.3871 130.322 64.2773C129.993 64.1676 129.715 64.0064 129.489 63.7869C129.262 63.5709 129.094 63.2966 128.978 62.9708C128.864 62.645 128.806 62.2678 128.806 61.8357V59.1505C128.806 58.8933 128.875 58.7013 129.008 58.5675C129.142 58.4372 129.331 58.3721 129.578 58.3721C129.828 58.3721 130.02 58.4372 130.15 58.5675C130.281 58.6979 130.346 58.8933 130.346 59.1505V61.8528C130.346 62.2815 130.442 62.6073 130.631 62.8233C130.819 63.0394 131.097 63.1491 131.457 63.1491C131.814 63.1491 132.088 63.0394 132.277 62.8233C132.465 62.6073 132.561 62.2815 132.561 61.8528V59.1505C132.561 58.8933 132.626 58.7013 132.757 58.5675C132.887 58.4372 133.076 58.3721 133.323 58.3721C133.569 58.3721 133.755 58.4372 133.882 58.5675C134.008 58.6979 134.074 58.8933 134.074 59.1505V61.8357C134.074 62.4118 133.974 62.8919 133.775 63.2794C133.576 63.6669 133.281 63.9584 132.894 64.1505C132.51 64.3459 132.03 64.4419 131.46 64.4419Z" fill="#B9C5D1"/>
<path id="Vector_44" d="M137.302 64.442C137.079 64.442 136.846 64.4283 136.602 64.3974C136.359 64.3665 136.129 64.322 135.913 64.2602C135.697 64.1985 135.502 64.1265 135.327 64.0442C135.176 63.9722 135.069 63.8761 135.008 63.7561C134.946 63.6361 134.925 63.5092 134.939 63.3755C134.956 63.2417 135.004 63.1217 135.08 63.0188C135.159 62.9159 135.261 62.8474 135.388 62.8096C135.515 62.7719 135.663 62.7925 135.824 62.8645C136.036 62.9639 136.277 63.0428 136.544 63.0977C136.812 63.1526 137.062 63.18 137.298 63.18C137.665 63.18 137.926 63.132 138.074 63.0325C138.221 62.9365 138.296 62.8131 138.296 62.669C138.296 62.5421 138.245 62.4393 138.142 62.3604C138.039 62.2815 137.857 62.2164 137.593 62.1581L136.616 61.9489C136.081 61.8357 135.683 61.6437 135.419 61.3625C135.159 61.0847 135.025 60.7246 135.025 60.2822C135.025 59.9907 135.083 59.7301 135.203 59.4901C135.323 59.2534 135.495 59.0511 135.714 58.8831C135.934 58.715 136.198 58.5847 136.499 58.4956C136.805 58.403 137.141 58.3584 137.515 58.3584C137.806 58.3584 138.098 58.3893 138.396 58.4544C138.694 58.5196 138.951 58.6156 139.171 58.7425C139.298 58.8111 139.39 58.9002 139.445 59.0168C139.5 59.1334 139.524 59.2569 139.51 59.3803C139.497 59.5038 139.456 59.617 139.38 59.7095C139.305 59.8056 139.205 59.8673 139.078 59.8982C138.951 59.929 138.804 59.9084 138.632 59.8364C138.471 59.7644 138.29 59.7095 138.084 59.6718C137.881 59.6341 137.683 59.6169 137.494 59.6169C137.288 59.6169 137.113 59.6409 136.966 59.689C136.822 59.737 136.712 59.8056 136.637 59.8947C136.561 59.9839 136.523 60.0868 136.523 60.2034C136.523 60.32 136.571 60.4194 136.671 60.5017C136.767 60.584 136.949 60.6526 137.209 60.7075L138.18 60.9167C138.722 61.0333 139.126 61.2253 139.394 61.4928C139.661 61.7603 139.795 62.1101 139.795 62.5387C139.795 62.8302 139.737 63.0908 139.62 63.324C139.504 63.5572 139.335 63.7561 139.119 63.9207C138.903 64.0853 138.639 64.2122 138.334 64.3014C138.032 64.3974 137.686 64.442 137.302 64.442Z" fill="#B9C5D1"/>
<path id="Vector_45" d="M143.66 64.4248C143.437 64.4248 143.266 64.363 143.146 64.2396C143.026 64.1161 142.967 63.9447 142.967 63.7218V59.0785C142.967 58.8487 143.032 58.6773 143.159 58.5572C143.286 58.4372 143.468 58.3789 143.705 58.3789C143.9 58.3789 144.054 58.4166 144.168 58.4921C144.281 58.5675 144.387 58.691 144.48 58.8659L146.277 62.0963H145.985L147.775 58.8659C147.875 58.6944 147.984 58.5675 148.098 58.4921C148.211 58.4166 148.365 58.3789 148.56 58.3789C148.783 58.3789 148.955 58.4372 149.075 58.5572C149.195 58.6773 149.253 58.8521 149.253 59.0785V63.7218C149.253 63.9447 149.195 64.1161 149.078 64.2396C148.962 64.363 148.787 64.4248 148.56 64.4248C148.338 64.4248 148.166 64.363 148.046 64.2396C147.926 64.1161 147.868 63.9447 147.868 63.7218V60.8446H148.043L146.695 63.1868C146.616 63.3102 146.534 63.4028 146.448 63.4611C146.362 63.5229 146.246 63.5537 146.102 63.5537C145.961 63.5537 145.848 63.5229 145.759 63.4611C145.67 63.3994 145.587 63.3068 145.515 63.1868L144.161 60.8377H144.353V63.7252C144.353 63.9481 144.294 64.1196 144.178 64.243C144.061 64.363 143.886 64.4248 143.66 64.4248Z" fill="#B9C5D1"/>
<path id="Vector_46" d="M151.146 64.3496C150.885 64.3496 150.683 64.281 150.549 64.1438C150.412 64.0066 150.343 63.8112 150.343 63.554V59.2468C150.343 58.9896 150.412 58.7941 150.549 58.6569C150.686 58.5198 150.885 58.4512 151.146 58.4512H153.982C154.184 58.4512 154.332 58.5026 154.434 58.6021C154.534 58.7015 154.585 58.849 154.585 59.0376C154.585 59.2331 154.534 59.3805 154.434 59.4834C154.335 59.5863 154.184 59.6377 153.982 59.6377H151.814V60.7591H153.797C153.992 60.7591 154.14 60.8105 154.242 60.91C154.345 61.0094 154.397 61.1569 154.397 61.3524C154.397 61.5478 154.345 61.6953 154.242 61.7947C154.14 61.8942 153.989 61.9456 153.797 61.9456H151.814V63.1596H153.982C154.184 63.1596 154.332 63.211 154.434 63.3139C154.534 63.4168 154.585 63.5643 154.585 63.7529C154.585 63.9483 154.534 64.0958 154.434 64.1953C154.335 64.2947 154.184 64.3461 153.982 64.3461H151.146V64.3496Z" fill="#B9C5D1"/>
<path id="Vector_47" d="M155.662 64.4248C155.491 64.4248 155.344 64.3836 155.227 64.3047C155.11 64.2224 155.038 64.1127 155.011 63.9687C154.983 63.8281 155.007 63.6669 155.086 63.4886L157.168 59.0065C157.267 58.7904 157.391 58.6292 157.542 58.5298C157.689 58.4303 157.857 58.3789 158.049 58.3789C158.238 58.3789 158.406 58.4303 158.547 58.5298C158.687 58.6292 158.814 58.7904 158.92 59.0065L161.002 63.4886C161.091 63.6669 161.122 63.8281 161.098 63.9721C161.074 64.1161 161.002 64.2293 160.889 64.3082C160.776 64.387 160.635 64.4248 160.467 64.4248C160.244 64.4248 160.073 64.3733 159.953 64.2739C159.833 64.1744 159.726 64.0133 159.63 63.7903L159.178 62.7273L159.764 63.1525H156.317L156.911 62.7273L156.458 63.7903C156.359 64.0133 156.256 64.1744 156.149 64.2739C156.04 64.3733 155.879 64.4248 155.662 64.4248ZM158.029 60.0593L157.058 62.3775L156.825 61.9762H159.26L159.027 62.3775L158.049 60.0593H158.029Z" fill="#B9C5D1"/>
<path id="Vector_48" d="M162.545 64.3501C162.298 64.3501 162.109 64.2815 161.972 64.1443C161.835 64.0072 161.766 63.8151 161.766 63.5716V59.2233C161.766 58.9729 161.831 58.7809 161.968 58.6472C162.102 58.5134 162.291 58.4448 162.538 58.4448C162.788 58.4448 162.98 58.51 163.11 58.6472C163.241 58.7809 163.306 58.9729 163.306 59.2233V63.071H165.346C165.559 63.071 165.72 63.1258 165.837 63.2356C165.95 63.3453 166.008 63.503 166.008 63.7088C166.008 63.9146 165.95 64.0757 165.837 64.1855C165.724 64.2986 165.559 64.3535 165.346 64.3535H162.545V64.3501Z" fill="#B9C5D1"/>
</g>
</g>
</g>
</svg>
