<svg width="157" height="158" viewBox="0 0 157 158" fill="none" xmlns="http://www.w3.org/2000/svg">
<g id="Group 1597883169">
<circle id="Ellipse 236" cx="78.5" cy="79" r="78.5" fill="black"/>
<path id="Vector" d="M78.5002 48.1206C76.0933 72.189 56.9055 78.3398 46.877 79.7438C70.9454 82.1507 77.0962 101.272 78.5002 111.367C79.8373 101.339 85.9881 82.1507 110.123 79.7438C100.095 78.3398 80.907 72.189 78.5002 48.1206Z" fill="#7362FF"/>
<g id="Group">
<path id="Vector_2" d="M81.2646 26.6132L83.0116 12.0874L85.3756 12.376L83.6287 26.9018L81.2646 26.6132ZM83.228 26.8537L83.4764 24.7854L90.2799 25.6031L90.0315 27.6714L83.228 26.8537ZM83.9973 20.5047L84.2457 18.4364L90.4883 19.19L90.2398 21.2582L83.9973 20.5047ZM84.7345 14.3961L84.9829 12.3279L91.6102 13.1295L91.3617 15.1978L84.7345 14.3961Z" fill="white"/>
<path id="Vector_3" d="M90.8491 27.6313L98.5341 22.156L98.43 22.5008L96.3945 14.0835L98.9108 15.0214L100.337 21.178L100.698 21.3143L105.843 17.6107L108.255 18.5006L101.09 23.5509L101.171 23.2142L103.535 32.353L101.002 31.407L99.2874 24.5449L98.9268 24.4087L93.2692 28.5211L90.8491 27.6313Z" fill="white"/>
<path id="Vector_4" d="M104.77 33.306L113.096 21.1611L115.075 22.5239L106.749 34.6688L104.77 33.306ZM109.129 30.4923L110.315 28.7607L112.823 30.4842C113.352 30.845 113.857 31.0454 114.346 31.0775C114.835 31.1095 115.291 31.0133 115.724 30.7809C116.157 30.5484 116.525 30.2117 116.838 29.7628C117.159 29.2978 117.343 28.8248 117.399 28.3358C117.455 27.8468 117.383 27.3899 117.167 26.949C116.958 26.5161 116.59 26.1153 116.061 25.7465L113.552 24.023L114.738 22.2915L117.014 23.8547C118.016 24.5441 118.753 25.2816 119.218 26.0832C119.683 26.8769 119.891 27.6945 119.843 28.5282C119.795 29.3619 119.49 30.1876 118.938 31.0053L118.753 31.2699C118.2 32.0715 117.543 32.6487 116.774 33.0014C116.005 33.3541 115.171 33.4503 114.258 33.306C113.344 33.1617 112.39 32.7369 111.389 32.0555L109.129 30.4923Z" fill="white"/>
<path id="Vector_5" d="M114.746 40.7299L125.42 30.7334L127.063 32.489L116.389 42.4855L114.746 40.7299ZM116.116 42.1969L117.679 40.7299L122.127 45.4836L120.564 46.9506L116.116 42.1969Z" fill="white"/>
<path id="Vector_6" d="M124.523 54.0611C123.882 52.9067 123.537 51.7924 123.481 50.7343C123.425 49.6761 123.577 48.6901 123.938 47.7682C124.298 46.8543 124.795 46.0527 125.412 45.3633C126.029 44.6819 126.694 44.1448 127.4 43.752L127.784 43.5355C128.554 43.1107 129.403 42.8221 130.325 42.6697C131.246 42.5174 132.184 42.5495 133.129 42.7499C134.075 42.9503 134.964 43.3672 135.814 43.9925C136.663 44.6177 137.393 45.4915 138.01 46.6138C138.627 47.7361 138.971 48.8184 139.043 49.8605C139.116 50.9026 138.987 51.8806 138.659 52.7945C138.33 53.7084 137.857 54.518 137.232 55.2155C136.615 55.9129 135.918 56.4821 135.141 56.9069L134.756 57.1234C134.051 57.5082 133.25 57.7807 132.328 57.933C131.414 58.0854 130.477 58.0773 129.507 57.901C128.538 57.7246 127.624 57.3238 126.759 56.7065C125.893 56.0893 125.156 55.2075 124.523 54.0611ZM126.47 52.9869C126.855 53.6923 127.336 54.2535 127.897 54.6703C128.465 55.0872 129.075 55.3758 129.74 55.5281C130.405 55.6804 131.078 55.7045 131.767 55.5922C132.456 55.48 133.121 55.2475 133.762 54.8948C134.444 54.518 135.013 54.0691 135.477 53.54C135.942 53.0109 136.287 52.4257 136.503 51.7924C136.727 51.1592 136.808 50.4938 136.744 49.7964C136.679 49.0989 136.455 48.4015 136.07 47.6961C135.686 46.9906 135.213 46.4295 134.66 46.0046C134.107 45.5797 133.498 45.2831 132.841 45.1308C132.184 44.9785 131.511 44.9544 130.813 45.0667C130.124 45.1789 129.435 45.4274 128.762 45.7962C128.121 46.1489 127.568 46.5898 127.103 47.1109C126.646 47.6319 126.302 48.2171 126.077 48.8584C125.853 49.4997 125.765 50.1731 125.821 50.8786C125.869 51.576 126.085 52.2815 126.47 52.9869Z" fill="white"/>
<path id="Vector_7" d="M128.906 62.5583L143.274 59.3276L143.803 61.6765L129.435 64.9071L128.906 62.5583ZM130.869 71.3202L136.126 65.372L136.727 68.0335L131.502 74.118L130.869 71.3202ZM134.227 63.0312L136.198 62.5903L137.032 66.3019C137.16 66.8631 137.376 67.32 137.697 67.6727C138.017 68.0255 138.402 68.266 138.851 68.3862C139.299 68.5065 139.796 68.5145 140.333 68.3942C140.854 68.274 141.295 68.0655 141.647 67.7609C142 67.4563 142.256 67.0715 142.401 66.6146C142.545 66.1576 142.553 65.6526 142.425 65.0915L141.591 61.3798L143.627 60.9229L144.388 64.3219C144.636 65.4201 144.684 66.4061 144.532 67.288C144.38 68.1698 144.027 68.9073 143.458 69.5005C142.889 70.0937 142.088 70.5106 141.046 70.743L140.734 70.8152C139.692 71.0477 138.786 71.0156 138.025 70.719C137.256 70.4144 136.623 69.9013 136.118 69.1718C135.613 68.4423 135.236 67.5285 134.988 66.4382L134.227 63.0312Z" fill="white"/>
<path id="Vector_8" d="M131.334 77.8136L133.417 77.8456L133.305 84.6997L131.222 84.6676L131.334 77.8136ZM131.366 75.8335L145.991 76.074L145.951 78.4549L131.326 78.2144L131.366 75.8335ZM137.729 77.9178L139.812 77.9498L139.708 84.2427L137.625 84.2107L137.729 77.9178ZM143.875 78.022L145.959 78.0541L145.846 84.7237L143.763 84.6917L143.875 78.022Z" fill="white"/>
<path id="Vector_9" d="M120.708 110.818L122.319 112.14L117.968 117.431L116.357 116.109L120.708 110.818ZM121.966 109.287L133.266 118.578L131.751 120.421L120.452 111.13L121.966 109.287ZM125.645 114.882L127.255 116.205L123.257 121.063L121.646 119.74L125.645 114.882ZM130.389 118.786L131.999 120.109L127.76 125.263L126.15 123.941L130.389 118.786Z" fill="white"/>
<path id="Vector_10" d="M115.924 116.845L116.429 126.273L116.197 126L124.395 128.79L122.255 130.409L116.293 128.317L115.988 128.549L116.357 134.882L114.297 136.445L113.873 127.691L114.113 127.94L105.13 125.046L107.286 123.411L114.001 125.639L114.305 125.407L113.865 118.424L115.924 116.845Z" fill="white"/>
<path id="Vector_11" d="M103.71 130.763L104.536 132.695L101.739 133.897C101.146 134.146 100.713 134.475 100.417 134.867C100.128 135.26 99.9599 135.701 99.9278 136.19C99.8878 136.679 99.9759 137.176 100.192 137.681C100.417 138.194 100.713 138.611 101.09 138.916C101.466 139.228 101.899 139.405 102.38 139.461C102.861 139.517 103.398 139.421 103.983 139.164L106.779 137.962L107.605 139.894L105.065 140.984C103.951 141.465 102.925 141.681 102.003 141.649C101.082 141.617 100.28 141.353 99.5993 140.872C98.9181 140.383 98.3812 139.685 97.9966 138.779L97.8683 138.483C97.4837 137.585 97.3475 136.719 97.4677 135.886C97.5798 135.052 97.9485 134.29 98.5575 133.601C99.1665 132.911 100.032 132.326 101.154 131.845L103.71 130.763ZM103.67 125.568L109.464 139.108L107.252 140.054L101.458 126.514L103.67 125.568Z" fill="white"/>
<path id="Vector_12" d="M90.1357 130.369L90.5284 132.478L84.1256 133.68L83.7329 131.572L90.1357 130.369ZM92.1071 130L94.7996 144.382L92.4356 144.823L89.7431 130.441L92.1071 130Z" fill="white"/>
<path id="Vector_13" d="M75.5837 131.089C76.9059 131.17 78.0278 131.474 78.9494 131.995C79.8709 132.516 80.6242 133.174 81.2012 133.975C81.7782 134.777 82.1949 135.619 82.4353 136.516C82.6757 137.414 82.7799 138.256 82.7318 139.058L82.7077 139.499C82.6516 140.38 82.4433 141.246 82.0747 142.112C81.706 142.97 81.1852 143.747 80.504 144.437C79.8229 145.126 78.9975 145.655 78.0118 146.04C77.0341 146.417 75.9042 146.569 74.6221 146.489C73.3399 146.409 72.242 146.12 71.3205 145.623C70.3989 145.126 69.6456 144.493 69.0526 143.723C68.4596 142.954 68.0349 142.12 67.7705 141.222C67.514 140.324 67.4098 139.434 67.4659 138.553L67.49 138.112C67.5381 137.31 67.7464 136.484 68.107 135.627C68.4676 134.769 68.9805 133.983 69.6536 133.262C70.3188 132.54 71.1522 131.979 72.1378 131.578C73.1315 131.17 74.2775 131.009 75.5837 131.089ZM75.4475 133.31C74.6461 133.262 73.9169 133.358 73.2597 133.615C72.6026 133.871 72.0337 134.232 71.5448 134.713C71.064 135.194 70.6794 135.747 70.4069 136.388C70.1345 137.03 69.9742 137.711 69.9261 138.448C69.878 139.218 69.9501 139.948 70.1505 140.621C70.3508 141.294 70.6553 141.895 71.072 142.425C71.4888 142.954 72.0096 143.379 72.6267 143.699C73.2517 144.02 73.9569 144.204 74.7583 144.252C75.5596 144.3 76.2889 144.204 76.946 143.972C77.6031 143.731 78.1721 143.379 78.6609 142.906C79.1417 142.433 79.5264 141.871 79.7988 141.23C80.0713 140.581 80.2316 139.875 80.2796 139.106C80.3277 138.368 80.2556 137.671 80.0633 137.005C79.8709 136.34 79.5664 135.739 79.1417 135.202C78.717 134.665 78.1961 134.232 77.5791 133.903C76.962 133.55 76.2488 133.358 75.4475 133.31Z" fill="white"/>
<path id="Vector_14" d="M62.8253 134.481L62.1442 136.389L58.5621 135.106C58.0252 134.914 57.5204 134.857 57.0476 134.938C56.5828 135.018 56.1741 135.218 55.8215 135.531C55.4689 135.843 55.2125 136.26 55.0201 136.781C54.8438 137.286 54.7877 137.767 54.8518 138.232C54.916 138.697 55.1083 139.114 55.4128 139.475C55.7253 139.844 56.15 140.124 56.6869 140.317L60.269 141.599L59.5798 143.555L56.2943 142.377C55.2365 142 54.379 141.511 53.7139 140.91C53.0488 140.309 52.6161 139.611 52.4237 138.818C52.2234 138.024 52.3035 137.126 52.6641 136.116L52.7763 135.811C53.1369 134.801 53.6498 134.056 54.3149 133.575C54.9801 133.086 55.7494 132.829 56.6389 132.789C57.5284 132.749 58.498 132.925 59.5558 133.302L62.8253 134.481ZM57.6245 127.21L59.8283 134.833L57.2639 133.911L54.924 126.24L57.6245 127.21ZM66.0708 130.24L61.1024 144.108L58.8426 143.299L63.811 129.43L66.0708 130.24Z" fill="white"/>
<path id="Vector_15" d="M44.988 134.585L43.8421 136.325L38.2646 132.661L39.4106 130.922L44.988 134.585ZM48.3698 129.447L47.2238 131.186L41.9669 127.731L43.1129 125.992L48.3698 129.447ZM53.5385 125.19L45.5089 137.415L43.5135 136.108L51.5431 123.883L53.5385 125.19ZM51.8797 124.1L50.7338 125.839L45.0041 122.072L46.15 120.332L51.8797 124.1Z" fill="white"/>
<path id="Vector_16" d="M17.8132 101.319L15.8338 101.968L13.7583 95.627L15.7377 94.9776L17.8132 101.319ZM30.3464 99.2985L16.4509 103.852L15.7056 101.583L29.6011 97.0298L30.3464 99.2985ZM23.6551 99.4027L21.6757 100.052L19.7204 94.0718L21.6997 93.4224L23.6551 99.4027ZM29.7293 97.4146L27.75 98.064L25.6184 91.5546L27.5977 90.9053L29.7293 97.4146Z" fill="white"/>
<path id="Vector_17" d="M27.2214 90.191L19.0075 85.5415L19.3681 85.4934L12.6127 90.9045L12.3883 88.227L17.3567 84.323L17.3246 83.9462L11.7873 80.8519L11.5869 78.2786L19.1918 82.6315L18.8552 82.6956L26.1235 76.6753L26.3399 79.3688L20.8506 83.834L20.8827 84.2107L27.005 87.5937L27.2214 90.191Z" fill="white"/>
<path id="Vector_18" d="M26.4519 75.1362L11.9233 72.7713L12.308 70.3985L26.8446 72.7633L26.4519 75.1362ZM22.0525 72.3866L19.977 72.0499L20.4658 69.0437C20.57 68.4104 20.5299 67.8653 20.3536 67.4084C20.1773 66.9514 19.8968 66.5827 19.5042 66.2861C19.1115 65.9894 18.6467 65.8051 18.1018 65.7169C17.5489 65.6287 17.036 65.6608 16.5712 65.8131C16.1064 65.9654 15.7218 66.2299 15.4173 66.6067C15.1127 66.9835 14.9124 67.4885 14.8082 68.1218L14.3194 71.128L12.2439 70.7913L12.6846 68.0577C12.877 66.8552 13.2376 65.8772 13.7584 65.1157C14.2793 64.3541 14.9284 63.817 15.7057 63.5043C16.4831 63.1917 17.3565 63.1115 18.3342 63.2719L18.6547 63.32C19.6164 63.4723 20.4177 63.825 21.0588 64.3701C21.6999 64.9152 22.1487 65.6287 22.4051 66.5185C22.6615 67.4084 22.6936 68.4505 22.4932 69.653L22.0525 72.3866Z" fill="white"/>
<path id="Vector_19" d="M28.9126 62.9752L15.3296 57.548L16.2191 55.3115L29.8021 60.7386L28.9126 62.9752ZM29.6578 61.1154L27.6705 60.3217L30.0906 54.2773L32.0779 55.071L29.6578 61.1154Z" fill="white"/>
<path id="Vector_20" d="M36.8465 48.4733C36.0692 49.5395 35.2117 50.3251 34.2741 50.8222C33.3366 51.3192 32.3749 51.5998 31.3973 51.6559C30.4116 51.712 29.474 51.6078 28.5925 51.3352C27.711 51.0627 26.9417 50.6859 26.2926 50.2129L25.94 49.9564C25.2268 49.4353 24.6098 48.786 24.0809 48.0164C23.552 47.2468 23.1834 46.3891 22.967 45.4431C22.7506 44.5052 22.7506 43.5112 22.959 42.4851C23.1673 41.459 23.6482 40.4168 24.4014 39.3827C25.1547 38.3486 25.9961 37.579 26.9097 37.066C27.8232 36.5609 28.7688 36.2643 29.7305 36.1761C30.7001 36.088 31.6297 36.1761 32.5272 36.4407C33.4247 36.7052 34.2261 37.098 34.9393 37.6191L35.2919 37.8756C35.941 38.3486 36.526 38.9659 37.0549 39.7274C37.5838 40.489 37.9684 41.3467 38.2168 42.3007C38.4652 43.2546 38.4893 44.2487 38.297 45.2988C38.0966 46.357 37.6158 47.4152 36.8465 48.4733ZM35.0515 47.1587C35.5243 46.5093 35.8288 45.844 35.973 45.1465C36.1173 44.4571 36.1093 43.7757 35.973 43.1104C35.8288 42.445 35.5643 41.8277 35.1717 41.2505C34.779 40.6734 34.2902 40.1683 33.6972 39.7354C33.0721 39.2785 32.423 38.9498 31.7419 38.7574C31.0687 38.565 30.3956 38.4929 29.7224 38.565C29.0573 38.6292 28.4162 38.8376 27.8152 39.1903C27.2142 39.543 26.6693 40.0401 26.1965 40.6894C25.7237 41.3387 25.4111 42.0041 25.2589 42.6855C25.1066 43.3669 25.0986 44.0403 25.2348 44.7056C25.3711 45.371 25.6355 45.9883 26.0362 46.5654C26.4289 47.1426 26.9417 47.6637 27.5668 48.1206C28.1598 48.5535 28.7929 48.8662 29.458 49.0666C30.1231 49.267 30.7963 49.3311 31.4774 49.259C32.1586 49.1948 32.7997 48.9864 33.4167 48.6417C34.0337 48.305 34.5787 47.808 35.0515 47.1587Z" fill="white"/>
<path id="Vector_21" d="M42.7112 40.8826L33.6719 29.2508L35.5711 27.7758L44.6024 39.4076L42.7112 40.8826ZM40.8681 35.8644L39.626 34.2691L42.631 31.9283C43.0878 31.5756 43.4003 31.1828 43.5847 30.7418C43.769 30.3009 43.8171 29.852 43.7369 29.3871C43.6568 28.9221 43.4484 28.4812 43.1119 28.0483C42.7833 27.6235 42.4067 27.3188 41.9739 27.1264C41.5492 26.934 41.0924 26.8699 40.6196 26.934C40.1468 26.9982 39.6821 27.2066 39.2253 27.5593L36.2202 29.9001L34.938 28.2568L37.6867 26.1164C38.5762 25.427 39.4497 24.962 40.3071 24.7215C41.1726 24.481 41.99 24.489 42.7673 24.7536C43.5446 25.0101 44.2578 25.5632 44.9149 26.405L45.1153 26.6615C45.7724 27.5032 46.125 28.3369 46.1811 29.1546C46.2371 29.9723 46.0368 30.7739 45.5961 31.5355C45.1553 32.3051 44.4902 33.0345 43.6007 33.724L40.8681 35.8644ZM49.7952 35.3753L42.1823 33.1468L44.3299 31.4713L52.055 33.6117L49.7952 35.3753Z" fill="white"/>
<path id="Vector_22" d="M53.6746 33.0017L47.6484 19.6703L49.8201 18.6843L55.8463 32.0157L53.6746 33.0017ZM50.317 20.7526L49.4595 18.8527L55.5418 16.103L56.3993 18.0029L50.317 20.7526ZM52.8492 26.356L51.9918 24.4562L57.7215 21.8668L58.5789 23.7667L52.8492 26.356ZM55.4777 32.184L54.6202 30.2841L60.8628 27.4623L61.7203 29.3622L55.4777 32.184Z" fill="white"/>
</g>
</g>
</svg>
