<svg xmlns="http://www.w3.org/2000/svg" width="228" height="61" viewBox="0 0 228 61" fill="none">
  <path d="M101.053 14.0015H93.9866V20.9026H101.053V14.0015Z" fill="#7362FF"/>
  <path d="M93.9863 47.7842H101.052V20.9028L93.9863 28.5497V47.7842Z" fill="black" fill-opacity="0.8"/>
  <path d="M193.875 14.0015H186.999V47.728H193.875V14.0015Z" fill="black" fill-opacity="0.8"/>
  <path d="M111.059 36.3267L103.682 47.7839H111.847L118.768 36.3416L118.775 36.3267H112.555H111.059Z" fill="black" fill-opacity="0.8"/>
  <path d="M133.76 14.0015H125.658L118.906 24.933L111.785 14.0015H103.927L118.782 36.323L125.903 47.784H134.006L122.835 30.6261L133.76 14.0015Z" fill="black" fill-opacity="0.8"/>
  <path d="M91.2707 20.8467V14.0015H70.9087V45.4239H77.6776V34.6677H87.7221V27.0097H77.7191L77.6776 26.9836V20.8467H91.2707Z" fill="black" fill-opacity="0.8"/>
  <path d="M219.672 14.0015L197.88 54.7224H205.951L227.74 14.0015H219.672Z" fill="black" fill-opacity="0.8"/>
  <path d="M211.936 27.9939L204.452 14.0015H196.381L203.868 27.9939H211.936Z" fill="black" fill-opacity="0.8"/>
  <path d="M160.639 25.9135C160.328 24.7726 159.896 23.6243 159.35 22.4648C159.229 22.2038 159.088 21.9391 158.943 21.6744C158.918 21.6296 158.894 21.5849 158.87 21.5401C158.86 21.5215 158.849 21.4991 158.839 21.4805C158.708 21.2456 158.562 21.007 158.414 20.7684C158.359 20.6826 158.303 20.5931 158.245 20.5074C158.124 20.321 158.003 20.1346 157.871 19.9481C157.802 19.8475 157.733 19.7505 157.661 19.6499C157.484 19.4038 157.301 19.154 157.108 18.9005C157.091 18.8818 157.08 18.8595 157.063 18.8408C156.088 17.5806 154.82 16.5106 153.262 15.627C151.704 14.7434 149.98 14.2214 148.093 14.0574C145.799 13.8598 143.667 14.1729 141.69 14.9932C141.683 14.9932 141.676 14.9969 141.666 15.0006C141.573 15.0416 141.48 15.0864 141.386 15.1274C139.949 15.7687 138.594 16.6784 137.326 17.8677C136.773 18.386 136.266 18.9378 135.802 19.5231C133.667 22.2001 132.451 25.5556 132.15 29.5971C132.123 29.9699 132.109 30.3353 132.098 30.7007C132.098 30.7268 132.098 30.7529 132.095 30.7752C132.095 30.8312 132.095 30.8871 132.095 30.943C132.095 31.1518 132.095 31.3606 132.095 31.5657C132.095 31.6812 132.102 31.7968 132.105 31.9124C132.112 32.0876 132.119 32.2591 132.13 32.4306C132.136 32.5611 132.147 32.6916 132.157 32.8221C132.171 32.9787 132.185 33.1316 132.202 33.2881C132.216 33.4261 132.233 33.564 132.25 33.6983C132.268 33.8437 132.292 33.9891 132.313 34.1345C132.333 34.2762 132.354 34.4141 132.382 34.5521C132.406 34.69 132.434 34.8242 132.461 34.9622C132.489 35.1039 132.52 35.2493 132.551 35.3909C132.579 35.514 132.613 35.637 132.644 35.76C132.682 35.9129 132.72 36.0658 132.762 36.2149C132.786 36.3044 132.817 36.3976 132.845 36.4871C132.976 36.9196 133.118 37.352 133.284 37.7696C133.308 37.8255 133.335 37.8815 133.36 37.9374C133.467 38.2021 133.584 38.4668 133.709 38.7278C133.75 38.8136 133.792 38.8993 133.833 38.9851C134.144 39.6189 134.496 40.2341 134.894 40.8306C134.949 40.9126 135.004 40.9946 135.06 41.0767C135.239 41.3376 135.422 41.5949 135.616 41.8447C135.64 41.8783 135.664 41.9155 135.692 41.9491C136.538 43.0378 137.468 43.9736 138.48 44.7565C140.709 46.4827 143.338 47.4782 146.365 47.7392C149.513 48.0114 152.225 47.4782 154.503 46.136C156.78 44.7938 158.58 43.2205 159.903 41.4122L159.837 41.3563L154.876 37.1321C154.236 37.9859 153.552 38.698 152.834 39.2796C151.082 40.6926 149.092 41.3078 146.863 41.1139C146.649 41.0953 146.441 41.0692 146.237 41.0394C146.186 41.0319 146.137 41.0207 146.085 41.0095C145.933 40.9834 145.785 40.9573 145.64 40.9275C145.567 40.9126 145.498 40.8902 145.429 40.8753C145.305 40.8455 145.18 40.8157 145.063 40.7821C144.987 40.7597 144.914 40.7336 144.842 40.7076C144.731 40.6703 144.617 40.6367 144.51 40.5957C144.434 40.5659 144.358 40.5323 144.282 40.4988C144.182 40.4578 144.078 40.4167 143.981 40.372C143.902 40.3347 143.826 40.2937 143.746 40.2527C143.656 40.208 143.563 40.1632 143.477 40.111C143.394 40.0625 143.314 40.0103 143.235 39.9619C143.155 39.9134 143.076 39.8649 142.996 39.8127C142.91 39.7531 142.827 39.6897 142.744 39.6301C142.675 39.5816 142.606 39.5331 142.54 39.4809C142.45 39.4101 142.364 39.3318 142.274 39.2572C142.219 39.2088 142.164 39.164 142.108 39.1118C142.015 39.0261 141.922 38.9329 141.832 38.8397C141.787 38.7949 141.746 38.7539 141.701 38.7092C141.6 38.6048 141.507 38.4929 141.41 38.3773C141.379 38.3401 141.348 38.3065 141.317 38.2692C141.213 38.1425 141.117 38.0082 141.017 37.874C140.996 37.8479 140.975 37.8218 140.958 37.7957C140.851 37.6466 140.75 37.49 140.65 37.3297C140.64 37.3148 140.633 37.2998 140.623 37.2887C140.298 36.7555 140.008 36.1702 139.752 35.5252L139.69 35.376L161.209 27.8821L160.643 25.9135H160.639ZM139.116 28.3369C139.137 28.2101 139.158 28.0834 139.182 27.9603C139.209 27.8112 139.234 27.6584 139.265 27.5092C139.33 27.211 139.406 26.9239 139.496 26.6442C139.52 26.5697 139.548 26.5026 139.572 26.4317C139.645 26.2192 139.724 26.0067 139.811 25.8016C139.849 25.7084 139.894 25.6189 139.938 25.5295C140.021 25.3542 140.108 25.1827 140.198 25.015C140.249 24.9217 140.305 24.8285 140.36 24.7391C140.457 24.5825 140.557 24.4296 140.661 24.2767C140.723 24.191 140.782 24.1015 140.847 24.0158C140.965 23.8629 141.089 23.7138 141.217 23.5684C141.279 23.4975 141.334 23.4267 141.4 23.3596C141.597 23.1508 141.801 22.9495 142.019 22.763C143.902 21.13 145.847 20.403 147.855 20.5745C149.192 20.6901 150.367 21.1226 151.382 21.872C151.42 21.8981 151.455 21.9279 151.49 21.9577C151.59 22.036 151.69 22.118 151.787 22.2001C151.842 22.2485 151.894 22.3007 151.949 22.3492C152.029 22.4238 152.105 22.4983 152.177 22.5729C152.222 22.6214 152.267 22.6661 152.308 22.7146C152.405 22.8264 152.498 22.9383 152.585 23.0539C152.595 23.0688 152.606 23.0799 152.616 23.0949C152.723 23.2403 152.82 23.3931 152.91 23.546L139.123 28.3369H139.116Z" fill="black" fill-opacity="0.8"/>
  <path d="M184.266 20.8467V14.0015H163.904V45.4239H170.677V34.6677H180.721V27.0097H170.718L170.673 26.9836V20.8467H184.266Z" fill="black" fill-opacity="0.8"/>
  <circle cx="29.9999" cy="30.4999" r="29.9999" fill="#7362FF"/>
  <path d="M45.3428 13.6946L22.2882 13.6821C22.0327 13.6821 21.799 13.8161 21.6713 14.0342L13.7362 27.518C13.4558 27.9947 13.7985 28.5991 14.353 28.5991H24.5874C24.8429 28.5991 25.0765 28.4651 25.2043 28.2439L27.5284 24.2872C27.6561 24.0692 27.8929 23.9321 28.1484 23.9352L40.5574 23.9414C40.8191 23.9414 41.0621 23.7981 41.1867 23.5676L41.2895 23.3775L41.8939 22.2622L45.969 14.7539C46.2275 14.2772 45.8817 13.6946 45.3396 13.6946H45.3428Z" fill="white"/>
  <path d="M35.6063 28.9792C35.4817 28.7487 35.2387 28.6054 34.977 28.6054L25.3439 28.5991C25.0885 28.5991 24.8548 28.7331 24.7239 28.9512L19.8264 37.2757C19.6987 37.4938 19.6956 37.7618 19.8139 37.9798L24.7239 47.0303C24.9888 47.5195 25.6897 47.5319 25.9733 47.0521L30.5873 39.2042C30.715 38.9861 30.9518 38.8491 31.2073 38.8491L39.7624 38.8553C40.3076 38.8553 40.6534 38.2758 40.3917 37.796L35.6063 28.9792Z" fill="white"/>
</svg>