<svg xmlns="http://www.w3.org/2000/svg" width="32" height="34" viewBox="0 0 32 34" fill="none">
  <path d="M31.0276 0.512195L8.46669 0.5C8.21669 0.5 7.98803 0.631098 7.86303 0.844512L0.0977928 14.0396C-0.176597 14.5061 0.158772 15.0975 0.701454 15.0975H10.7167C10.9667 15.0975 11.1953 14.9665 11.3203 14.75L13.5947 10.878C13.7197 10.6646 13.9514 10.5305 14.2014 10.5335L26.3447 10.5396C26.6008 10.5396 26.8386 10.3994 26.9606 10.1738L27.0612 9.9878L27.6526 8.89633L31.6404 1.54878C31.8935 1.08232 31.5551 0.512195 31.0246 0.512195H31.0276Z" fill="#7362FF"/>
  <path d="M21.5 15.4691C21.378 15.2435 21.1402 15.1033 20.8841 15.1033L11.4573 15.0972C11.2073 15.0972 10.9787 15.2283 10.8506 15.4417L6.05793 23.588C5.93293 23.8014 5.92989 24.0636 6.04574 24.277L10.8506 33.1337C11.1098 33.6124 11.7957 33.6246 12.0732 33.1551L16.5884 25.4752C16.7134 25.2618 16.9451 25.1276 17.1951 25.1276L25.5671 25.1337C26.1006 25.1337 26.439 24.5667 26.1829 24.0972L21.5 15.4691Z" fill="#7362FF"/>
</svg>