<svg xmlns="http://www.w3.org/2000/svg" width="24" height="25" viewBox="0 0 24 25" fill="none">
  <path fill-rule="evenodd" clip-rule="evenodd" d="M8.11911 1.82484C9.2001 0.960056 10.6271 0.5 12.0805 0.5C13.534 0.5 14.961 0.960056 16.042 1.82484C17.1287 2.69424 17.7995 3.92748 17.7995 5.27515V7.16272C17.7995 8.5104 17.1287 9.74363 16.042 10.613C14.961 11.4778 13.534 11.9379 12.0805 11.9379C10.6271 11.9379 9.2001 11.4778 8.11911 10.613C7.03237 9.74363 6.3616 8.5104 6.3616 7.16272V5.27515C6.3616 3.92748 7.03237 2.69424 8.11911 1.82484ZM12.0805 2.5C11.0309 2.5 10.0575 2.83541 9.3685 3.38658C8.68531 3.93314 8.3616 4.62036 8.3616 5.27515V7.16272C8.3616 7.81751 8.68531 8.50474 9.3685 9.05129C10.0575 9.60246 11.0309 9.93787 12.0805 9.93787C13.1302 9.93787 14.1036 9.60246 14.7926 9.05129C15.4758 8.50474 15.7995 7.81752 15.7995 7.16272V5.27515C15.7995 4.62036 15.4758 3.93314 14.7926 3.38658C14.1036 2.83541 13.1302 2.5 12.0805 2.5ZM11.7744 16.8232C7.59049 16.8232 3.86516 19.6651 2.2189 23.8651C2.01735 24.3793 1.43713 24.6328 0.922935 24.4312C0.408739 24.2297 0.155285 23.6495 0.356831 23.1353C2.25269 18.2984 6.63694 14.8232 11.7744 14.8232C16.9118 14.8232 21.2961 18.2984 23.192 23.1353C23.3935 23.6495 23.14 24.2297 22.6259 24.4312C22.1117 24.6328 21.5314 24.3793 21.3299 23.8651C19.6836 19.6651 15.9583 16.8232 11.7744 16.8232Z" fill="#3C3C3C"/>
</svg>