<svg xmlns="http://www.w3.org/2000/svg" width="24" height="23" viewBox="0 0 24 23" fill="none">
  <path fill-rule="evenodd" clip-rule="evenodd" d="M10.9764 2.13505C13.8232 -0.711683 18.4386 -0.711683 21.2854 2.13505C24.1321 4.98178 24.1321 9.59725 21.2854 12.444L14.1012 19.6282C13.9136 19.8157 13.6593 19.9211 13.3941 19.9211H4.91356L2.12752 22.7071C1.73699 23.0976 1.10383 23.0976 0.713303 22.7071C0.322779 22.3166 0.322779 21.6834 0.713303 21.2929L3.49935 18.5068L3.49935 10.0263C3.49935 9.76113 3.60471 9.50678 3.79224 9.31924L10.9764 2.13505ZM6.91356 17.9211L16.4959 8.33872C16.8864 7.9482 16.8864 7.31503 16.4959 6.92451C16.1054 6.53399 15.4722 6.53399 15.0817 6.92451L5.49935 16.5068L5.49935 10.4406L12.3906 3.54926C14.4563 1.48358 17.8055 1.48358 19.8711 3.54926C21.9368 5.61495 21.9368 8.96408 19.8711 11.0298L12.9799 17.9211H6.91356Z" fill="#3C3C3C"/>
</svg>