<svg xmlns="http://www.w3.org/2000/svg" width="25" height="25" viewBox="0 0 25 25" fill="none">
  <path fill-rule="evenodd" clip-rule="evenodd" d="M11.7333 2C6.35776 2 2 6.35776 2 11.7333C2 17.1089 6.35776 21.4667 11.7333 21.4667C14.3867 21.4667 16.7921 20.405 18.5478 18.6832C20.3491 16.9168 21.4667 14.4556 21.4667 11.7333C21.4667 6.35776 17.1089 2 11.7333 2ZM20.6465 19.3643C22.4046 17.3127 23.4667 14.6471 23.4667 11.7333C23.4667 5.25319 18.2135 0 11.7333 0C5.25319 0 0 5.25319 0 11.7333C0 18.2135 5.25319 23.4667 11.7333 23.4667C14.5795 23.4667 17.189 22.4533 19.2206 20.7677L23.3047 24.7187C23.7016 25.1027 24.3347 25.0922 24.7187 24.6953C25.1027 24.2984 25.0922 23.6653 24.6953 23.2813L20.6465 19.3643ZM10.6786 5.92857C10.6786 5.37629 11.1263 4.92857 11.6786 4.92857C14.9528 4.92857 17.6071 7.58288 17.6071 10.8571C17.6071 11.4094 17.1594 11.8571 16.6071 11.8571C16.0549 11.8571 15.6071 11.4094 15.6071 10.8571C15.6071 8.68745 13.8483 6.92857 11.6786 6.92857C11.1263 6.92857 10.6786 6.48086 10.6786 5.92857Z" fill="#3C3C3C"/>
</svg>