<svg xmlns="http://www.w3.org/2000/svg" width="26" height="25" viewBox="0 0 26 25" fill="none">
  <path d="M14.9879 24.5H10.4479C5.89791 24.5 3.60791 24.5 1.98791 22.87C0.35791 21.25 0.35791 18.96 0.35791 14.4V12.73C0.35791 10.13 0.35791 8.69 1.07791 7.42C1.79791 6.14 3.02791 5.4 5.25791 4.06L7.52791 2.7C9.87791 1.28 11.1779 0.5 12.7079 0.5C14.2379 0.5 15.5379 1.28 17.8879 2.69L20.1679 4.06C22.3979 5.4 23.6279 6.14 24.3379 7.41C24.6079 7.89 24.4379 8.5 23.9579 8.77C23.4779 9.04 22.8679 8.87 22.5979 8.39C22.1379 7.58 21.1379 6.97 19.1279 5.77L16.8579 4.4C12.6279 1.85 12.7679 1.86 8.54791 4.4L6.28791 5.78C4.28791 6.98 3.28791 7.59 2.81791 8.4C2.35791 9.21 2.35791 10.39 2.35791 12.72V14.39C2.35791 18.4 2.35791 20.41 3.39791 21.45C4.43791 22.5 6.43791 22.5 10.4379 22.5H14.9779C18.9779 22.5 20.9879 22.5 22.0179 21.46C23.0579 20.42 23.0579 18.41 23.0579 14.4V12.73C23.0579 12.18 23.5079 11.73 24.0579 11.73C24.6079 11.73 25.0579 12.18 25.0579 12.73V14.4C25.0579 18.96 25.0579 21.25 23.4379 22.88C21.8179 24.51 19.5379 24.5 14.9879 24.5ZM16.2579 20.24H9.15791C8.60791 20.24 8.15791 19.79 8.15791 19.24C8.15791 18.69 8.60791 18.24 9.15791 18.24H16.2579C16.8079 18.24 17.2579 18.69 17.2579 19.24C17.2579 19.79 16.8179 20.24 16.2579 20.24Z" fill="#7362FF"/>
</svg>