<svg xmlns="http://www.w3.org/2000/svg" width="26" height="25" viewBox="0 0 26 25" fill="none">
  <path fill-rule="evenodd" clip-rule="evenodd" d="M13.3589 0.000166818C13.8656 0.00935243 14.2852 0.395987 14.3358 0.900139C14.7467 4.99408 16.5572 7.49233 18.6473 9.04673C20.7719 10.6267 23.2445 11.2717 24.9767 11.5093C25.4718 11.5772 25.8408 12.0002 25.8408 12.5C25.8408 12.9998 25.4718 13.4228 24.9767 13.4907C23.2445 13.7283 20.7719 14.3733 18.6473 15.9533C16.5572 17.5077 14.7467 20.0059 14.3358 24.0999C14.2852 24.604 13.8656 24.9907 13.3589 24.9998C12.8523 25.009 12.4189 24.6379 12.3501 24.1359C12.1125 22.4037 11.4675 19.931 9.88754 17.8065C8.33315 15.7164 5.83489 13.9059 1.74096 13.495C1.22991 13.4437 0.84082 13.0136 0.84082 12.5C0.84082 11.9864 1.22991 11.5563 1.74096 11.505C5.83489 11.0941 8.33315 9.28358 9.88754 7.19348C11.4675 5.06896 12.1125 2.5963 12.3501 0.864134C12.4189 0.362147 12.8523 -0.00901879 13.3589 0.000166818ZM6.13556 12.5C8.51731 13.4531 10.2501 14.9426 11.4924 16.613C12.2732 17.663 12.8533 18.7743 13.2829 19.8525C14.233 17.3947 15.7492 15.6162 17.4538 14.3484C18.5517 13.5319 19.7167 12.9349 20.8408 12.5C19.7167 12.0651 18.5517 11.4681 17.4538 10.6516C15.7492 9.38384 14.233 7.60526 13.2829 5.1475C12.8533 6.22575 12.2732 7.33702 11.4924 8.387C10.2501 10.0574 8.51731 11.5469 6.13556 12.5Z" fill="#3C3C3C"/>
</svg>